<svg width="32" height="32" viewBox="0 0 32 32" fill="none" xmlns="http://www.w3.org/2000/svg">
<path d="M21.3337 21.3332C23.5429 21.3332 25.3337 23.124 25.3337 25.3332C25.3337 27.5424 23.5429 29.3332 21.3337 29.3332C19.1245 29.3332 17.3337 27.5424 17.3337 25.3332C17.3337 23.124 19.1245 21.3332 21.3337 21.3332ZM8.00033 15.9998C10.9458 15.9998 13.3337 18.3877 13.3337 21.3332C13.3337 24.2786 10.9458 26.6665 8.00033 26.6665C5.05481 26.6665 2.66699 24.2786 2.66699 21.3332C2.66699 18.3877 5.05481 15.9998 8.00033 15.9998ZM19.3337 2.6665C23.3838 2.6665 26.667 5.94974 26.667 9.99984C26.667 14.05 23.3838 17.3332 19.3337 17.3332C15.2835 17.3332 12.0003 14.05 12.0003 9.99984C12.0003 5.94974 15.2835 2.6665 19.3337 2.6665Z" fill="#CE583A"/>
</svg>
