<svg width="27" height="28" viewBox="0 0 27 28" fill="none" xmlns="http://www.w3.org/2000/svg">
<path d="M11.9094 20.4015L12.8842 18.1687C13.7518 16.1818 15.3133 14.6001 17.2611 13.7354L19.9444 12.5444C20.7974 12.1657 20.7974 10.9247 19.9444 10.546L17.3449 9.3921C15.3469 8.50525 13.7574 6.86498 12.9047 4.81023L11.9173 2.43075C11.5508 1.54774 10.3308 1.54774 9.96432 2.43075L8.97683 4.8102C8.1241 6.86498 6.53456 8.50525 4.53667 9.3921L1.9372 10.546C1.08409 10.9247 1.08409 12.1657 1.9372 12.5444L4.62047 13.7354C6.56828 14.6001 8.12981 16.1818 8.99735 18.1687L9.97221 20.4015C10.3469 21.2597 11.5346 21.2597 11.9094 20.4015ZM21.6696 25.8379L21.9437 25.2096C22.4325 24.0893 23.3127 23.1972 24.411 22.7092L25.2557 22.3339C25.7125 22.131 25.7125 21.4671 25.2557 21.2642L24.4584 20.9098C23.3317 20.4093 22.4357 19.4843 21.9553 18.3259L21.6738 17.6469C21.4775 17.1737 20.8233 17.1737 20.627 17.6469L20.3456 18.3259C19.8653 19.4843 18.9692 20.4093 17.8426 20.9098L17.0452 21.2642C16.5884 21.4671 16.5884 22.131 17.0452 22.3339L17.8898 22.7092C18.9882 23.1972 19.8684 24.0893 20.3571 25.2096L20.6314 25.8379C20.832 26.2979 21.4689 26.2979 21.6696 25.8379Z" fill="#FF3400"/>
</svg>
