<svg width="26" height="27" viewBox="0 0 26 27" fill="none" xmlns="http://www.w3.org/2000/svg">
<path d="M23.7222 5.00008H24.6673C25.4037 5.00008 26.0006 5.59704 26.0006 6.33341V15.6667C26.0006 16.4031 25.4037 17 24.6673 17H22.0006L16.4429 9.21919C15.7797 8.29079 14.5994 7.88712 13.5066 8.21495L10.1929 9.20907C9.25327 9.49096 8.23473 9.23417 7.54103 8.54048L7.15069 8.15012C6.55573 7.55517 6.65381 6.56464 7.35389 6.09792L14.5553 1.29699C15.4339 0.711267 16.5753 0.699121 17.4662 1.26603L23.0065 4.79163C23.2203 4.92777 23.4687 5.00008 23.7222 5.00008ZM4.7031 16.0598L2.54875 17.9448C1.92021 18.4947 1.94626 19.4806 2.60301 19.9967L9.45735 25.3822C10.0974 25.8851 11.0349 25.702 11.4387 24.9952L12.3773 23.3528C12.9506 22.3495 12.8125 21.0911 12.0351 20.236L8.43229 16.2728C7.45487 15.1976 5.79662 15.103 4.7031 16.0598ZM7.39442 3.66683H2.00033C1.26395 3.66683 0.666992 4.26379 0.666992 5.00016V15.0212C0.666992 15.5658 0.833325 16.0899 1.13391 16.5287C1.16579 16.4986 1.19841 16.4688 1.23175 16.4396L3.3861 14.5546C5.29975 12.8802 8.2017 13.0459 9.91217 14.9275L13.5151 18.8907C14.8754 20.387 15.1171 22.5892 14.1138 24.3451L13.2414 25.8719C13.9919 26.1563 14.847 26.0922 15.559 25.665L21.4379 22.1376C22.1051 21.7372 22.2891 20.853 21.8371 20.2196L14.8149 10.3816C14.649 10.1496 14.3539 10.0486 14.0807 10.1306L10.7671 11.1247C9.12267 11.618 7.34022 11.1687 6.12627 9.95469L5.73591 9.56433C4.24853 8.07695 4.49373 5.60063 6.24394 4.43381L7.39442 3.66683Z" fill="#556200"/>
</svg>
