<svg width="17" height="22" viewBox="0 0 17 22" fill="none" xmlns="http://www.w3.org/2000/svg">
<path d="M13.5 14.2454V21.1169C13.5 21.393 13.2761 21.617 13 21.617C12.9094 21.617 12.8205 21.5923 12.7428 21.5457L8.5 19L4.25725 21.5457C4.02046 21.6877 3.71333 21.6109 3.57125 21.3742C3.52463 21.2964 3.5 21.2075 3.5 21.1169V14.2454C1.67107 12.7793 0.5 10.5264 0.5 8C0.5 3.58172 4.08172 0 8.5 0C12.9183 0 16.5 3.58172 16.5 8C16.5 10.5264 15.3289 12.7793 13.5 14.2454ZM8.5 14C11.8137 14 14.5 11.3137 14.5 8C14.5 4.68629 11.8137 2 8.5 2C5.18629 2 2.5 4.68629 2.5 8C2.5 11.3137 5.18629 14 8.5 14ZM8.5 12C6.29086 12 4.5 10.2091 4.5 8C4.5 5.79086 6.29086 4 8.5 4C10.7091 4 12.5 5.79086 12.5 8C12.5 10.2091 10.7091 12 8.5 12Z" fill="#4414FC"/>
</svg>
