<svg width="14" height="28" viewBox="0 0 14 28" fill="none" xmlns="http://www.w3.org/2000/svg">
<path d="M13.6663 0.666504V3.33317H12.333V21.9998C12.333 24.9453 9.94514 27.3332 6.99967 27.3332C4.05415 27.3332 1.66634 24.9453 1.66634 21.9998V3.33317H0.333008V0.666504H13.6663ZM8.33301 17.9998C7.59661 17.9998 6.99967 18.5968 6.99967 19.3332C6.99967 20.0696 7.59661 20.6665 8.33301 20.6665C9.06941 20.6665 9.66634 20.0696 9.66634 19.3332C9.66634 18.5968 9.06941 17.9998 8.33301 17.9998ZM5.66634 13.9998C4.92994 13.9998 4.33301 14.5968 4.33301 15.3332C4.33301 16.0696 4.92994 16.6665 5.66634 16.6665C6.40274 16.6665 6.99967 16.0696 6.99967 15.3332C6.99967 14.5968 6.40274 13.9998 5.66634 13.9998ZM9.66634 3.33317H4.33301V8.6665H9.66634V3.33317Z" fill="#0DA766"/>
</svg>
