<svg width="27" height="28" viewBox="0 0 27 28" fill="none" xmlns="http://www.w3.org/2000/svg">
<path d="M13.3774 27.029C6.01597 27.029 0.0483398 21.0613 0.0483398 13.6999C0.0483398 6.33845 6.01597 0.370819 13.3774 0.370819C20.7388 0.370819 26.7065 6.33845 26.7065 13.6999C26.7065 21.0613 20.7388 27.029 13.3774 27.029ZM13.3774 24.3632C19.2666 24.3632 24.0407 19.5891 24.0407 13.6999C24.0407 7.81074 19.2666 3.03664 13.3774 3.03664C7.48826 3.03664 2.71416 7.81074 2.71416 13.6999C2.71416 19.5891 7.48826 24.3632 13.3774 24.3632ZM14.7103 13.6999H20.042V16.3657H12.0445V7.03536H14.7103V13.6999Z" fill="#6B6B6B"/>
</svg>
