<svg width="26" height="24" viewBox="0 0 26 24" fill="none" xmlns="http://www.w3.org/2000/svg">
<path d="M25.615 2.21115C25.4952 2.11781 25.3557 2.05298 25.2072 2.02157C25.0586 1.99017 24.9048 1.99301 24.7575 2.0299L17.1162 3.9399L9.4475 0.104895C9.23383 -0.00168008 8.98908 -0.0282834 8.7575 0.0298955L0.7575 2.0299C0.541161 2.08397 0.349103 2.20881 0.211853 2.38456C0.0746019 2.56031 3.37634e-05 2.7769 0 2.9999V20.9999C2.30059e-05 21.1518 0.0346739 21.3018 0.101321 21.4384C0.167968 21.5749 0.264859 21.6945 0.384633 21.788C0.504408 21.8815 0.643916 21.9465 0.792562 21.978C0.941209 22.0095 1.09508 22.0067 1.2425 21.9699L8.88375 20.0599L16.5525 23.8949C16.6917 23.9635 16.8448 23.9994 17 23.9999C17.0818 23.9998 17.1632 23.9898 17.2425 23.9699L25.2425 21.9699C25.4588 21.9158 25.6509 21.791 25.7881 21.6152C25.9254 21.4395 26 21.2229 26 20.9999V2.9999C26 2.8478 25.9654 2.6977 25.8987 2.56102C25.8319 2.42434 25.7349 2.30468 25.615 2.21115ZM9 17.9999C8.91824 17.9999 8.8368 18.01 8.7575 18.0299L2 19.7186V3.78115L8.88375 2.0599L9 2.1174V17.9999ZM24 20.2186L17.1162 21.9399L17 21.8824V5.9999C17.0817 6.00025 17.1631 5.9906 17.2425 5.97114L24 4.28115V20.2186Z" fill="#004EB6"/>
</svg>
