<svg width="28" height="28" viewBox="0 0 28 28" fill="none" xmlns="http://www.w3.org/2000/svg">
<path d="M14.0003 0.666504C21.3641 0.666504 27.3337 6.63604 27.3337 13.9998C27.3337 21.3636 21.3641 27.3332 14.0003 27.3332C6.63653 27.3332 0.666992 21.3636 0.666992 13.9998C0.666992 6.63604 6.63653 0.666504 14.0003 0.666504ZM19.3394 15.1701C18.8789 14.4709 18.5466 13.966 17.2833 14.1662C14.8959 14.5452 14.6313 14.963 14.5173 15.6498L14.4851 15.8589L14.4527 16.0794C14.3225 16.9902 14.3274 17.3348 14.7455 17.7742C16.4325 19.5441 17.443 20.8198 17.7491 21.566C17.8986 21.931 18.2829 23.0333 18.0185 24.1234C19.6499 23.4753 21.0878 22.4441 22.2207 21.141C22.3677 20.6426 22.4738 20.022 22.4738 19.2689V19.1294C22.4738 17.8994 22.4738 17.3385 21.6045 16.8417C21.2377 16.6333 20.9639 16.5078 20.7446 16.4084C20.255 16.1857 19.9309 16.0394 19.4934 15.3997C19.4413 15.3236 19.3903 15.2476 19.3394 15.1701ZM14.0003 3.11094C10.9104 3.11094 8.12115 4.39794 6.13926 6.46512C6.37521 6.62898 6.58082 6.85921 6.72204 7.17658C6.99404 7.78689 6.99404 8.41477 6.99404 8.97002C6.9935 9.40812 6.99289 9.82277 7.13355 10.1239C7.32623 10.535 8.15552 10.7095 8.88763 10.863C9.1492 10.9181 9.41892 10.9743 9.66428 11.0422C10.3391 11.2296 10.861 11.8352 11.2795 12.3214C11.4531 12.524 11.7095 12.8216 11.8381 12.8954C11.9051 12.8473 12.1203 12.6142 12.2269 12.2312C12.3079 11.9394 12.2849 11.6794 12.1655 11.5389C11.4201 10.6591 11.4606 8.9641 11.691 8.33977C12.0539 7.35458 13.1877 7.42728 14.0163 7.48113C14.3254 7.50102 14.6171 7.52014 14.8346 7.49285C15.6646 7.38872 15.9198 6.12701 16.1003 5.87984C16.4898 5.34625 17.6813 4.54264 18.4214 4.04589C17.0703 3.44493 15.5743 3.11094 14.0003 3.11094Z" fill="#D66700"/>
</svg>
