<svg width="30" height="24" viewBox="0 0 30 24" fill="none" xmlns="http://www.w3.org/2000/svg">
<path d="M8.28514 0H21.7142C22.0455 2.296 24.0133 4 26.333 4C26.7759 4 27.2165 3.93695 27.6417 3.81275C27.3959 6.19181 25.3914 8 22.9997 8H6.99967C4.60797 8 2.60341 6.19181 2.3577 3.81276C2.78282 3.93695 3.22345 4 3.66634 4C5.98614 4 7.95374 2.296 8.28514 0ZM29.6378 10.8152C29.0559 11.1455 28.3831 11.334 27.6663 11.334C26.1858 11.334 24.8931 10.5296 24.2014 9.334H5.79787C5.10626 10.5296 3.81357 11.334 2.33301 11.334C1.61617 11.334 0.943381 11.1455 0.361514 10.8152C0.342674 10.9855 0.333008 11.1587 0.333008 11.334C0.333008 13.1956 1.42305 14.8025 2.99967 15.5516V24H10.9997V21.3333C10.9997 19.1241 12.7906 17.3333 14.9997 17.3333C17.2089 17.3333 18.9997 19.1241 18.9997 21.3333V24H26.9997V15.5516C28.5763 14.8025 29.6663 13.1956 29.6663 11.334C29.6663 11.1587 29.6566 10.9855 29.6378 10.8152Z" fill="#004EB6"/>
</svg>
