<svg width="24" height="24" viewBox="0 0 24 24" fill="none" xmlns="http://www.w3.org/2000/svg">
<path d="M22 0H2C1.46957 0 0.960859 0.210714 0.585786 0.585786C0.210714 0.960859 0 1.46957 0 2V22C0 22.5304 0.210714 23.0391 0.585786 23.4142C0.960859 23.7893 1.46957 24 2 24H22C22.5304 24 23.0391 23.7893 23.4142 23.4142C23.7893 23.0391 24 22.5304 24 22V2C24 1.46957 23.7893 0.960859 23.4142 0.585786C23.0391 0.210714 22.5304 0 22 0ZM14.2925 5.7075C14.1049 5.51986 13.9994 5.26536 13.9994 5C13.9994 4.73464 14.1049 4.48014 14.2925 4.2925C14.4801 4.10486 14.7346 3.99944 15 3.99944C15.2654 3.99944 15.5199 4.10486 15.7075 4.2925L17 5.58625L18.2925 4.2925C18.4801 4.10486 18.7346 3.99944 19 3.99944C19.2654 3.99944 19.5199 4.10486 19.7075 4.2925C19.8951 4.48014 20.0006 4.73464 20.0006 5C20.0006 5.26536 19.8951 5.51986 19.7075 5.7075L18.4137 7L19.7075 8.2925C19.8004 8.38541 19.8741 8.49571 19.9244 8.6171C19.9747 8.7385 20.0006 8.8686 20.0006 9C20.0006 9.1314 19.9747 9.2615 19.9244 9.3829C19.8741 9.50429 19.8004 9.61459 19.7075 9.7075C19.6146 9.80041 19.5043 9.87411 19.3829 9.92439C19.2615 9.97468 19.1314 10.0006 19 10.0006C18.8686 10.0006 18.7385 9.97468 18.6171 9.92439C18.4957 9.87411 18.3854 9.80041 18.2925 9.7075L17 8.41375L15.7075 9.7075C15.5199 9.89514 15.2654 10.0006 15 10.0006C14.7346 10.0006 14.4801 9.89514 14.2925 9.7075C14.1049 9.51986 13.9994 9.26536 13.9994 9C13.9994 8.73464 14.1049 8.48014 14.2925 8.2925L15.5863 7L14.2925 5.7075ZM10 18H8V20C8 20.2652 7.89464 20.5196 7.70711 20.7071C7.51957 20.8946 7.26522 21 7 21C6.73478 21 6.48043 20.8946 6.29289 20.7071C6.10536 20.5196 6 20.2652 6 20V18H4C3.73478 18 3.48043 17.8946 3.29289 17.7071C3.10536 17.5196 3 17.2652 3 17C3 16.7348 3.10536 16.4804 3.29289 16.2929C3.48043 16.1054 3.73478 16 4 16H6V14C6 13.7348 6.10536 13.4804 6.29289 13.2929C6.48043 13.1054 6.73478 13 7 13C7.26522 13 7.51957 13.1054 7.70711 13.2929C7.89464 13.4804 8 13.7348 8 14V16H10C10.2652 16 10.5196 16.1054 10.7071 16.2929C10.8946 16.4804 11 16.7348 11 17C11 17.2652 10.8946 17.5196 10.7071 17.7071C10.5196 17.8946 10.2652 18 10 18ZM10 8H4C3.73478 8 3.48043 7.89464 3.29289 7.70711C3.10536 7.51957 3 7.26522 3 7C3 6.73478 3.10536 6.48043 3.29289 6.29289C3.48043 6.10536 3.73478 6 4 6H10C10.2652 6 10.5196 6.10536 10.7071 6.29289C10.8946 6.48043 11 6.73478 11 7C11 7.26522 10.8946 7.51957 10.7071 7.70711C10.5196 7.89464 10.2652 8 10 8ZM20 20H14C13.7348 20 13.4804 19.8946 13.2929 19.7071C13.1054 19.5196 13 19.2652 13 19C13 18.7348 13.1054 18.4804 13.2929 18.2929C13.4804 18.1054 13.7348 18 14 18H20C20.2652 18 20.5196 18.1054 20.7071 18.2929C20.8946 18.4804 21 18.7348 21 19C21 19.2652 20.8946 19.5196 20.7071 19.7071C20.5196 19.8946 20.2652 20 20 20ZM20 16H14C13.7348 16 13.4804 15.8946 13.2929 15.7071C13.1054 15.5196 13 15.2652 13 15C13 14.7348 13.1054 14.4804 13.2929 14.2929C13.4804 14.1054 13.7348 14 14 14H20C20.2652 14 20.5196 14.1054 20.7071 14.2929C20.8946 14.4804 21 14.7348 21 15C21 15.2652 20.8946 15.5196 20.7071 15.7071C20.5196 15.8946 20.2652 16 20 16Z" fill="#4414FC"/>
</svg>
