<svg width="35" height="35" viewBox="0 0 35 35" fill="none" xmlns="http://www.w3.org/2000/svg">
<circle cx="17.5" cy="17.5" r="17.5" fill="#050516"/>
<path d="M16.9481 9.89998C17.1282 9.37432 17.8716 9.37431 18.0518 9.89998L19.0127 12.7046C19.1265 13.0367 19.5057 13.1938 19.821 13.0395L22.4837 11.7357C22.9827 11.4914 23.5084 12.0171 23.2641 12.5161L21.9604 15.1788C21.806 15.4941 21.9631 15.8734 22.2952 15.9871L25.0998 16.9481C25.6255 17.1282 25.6255 17.8716 25.0998 18.0517L22.2952 19.0126C21.9631 19.1264 21.806 19.5057 21.9604 19.821L23.2641 22.4836C23.5084 22.9827 22.9827 23.5084 22.4837 23.264L19.821 21.9603C19.5057 21.806 19.1265 21.963 19.0127 22.2952L18.0518 25.0998C17.8716 25.6255 17.1282 25.6255 16.9481 25.0998L15.9872 22.2952C15.8734 21.963 15.4941 21.806 15.1788 21.9603L12.5162 23.264C12.0171 23.5084 11.4914 22.9827 11.7358 22.4836L13.0395 19.821C13.1939 19.5057 13.0368 19.1264 12.7047 19.0126L9.90001 18.0517C9.37435 17.8716 9.37435 17.1282 9.90001 16.9481L12.7047 15.9871C13.0368 15.8734 13.1939 15.4941 13.0395 15.1788L11.7358 12.5161C11.4914 12.0171 12.0171 11.4914 12.5162 11.7357L15.1788 13.0395C15.4941 13.1938 15.8734 13.0367 15.9872 12.7046L16.9481 9.89998Z" fill="#DFF25D"/>
</svg>
