<svg width="695" height="432" viewBox="0 0 695 432" fill="none" xmlns="http://www.w3.org/2000/svg">
<path d="M-173.5 0H-248V71.8333M-173.5 0V71.8333M-173.5 0H-99M-173.5 71.8333H-248M-173.5 71.8333V143.667M-173.5 71.8333H-99M-248 71.8333V143.667M-173.5 143.667H-248M-173.5 143.667V215.5M-173.5 143.667H-99M-248 143.667V215.5M-173.5 215.5H-248M-173.5 215.5V287.333M-173.5 215.5H-99M-248 215.5V287.333M-173.5 287.333H-248M-173.5 287.333V359.167M-173.5 287.333H-99M-248 287.333V359.167M-173.5 359.167H-248M-173.5 359.167V431M-173.5 359.167H-99M-248 359.167V431H-173.5M-173.5 431H-99M-99 0V71.8333M-99 0H-24.5M-99 71.8333V143.667M-99 71.8333H-24.5M-99 143.667V215.5M-99 143.667H-24.5M-99 215.5V287.333M-99 215.5H-24.5M-99 287.333V359.167M-99 287.333H-24.5M-99 359.167V431M-99 359.167H-24.5M-99 431H-24.5M-24.5 0V71.8333M-24.5 0H50M-24.5 71.8333V143.667M-24.5 71.8333H50M-24.5 143.667V215.5M-24.5 143.667H50M-24.5 215.5V287.333M-24.5 215.5H50M-24.5 287.333V359.167M-24.5 287.333H50M-24.5 359.167V431M-24.5 359.167H50M-24.5 431H50M50 0V71.8333M50 0H124.5M50 71.8333V143.667M50 71.8333H124.5M50 143.667V215.5M50 143.667H124.5M50 215.5V287.333M50 215.5H124.5M50 287.333V359.167M50 287.333H124.5M50 359.167V431M50 359.167H124.5M50 431H124.5M124.5 0V71.8333M124.5 0H199M124.5 71.8333V143.667M124.5 71.8333H199M124.5 143.667V215.5M124.5 143.667H199M124.5 215.5V287.333M124.5 215.5H199M124.5 287.333V359.167M124.5 287.333H199M124.5 359.167V431M124.5 359.167H199M124.5 431H199M199 0V71.8333M199 0H273.5M199 71.8333V143.667M199 71.8333H273.5M199 143.667V215.5M199 143.667H273.5M199 215.5V287.333M199 215.5H273.5M199 287.333V359.167M199 287.333H273.5M199 359.167V431M199 359.167H273.5M199 431H273.5M273.5 0V71.8333M273.5 0H348M273.5 71.8333V143.667M273.5 71.8333H348M273.5 143.667V215.5M273.5 143.667H348M273.5 215.5V287.333M273.5 215.5H348M273.5 287.333V359.167M273.5 287.333H348M273.5 359.167V431M273.5 359.167H348M273.5 431H348M348 0V71.8333M348 0H422.5M348 71.8333V143.667M348 71.8333H422.5M348 143.667V215.5M348 143.667H422.5M348 215.5V287.333M348 215.5H422.5M348 287.333V359.167M348 287.333H422.5M348 359.167V431M348 359.167H422.5M348 431H422.5M422.5 0V71.8333M422.5 0H497M422.5 71.8333V143.667M422.5 71.8333H497M422.5 143.667V215.5M422.5 143.667H497M422.5 215.5V287.333M422.5 215.5H497M422.5 287.333V359.167M422.5 287.333H497M422.5 359.167V431M422.5 359.167H497M422.5 431H497M497 0V71.8333M497 0H571.5M497 71.8333V143.667M497 71.8333H571.5M497 143.667V215.5M497 143.667H571.5M497 215.5V287.333M497 215.5H571.5M497 287.333V359.167M497 287.333H571.5M497 359.167V431M497 359.167H571.5M497 431H571.5M571.5 0V71.8333M571.5 0H646M571.5 71.8333V143.667M571.5 71.8333H646M571.5 143.667V215.5M571.5 143.667H646M571.5 215.5V287.333M571.5 215.5H646M571.5 287.333V359.167M571.5 287.333H646M571.5 359.167V431M571.5 359.167H646M571.5 431H646M646 0V71.8333M646 0H720.5M646 71.8333V143.667M646 71.8333H720.5M646 143.667V215.5M646 143.667H720.5M646 215.5V287.333M646 215.5H720.5M646 287.333V359.167M646 287.333H720.5M646 359.167V431M646 359.167H720.5M646 431H720.5M720.5 0V71.8333M720.5 0H795M720.5 71.8333V143.667M720.5 71.8333H795M720.5 143.667V215.5M720.5 143.667H795M720.5 215.5V287.333M720.5 215.5H795M720.5 287.333V359.167M720.5 287.333H795M720.5 359.167V431M720.5 359.167H795M720.5 431H795M795 0V71.8333M795 0H869.5M795 71.8333V143.667M795 71.8333H869.5M795 143.667V215.5M795 143.667H869.5M795 215.5V287.333M795 215.5H869.5M795 287.333V359.167M795 287.333H869.5M795 359.167V431M795 359.167H869.5M795 431H869.5M869.5 0V71.8333M869.5 0H944V71.8333M869.5 71.8333V143.667M869.5 71.8333H944M869.5 143.667V215.5M869.5 143.667H944M869.5 215.5V287.333M869.5 215.5H944M869.5 287.333V359.167M869.5 287.333H944M869.5 359.167V431M869.5 359.167H944M869.5 431H944V359.167M944 71.8333V143.667M944 143.667V215.5M944 215.5V287.333M944 287.333V359.167" stroke="url(#paint0_linear_1155_11859)" stroke-opacity="0.5"/>
<defs>
<linearGradient id="paint0_linear_1155_11859" x1="348" y1="0" x2="348" y2="431" gradientUnits="userSpaceOnUse">
<stop stop-color="#E5E5E0"/>
<stop offset="1" stop-color="#CFD1D3" stop-opacity="0"/>
</linearGradient>
</defs>
</svg>
