<svg width="695" height="678" viewBox="0 0 695 678" fill="none" xmlns="http://www.w3.org/2000/svg">
<path d="M183.5 330L-123 498" stroke="url(#paint0_linear_1155_11860)"/>
<path d="M274 417L615.5 611.5" stroke="url(#paint1_linear_1155_11860)"/>
<path d="M98.5 376.5L519.5 624.5" stroke="url(#paint2_linear_1155_11860)"/>
<path d="M23.5 418.5L409.5 637" stroke="url(#paint3_linear_1155_11860)"/>
<path d="M-42 459L344 677.5" stroke="url(#paint4_linear_1155_11860)"/>
<path d="M407 350L748.5 544.5" stroke="url(#paint5_linear_1155_11860)"/>
<path d="M445 278L786.5 472.5" stroke="url(#paint6_linear_1155_11860)"/>
<path d="M477 243L818.5 437.5" stroke="url(#paint7_linear_1155_11860)"/>
<path d="M343.5 379L762.5 617.5" stroke="url(#paint8_linear_1155_11860)"/>
<path d="M298.5 413L156 490.5" stroke="url(#paint9_linear_1155_11860)"/>
<path d="M183.5 432L-123 600" stroke="url(#paint10_linear_1155_11860)"/>
<path d="M188.5 507.5L-72 650" stroke="url(#paint11_linear_1155_11860)"/>
<path d="M420.5 414L156 568.5" stroke="url(#paint12_linear_1155_11860)"/>
<path d="M722.5 379L458 533.5" stroke="url(#paint13_linear_1155_11860)"/>
<path d="M421.5 253L161 395.5" stroke="url(#paint14_linear_1155_11860)"/>
<path d="M465.5 281L205 423.5" stroke="url(#paint15_linear_1155_11860)"/>
<path d="M491.4 452.7L230.9 595.2" stroke="url(#paint16_linear_1155_11860)"/>
<path d="M606.5 317L421 427.5" stroke="url(#paint17_linear_1155_11860)"/>
<path d="M553.5 287L428.5 362.5" stroke="url(#paint18_linear_1155_11860)"/>
<path d="M663 350L538 425.5" stroke="url(#paint19_linear_1155_11860)"/>
<path d="M410.445 343.866L410.069 311.906C410.031 308.63 407.37 305.99 404.093 305.977L158.886 305.023C155.617 305.01 152.94 307.617 152.865 310.885L152.108 343.797C152.041 346.7 153.553 349.411 156.057 350.881L270.85 418.25C277.424 422.108 285.572 422.101 292.139 418.232L406.507 350.853C408.977 349.398 410.479 346.732 410.445 343.866Z" fill="#4E427B"/>
<path d="M155.881 305.897L269.087 240.846C276.467 236.605 285.541 236.59 292.935 240.807L407.036 305.887C411.034 308.168 411.082 313.915 407.122 316.261L291.234 384.935C284.927 388.673 277.081 388.66 270.786 384.902L155.795 316.251C151.858 313.9 151.905 308.181 155.881 305.897Z" fill="#AF9EEF"/>
<path d="M199.371 309.524L271.347 266.918C277.528 263.259 285.196 263.195 291.436 266.751L364.017 308.107C366.684 309.627 366.716 313.46 364.074 315.024L290.929 358.326C285.01 361.83 277.659 361.861 271.71 358.407L199.401 316.426C196.758 314.892 196.742 311.081 199.371 309.524Z" fill="url(#paint20_linear_1155_11860)"/>
<path d="M378 99L373 303.5L204.5 304.5L200 99H378Z" fill="url(#paint21_linear_1155_11860)"/>
<path d="M368.369 87.3669C370.228 95.6548 370.872 103.933 370.419 112.014C370.237 115.256 367.829 117.889 364.66 118.6L330.867 126.177C321.266 128.329 312.293 132.676 304.652 138.875L290.677 150.213L273.198 145.927C263.642 143.584 253.673 143.485 244.072 145.638L210.279 153.215C207.11 153.925 203.809 152.572 202.26 149.718C198.399 142.604 195.447 134.843 193.589 126.555C193.549 126.379 193.51 126.199 193.47 126.017C192.469 121.43 194.735 116.845 198.79 114.48C207.435 109.438 217.478 107.323 227.422 108.45L230.673 108.987L199.305 86.5253C196.469 84.7284 195.105 81.2801 196.19 78.1028C198.93 70.0822 202.792 62.5026 207.63 55.594C209.848 52.4275 214.175 51.7537 217.44 53.8226L249.319 70.3013L244.956 31.6268C244.165 28.1013 245.938 24.4698 249.319 23.1968C253.199 21.7361 257.228 20.5275 261.389 19.5945C265.55 18.6616 269.709 18.0345 273.841 17.6987C277.442 17.406 280.596 19.933 281.386 23.4585L291.743 61.2923L315.747 31.7814C317.816 28.5159 322.017 27.2779 325.375 29.1949C332.698 33.3757 339.425 38.5792 345.328 44.6606C347.667 47.0703 347.905 50.7716 346.108 53.608L323.276 89.6266L330.043 85.4406C338.555 80.1753 348.539 77.7999 358.51 78.6681C363.187 79.0754 367.194 82.2546 368.247 86.8301C368.289 87.0115 368.33 87.1906 368.369 87.3669Z" fill="#FE3601"/>
<path d="M264.799 117.141C267.967 118.738 272.56 118.912 276.312 117.614C280.077 116.313 283.431 113.393 284.711 110.257" fill="white"/>
<path d="M264.799 117.141C267.967 118.738 272.56 118.912 276.312 117.614C280.077 116.313 283.431 113.393 284.711 110.257" stroke="white" stroke-width="8.93098" stroke-linecap="round" stroke-linejoin="round"/>
<path d="M257.14 94.5352C255.064 95.0486 253.698 97.3239 254.28 99.7378C254.862 102.152 257.11 103.534 259.186 103.021C261.262 102.507 262.628 100.232 262.046 97.8179C261.464 95.4039 259.217 94.0218 257.14 94.5352Z" fill="white" stroke="white" stroke-width="2.20043"/>
<path d="M279.877 87.5172C277.8 88.0306 276.434 90.3059 277.016 92.7198C277.598 95.1337 279.846 96.5158 281.922 96.0026C283.999 95.4893 285.364 93.2139 284.783 90.7999C284.201 88.3859 281.953 87.0038 279.877 87.5172Z" fill="white" stroke="white" stroke-width="2.20043"/>
<path d="M253.026 467.813L252.825 450.705C252.804 448.951 251.38 447.538 249.625 447.531L118.362 447.02C116.612 447.013 115.179 448.409 115.139 450.158L114.734 467.777C114.698 469.331 115.507 470.782 116.847 471.569L178.298 507.632C181.817 509.698 186.179 509.694 189.694 507.623L250.917 471.553C252.24 470.774 253.044 469.348 253.026 467.813Z" fill="#BA2600"/>
<path d="M116.754 447.487L177.355 412.665C181.306 410.394 186.163 410.387 190.121 412.644L251.202 447.482C253.342 448.703 253.367 451.78 251.248 453.036L189.211 489.798C185.835 491.799 181.634 491.792 178.265 489.78L116.708 453.03C114.6 451.772 114.626 448.71 116.754 447.487Z" fill="#FF3400"/>
<path d="M140.034 449.429L178.563 426.621C181.872 424.663 185.977 424.629 189.318 426.532L228.171 448.671C229.599 449.484 229.616 451.536 228.202 452.374L189.046 475.554C185.877 477.429 181.942 477.446 178.758 475.597L140.049 453.124C138.635 452.303 138.626 450.263 140.034 449.429Z" fill="url(#paint22_linear_1155_11860)"/>
<path d="M548.858 416.743L548.657 399.655C548.636 397.903 547.214 396.492 545.462 396.485L414.354 395.975C412.606 395.968 411.174 397.362 411.134 399.109L410.73 416.707C410.694 418.259 411.502 419.708 412.841 420.494L474.219 456.515C477.734 458.578 482.09 458.574 485.602 456.505L546.752 420.479C548.073 419.701 548.876 418.276 548.858 416.743Z" fill="#004EB6"/>
<path d="M412.749 396.442L473.278 361.66C477.224 359.393 482.075 359.385 486.029 361.64L547.037 396.437C549.174 397.656 549.2 400.729 547.083 401.983L485.119 438.702C481.747 440.701 477.552 440.694 474.186 438.685L412.702 401.978C410.597 400.721 410.623 397.663 412.749 396.442Z" fill="#2583FF"/>
<path d="M436.003 398.382L474.487 375.6C477.791 373.644 481.891 373.61 485.228 375.511L524.035 397.624C525.462 398.436 525.479 400.486 524.066 401.322L484.957 424.475C481.792 426.348 477.861 426.365 474.681 424.518L436.018 402.072C434.605 401.251 434.597 399.214 436.003 398.382Z" fill="url(#paint23_linear_1155_11860)"/>
<path d="M504.835 257.288L504.697 245.568C504.683 244.367 503.708 243.399 502.506 243.394L412.588 243.044C411.389 243.04 410.407 243.995 410.38 245.194L410.102 257.263C410.078 258.327 410.632 259.322 411.55 259.86L453.645 284.565C456.056 285.98 459.044 285.977 461.452 284.558L503.391 259.85C504.297 259.316 504.848 258.339 504.835 257.288Z" fill="#4E427B"/>
<path d="M411.487 243.365L453 219.51C455.706 217.955 459.034 217.95 461.745 219.496L503.587 243.361C505.053 244.197 505.07 246.305 503.618 247.165L461.122 272.348C458.809 273.719 455.931 273.714 453.623 272.336L411.456 247.162C410.012 246.3 410.029 244.202 411.487 243.365Z" fill="#AF9EEF"/>
<path d="M427.434 244.695L453.828 229.071C456.094 227.73 458.906 227.706 461.195 229.01L487.81 244.176C488.788 244.733 488.8 246.139 487.831 246.712L461.009 262.591C458.838 263.876 456.143 263.887 453.961 262.621L427.445 247.226C426.476 246.664 426.47 245.266 427.434 244.695Z" fill="url(#paint24_linear_1155_11860)"/>
<path d="M263.875 285.702C263.682 284.574 264.996 283.815 265.877 284.546C271.411 289.14 278.676 291.086 285.766 289.875C286.893 289.683 287.652 290.997 286.921 291.877C282.327 297.411 280.381 304.676 281.592 311.766C281.785 312.893 280.471 313.652 279.59 312.921C274.056 308.328 266.791 306.381 259.701 307.592C258.574 307.785 257.815 306.471 258.546 305.591C263.14 300.056 265.086 292.791 263.875 285.702Z" fill="white"/>
<path d="M336.122 174.803C336.885 174.452 337.673 175.239 337.322 176.003C335.116 180.801 335.116 186.324 337.322 191.122C337.673 191.885 336.885 192.673 336.122 192.322C331.324 190.115 325.801 190.115 321.003 192.322C320.24 192.673 319.452 191.885 319.803 191.122C322.009 186.324 322.009 180.801 319.803 176.003C319.452 175.239 320.24 174.452 321.003 174.803C325.801 177.009 331.324 177.009 336.122 174.803Z" fill="white"/>
<path d="M248.181 198.453C248.352 197.631 249.453 197.465 249.859 198.201C252.409 202.826 256.852 206.106 262.022 207.18C262.845 207.351 263.011 208.453 262.275 208.859C257.65 211.408 254.37 215.852 253.295 221.022C253.124 221.845 252.023 222.01 251.617 221.275C249.067 216.65 244.624 213.37 239.454 212.295C238.631 212.124 238.465 211.022 239.201 210.617C243.826 208.067 247.106 203.624 248.181 198.453Z" fill="white"/>
<defs>
<linearGradient id="paint0_linear_1155_11860" x1="153" y1="345" x2="-116.5" y2="493" gradientUnits="userSpaceOnUse">
<stop stop-color="#CFCFC7"/>
<stop offset="1" stop-color="#E5E5E0" stop-opacity="0"/>
</linearGradient>
<linearGradient id="paint1_linear_1155_11860" x1="256.322" y1="409.863" x2="592.5" y2="602" gradientUnits="userSpaceOnUse">
<stop stop-color="#CFCFC7"/>
<stop offset="1" stop-color="#E5E5E0" stop-opacity="0"/>
</linearGradient>
<linearGradient id="paint2_linear_1155_11860" x1="94" y1="371.5" x2="568.5" y2="654" gradientUnits="userSpaceOnUse">
<stop stop-color="#EFEFE9"/>
<stop offset="1" stop-color="#E5E5E0" stop-opacity="0"/>
</linearGradient>
<linearGradient id="paint3_linear_1155_11860" x1="28" y1="422.5" x2="503.5" y2="692" gradientUnits="userSpaceOnUse">
<stop stop-color="#E5E5DF"/>
<stop offset="1" stop-color="#E5E5E0" stop-opacity="0"/>
</linearGradient>
<linearGradient id="paint4_linear_1155_11860" x1="-37.5" y1="463" x2="438" y2="732.5" gradientUnits="userSpaceOnUse">
<stop stop-color="#E5E5DF"/>
<stop offset="1" stop-color="#E5E5E0" stop-opacity="0"/>
</linearGradient>
<linearGradient id="paint5_linear_1155_11860" x1="389.322" y1="342.863" x2="725.5" y2="535" gradientUnits="userSpaceOnUse">
<stop stop-color="#CFCFC7"/>
<stop offset="1" stop-color="#E5E5E0" stop-opacity="0"/>
</linearGradient>
<linearGradient id="paint6_linear_1155_11860" x1="427.322" y1="270.863" x2="763.5" y2="463" gradientUnits="userSpaceOnUse">
<stop stop-color="#CFCFC7"/>
<stop offset="1" stop-color="#E5E5E0" stop-opacity="0"/>
</linearGradient>
<linearGradient id="paint7_linear_1155_11860" x1="459.322" y1="235.863" x2="795.5" y2="428" gradientUnits="userSpaceOnUse">
<stop stop-color="#CFCFC7"/>
<stop offset="1" stop-color="#E5E5E0" stop-opacity="0"/>
</linearGradient>
<linearGradient id="paint8_linear_1155_11860" x1="403.322" y1="415.863" x2="739.5" y2="608" gradientUnits="userSpaceOnUse">
<stop stop-color="#CFCFC7"/>
<stop offset="1" stop-color="#E5E5E0" stop-opacity="0"/>
</linearGradient>
<linearGradient id="paint9_linear_1155_11860" x1="268" y1="428" x2="-1.49996" y2="576" gradientUnits="userSpaceOnUse">
<stop stop-color="#CFCFC7"/>
<stop offset="1" stop-color="#E5E5E0" stop-opacity="0"/>
</linearGradient>
<linearGradient id="paint10_linear_1155_11860" x1="153" y1="447" x2="-116.5" y2="595" gradientUnits="userSpaceOnUse">
<stop stop-color="#CFCFC7"/>
<stop offset="1" stop-color="#E5E5E0" stop-opacity="0"/>
</linearGradient>
<linearGradient id="paint11_linear_1155_11860" x1="204" y1="497" x2="-65.5" y2="645" gradientUnits="userSpaceOnUse">
<stop stop-color="#CFCFC7"/>
<stop offset="1" stop-color="#E5E5E0" stop-opacity="0"/>
</linearGradient>
<linearGradient id="paint12_linear_1155_11860" x1="436" y1="403.5" x2="166.5" y2="551.5" gradientUnits="userSpaceOnUse">
<stop stop-color="#CFCFC7"/>
<stop offset="1" stop-color="#E5E5E0" stop-opacity="0"/>
</linearGradient>
<linearGradient id="paint13_linear_1155_11860" x1="738" y1="368.5" x2="468.5" y2="516.5" gradientUnits="userSpaceOnUse">
<stop stop-color="#CFCFC7"/>
<stop offset="1" stop-color="#E5E5E0" stop-opacity="0"/>
</linearGradient>
<linearGradient id="paint14_linear_1155_11860" x1="437" y1="242.5" x2="167.5" y2="390.5" gradientUnits="userSpaceOnUse">
<stop stop-color="#CFCFC7"/>
<stop offset="1" stop-color="#E5E5E0" stop-opacity="0"/>
</linearGradient>
<linearGradient id="paint15_linear_1155_11860" x1="481" y1="270.5" x2="211.5" y2="418.5" gradientUnits="userSpaceOnUse">
<stop stop-color="#CFCFC7"/>
<stop offset="1" stop-color="#E5E5E0" stop-opacity="0"/>
</linearGradient>
<linearGradient id="paint16_linear_1155_11860" x1="506.9" y1="442.2" x2="237.4" y2="590.2" gradientUnits="userSpaceOnUse">
<stop stop-color="#CFCFC7"/>
<stop offset="1" stop-color="#E5E5E0" stop-opacity="0"/>
</linearGradient>
<linearGradient id="paint17_linear_1155_11860" x1="631" y1="309.5" x2="361.5" y2="457.5" gradientUnits="userSpaceOnUse">
<stop stop-color="#CFCFC7"/>
<stop offset="1" stop-color="#E5E5E0" stop-opacity="0"/>
</linearGradient>
<linearGradient id="paint18_linear_1155_11860" x1="578" y1="279.5" x2="308.5" y2="427.5" gradientUnits="userSpaceOnUse">
<stop stop-color="#CFCFC7"/>
<stop offset="1" stop-color="#E5E5E0" stop-opacity="0"/>
</linearGradient>
<linearGradient id="paint19_linear_1155_11860" x1="687.5" y1="342.5" x2="418" y2="490.5" gradientUnits="userSpaceOnUse">
<stop stop-color="#CFCFC7"/>
<stop offset="1" stop-color="#E5E5E0" stop-opacity="0"/>
</linearGradient>
<linearGradient id="paint20_linear_1155_11860" x1="281.75" y1="261" x2="281.75" y2="364" gradientUnits="userSpaceOnUse">
<stop stop-color="white"/>
<stop offset="1" stop-color="#DFF25D"/>
</linearGradient>
<linearGradient id="paint21_linear_1155_11860" x1="288.75" y1="74" x2="288.75" y2="304.5" gradientUnits="userSpaceOnUse">
<stop stop-color="#E3F370" stop-opacity="0"/>
<stop offset="0.292425" stop-color="#E3F370" stop-opacity="0.3"/>
<stop offset="0.634103" stop-color="#E3F370" stop-opacity="0.7"/>
<stop offset="1" stop-color="#E3F370" stop-opacity="0"/>
</linearGradient>
<linearGradient id="paint22_linear_1155_11860" x1="184.132" y1="423.454" x2="184.132" y2="478.591" gradientUnits="userSpaceOnUse">
<stop stop-color="white"/>
<stop offset="1" stop-color="#DFF25D"/>
</linearGradient>
<linearGradient id="paint23_linear_1155_11860" x1="480.049" y1="372.437" x2="480.049" y2="427.509" gradientUnits="userSpaceOnUse">
<stop stop-color="white"/>
<stop offset="1" stop-color="#DFF25D"/>
</linearGradient>
<linearGradient id="paint24_linear_1155_11860" x1="457.643" y1="226.901" x2="457.643" y2="264.672" gradientUnits="userSpaceOnUse">
<stop stop-color="white"/>
<stop offset="1" stop-color="#DFF25D"/>
</linearGradient>
</defs>
</svg>
