<svg width="23" height="25" viewBox="0 0 23 25" fill="none" xmlns="http://www.w3.org/2000/svg">
<path d="M0.625 20.3542V4.04166C0.625 2.03964 2.24797 0.416664 4.25 0.416664H21.1667C21.834 0.416664 22.375 0.957659 22.375 1.625V23.375C22.375 24.0424 21.834 24.5833 21.1667 24.5833H4.85417C2.51846 24.5833 0.625 22.6899 0.625 20.3542ZM19.9583 22.1667V18.5417H4.85417C3.85315 18.5417 3.04167 19.3532 3.04167 20.3542C3.04167 21.3551 3.85315 22.1667 4.85417 22.1667H19.9583ZM9.08333 2.83333H4.25C3.58266 2.83333 3.04167 3.37433 3.04167 4.04166V16.532C3.59101 16.271 4.20553 16.125 4.85417 16.125H19.9583V2.83333H17.5417V12.5L13.3125 10.0833L9.08333 12.5V2.83333Z" fill="#151515"/>
</svg>
