<svg width="29" height="29" viewBox="0 0 29 29" fill="none" xmlns="http://www.w3.org/2000/svg">
<path d="M4.83333 13.6944L0 10.875L14.5 2.41667L29 10.875V21.1458H26.5833V12.2848L24.1667 13.6944V21.7637L23.8977 22.0961C21.6844 24.8311 18.2963 26.5833 14.5 26.5833C10.7036 26.5833 7.3156 24.8311 5.10234 22.0961L4.83333 21.7637V13.6944ZM7.25 15.1042V20.8941C9.02288 22.9028 11.6134 24.1667 14.5 24.1667C17.3866 24.1667 19.9771 22.9028 21.75 20.8941V15.1042L14.5 19.3333L7.25 15.1042ZM4.7962 10.875L14.5 16.5356L24.2038 10.875L14.5 5.21445L4.7962 10.875Z" fill="#151515"/>
</svg>
