<svg width="37" height="12" viewBox="0 0 37 12" fill="none" xmlns="http://www.w3.org/2000/svg">
<path fill-rule="evenodd" clip-rule="evenodd" d="M0.345447 0C0.128532 0.361853 0.00272999 0.78729 0.00033025 1.24282C0.000110083 1.28461 0 1.32583 0 1.36637C0 3.26991 0.244241 5.11176 0.700857 6.85672C0.88407 7.55687 1.48834 8.01458 2.15918 8.01458H9.313C11.3455 8.01458 13.3504 8.52506 15.1707 9.50605L18.5 11.3003L21.8293 9.50605C23.6496 8.52506 25.6545 8.01458 27.687 8.01458H34.8408C35.5117 8.01458 36.1159 7.55687 36.2991 6.85672C36.7558 5.11176 37 3.26991 37 1.36637C37 1.32589 36.9999 1.28473 36.9997 1.243C36.9973 0.787402 36.8714 0.361901 36.6545 0H0.345447Z" fill="#C52800"/>
</svg>
