<svg width="21" height="27" viewBox="0 0 21 27" fill="none" xmlns="http://www.w3.org/2000/svg">
<path d="M16.5418 17.4215V25.7246C16.5418 26.0582 16.2713 26.3289 15.9377 26.3289C15.8282 26.3289 15.7208 26.299 15.6269 26.2427L10.5002 23.1667L5.37351 26.2427C5.08739 26.4143 4.71627 26.3215 4.54459 26.0355C4.48826 25.9415 4.4585 25.8341 4.4585 25.7246V17.4215C2.24854 15.65 0.833496 12.9277 0.833496 9.875C0.833496 4.53625 5.16141 0.208334 10.5002 0.208334C15.8389 0.208334 20.1668 4.53625 20.1668 9.875C20.1668 12.9277 18.7518 15.65 16.5418 17.4215ZM6.87516 18.839V22.5234L10.5002 20.3484L14.1252 22.5234V18.839C13.0058 19.2921 11.7821 19.5417 10.5002 19.5417C9.21824 19.5417 7.9946 19.2921 6.87516 18.839ZM10.5002 17.125C14.5042 17.125 17.7502 13.8791 17.7502 9.875C17.7502 5.87093 14.5042 2.625 10.5002 2.625C6.4961 2.625 3.25016 5.87093 3.25016 9.875C3.25016 13.8791 6.4961 17.125 10.5002 17.125Z" fill="#151515"/>
</svg>
