<svg width="25" height="25" viewBox="0 0 25 25" fill="none" xmlns="http://www.w3.org/2000/svg">
<path d="M13.1209 2.83332C12.8537 3.58921 12.7083 4.40262 12.7083 5.24999H3.04167V22.1667H19.9583V12.5C20.8057 12.5 21.6191 12.3546 22.375 12.0875V23.375C22.375 24.0424 21.834 24.5833 21.1667 24.5833H1.83333C1.16599 24.5833 0.625 24.0424 0.625 23.375V4.04166C0.625 3.37432 1.16599 2.83332 1.83333 2.83332H13.1209ZM19.9583 7.66666C21.2931 7.66666 22.375 6.58468 22.375 5.24999C22.375 3.9153 21.2931 2.83332 19.9583 2.83332C18.6236 2.83332 17.5417 3.9153 17.5417 5.24999C17.5417 6.58468 18.6236 7.66666 19.9583 7.66666ZM19.9583 10.0833C17.289 10.0833 15.125 7.91937 15.125 5.24999C15.125 2.58061 17.289 0.416656 19.9583 0.416656C22.6277 0.416656 24.7917 2.58061 24.7917 5.24999C24.7917 7.91937 22.6277 10.0833 19.9583 10.0833Z" fill="#151515"/>
</svg>
