<svg width="28" height="26" viewBox="0 0 28 26" fill="none" xmlns="http://www.w3.org/2000/svg">
<path d="M0.666504 12.9997C0.666504 11.8471 0.81277 10.7285 1.08777 9.66175C2.54146 9.7371 3.98448 9.01353 4.76224 7.66642C5.5394 6.32033 5.44525 4.71028 4.65478 3.48934C6.24456 1.92705 8.22426 0.760291 10.4345 0.148438C11.0961 1.44513 12.4442 2.33309 13.9998 2.33309C15.5554 2.33309 16.9036 1.44513 17.5652 0.148438C19.7754 0.760291 21.7552 1.92705 23.3449 3.48934C22.5544 4.71028 22.4602 6.32033 23.2374 7.66642C24.0152 9.01353 25.4582 9.7371 26.912 9.66175C27.1869 10.7285 27.3332 11.8471 27.3332 12.9997C27.3332 14.1524 27.1869 15.2709 26.912 16.3377C25.4582 16.2624 24.0152 16.986 23.2374 18.3331C22.4602 19.6792 22.5544 21.2892 23.3449 22.5101C21.7552 24.0724 19.7754 25.2392 17.5652 25.8511C16.9036 24.5544 15.5554 23.6664 13.9998 23.6664C12.4442 23.6664 11.0961 24.5544 10.4345 25.8511C8.22426 25.2392 6.24456 24.0724 4.65478 22.5101C5.44525 21.2892 5.5394 19.6792 4.76224 18.3331C3.98448 16.986 2.54146 16.2624 1.08777 16.3377C0.81277 15.2709 0.666504 14.1524 0.666504 12.9997ZM7.07164 16.9997C7.91177 18.4549 8.15261 20.1279 7.82408 21.6981C8.3678 22.0851 8.94657 22.4203 9.55302 22.6988C10.7489 21.6283 12.3188 20.9997 13.9998 20.9997C15.6809 20.9997 17.2508 21.6283 18.4466 22.6988C19.053 22.4203 19.6318 22.0851 20.1756 21.6981C19.847 20.1279 20.0878 18.4549 20.9281 16.9997C21.7681 15.5447 23.0965 14.4997 24.6205 13.9991C24.651 13.6687 24.6665 13.3355 24.6665 12.9997C24.6665 12.6641 24.651 12.3308 24.6205 12.0005C23.0965 11.4999 21.7681 10.4549 20.9281 8.99976C20.0878 7.5446 19.847 5.8717 20.1756 4.3014C19.6318 3.9145 19.053 3.57929 18.4466 3.30069C17.2508 4.37125 15.6809 4.99976 13.9998 4.99976C12.3188 4.99976 10.7489 4.37125 9.55302 3.30069C8.94657 3.57929 8.3678 3.9145 7.82408 4.3014C8.15261 5.8717 7.91177 7.5446 7.07164 8.99976C6.23152 10.4549 4.90322 11.4999 3.37918 12.0005C3.3486 12.3308 3.33317 12.6641 3.33317 12.9997C3.33317 13.3355 3.3486 13.6687 3.37918 13.9991C4.90322 14.4997 6.23152 15.5447 7.07164 16.9997ZM13.9998 16.9997C11.7906 16.9997 9.99984 15.2089 9.99984 12.9997C9.99984 10.7907 11.7906 8.99976 13.9998 8.99976C16.209 8.99976 17.9998 10.7907 17.9998 12.9997C17.9998 15.2089 16.209 16.9997 13.9998 16.9997ZM13.9998 14.3331C14.7362 14.3331 15.3332 13.7361 15.3332 12.9997C15.3332 12.2633 14.7362 11.6664 13.9998 11.6664C13.2634 11.6664 12.6665 12.2633 12.6665 12.9997C12.6665 13.7361 13.2634 14.3331 13.9998 14.3331Z" fill="#151515"/>
</svg>
