<svg width="1191" height="263" viewBox="0 0 1191 263" fill="none" xmlns="http://www.w3.org/2000/svg">
<g clip-path="url(#clip0_0_1)">
<rect x="0.5" y="19.5" width="1190" height="243" stroke="#E4E4D9"/>
<path d="M664.687 251L709 251L709 212.333M664.687 251L664.688 212.333M664.687 251L620.375 251M664.688 212.333L709 212.333M664.688 212.333L664.688 173.667M664.688 212.333L620.375 212.333M709 212.333L709 173.667M664.688 173.667L709 173.667M664.688 173.667L664.688 135M664.688 173.667L620.375 173.667M709 173.667L709 135M664.688 135L709 135M664.688 135L664.688 96.3334M664.688 135L620.375 135M709 135L709 96.3334M664.688 96.3334L709 96.3334M664.688 96.3334L664.688 57.6667M664.688 96.3334L620.375 96.3334M709 96.3334L709 57.6667M664.688 57.6667L709 57.6667M664.688 57.6667L664.688 19.0001M664.688 57.6667L620.375 57.6667M709 57.6667L709 19.0001L664.688 19.0001M664.688 19.0001L620.375 19M620.375 251L620.375 212.333M620.375 251L576.062 251M620.375 212.333L620.375 173.667M620.375 212.333L576.062 212.333M620.375 173.667L620.375 135M620.375 173.667L576.063 173.667M620.375 135L620.375 96.3334M620.375 135L576.063 135M620.375 96.3334L620.375 57.6667M620.375 96.3334L576.063 96.3334M620.375 57.6667L620.375 19M620.375 57.6667L576.063 57.6667M620.375 19L576.063 19M576.062 251L576.062 212.333M576.062 251L531.75 251M576.062 212.333L576.063 173.667M576.062 212.333L531.75 212.333M576.063 173.667L576.063 135M576.063 173.667L531.75 173.667M576.063 135L576.063 96.3334M576.063 135L531.75 135M576.063 96.3334L576.063 57.6667M576.063 96.3334L531.75 96.3334M576.063 57.6667L576.063 19M576.063 57.6667L531.75 57.6667M576.063 19L531.75 19M531.75 251L531.75 212.333M531.75 251L487.437 251M531.75 212.333L531.75 173.667M531.75 212.333L487.437 212.333M531.75 173.667L531.75 135M531.75 173.667L487.437 173.667M531.75 135L531.75 96.3334M531.75 135L487.438 135M531.75 96.3334L531.75 57.6667M531.75 96.3334L487.438 96.3333M531.75 57.6667L531.75 19M531.75 57.6667L487.438 57.6667M531.75 19L487.438 19M487.437 251L487.437 212.333M487.437 251L443.125 251M487.437 212.333L487.437 173.667M487.437 212.333L443.125 212.333M487.437 173.667L487.438 135M487.437 173.667L443.125 173.667M487.438 135L487.438 96.3333M487.438 135L443.125 135M487.438 96.3333L487.438 57.6667M487.438 96.3333L443.125 96.3333M487.438 57.6667L487.438 19M487.438 57.6667L443.125 57.6667M487.438 19L443.125 19M443.125 251L443.125 212.333M443.125 251L398.812 251M443.125 212.333L443.125 173.667M443.125 212.333L398.812 212.333M443.125 173.667L443.125 135M443.125 173.667L398.812 173.667M443.125 135L443.125 96.3333M443.125 135L398.812 135M443.125 96.3333L443.125 57.6667M443.125 96.3333L398.812 96.3333M443.125 57.6667L443.125 19M443.125 57.6667L398.813 57.6667M443.125 19L398.813 19M398.812 251L398.812 212.333M398.812 251L354.5 251M398.812 212.333L398.812 173.667M398.812 212.333L354.5 212.333M398.812 173.667L398.812 135M398.812 173.667L354.5 173.667M398.812 135L398.812 96.3333M398.812 135L354.5 135M398.812 96.3333L398.813 57.6667M398.812 96.3333L354.5 96.3333M398.813 57.6667L398.813 19M398.813 57.6667L354.5 57.6667M398.813 19L354.5 19M354.5 251L354.5 212.333M354.5 251L310.187 251M354.5 212.333L354.5 173.667M354.5 212.333L310.187 212.333M354.5 173.667L354.5 135M354.5 173.667L310.187 173.667M354.5 135L354.5 96.3333M354.5 135L310.187 135M354.5 96.3333L354.5 57.6667M354.5 96.3333L310.187 96.3333M354.5 57.6667L354.5 19M354.5 57.6667L310.187 57.6667M354.5 19L310.188 19M310.187 251L310.187 212.333M310.187 251L265.875 251M310.187 212.333L310.187 173.667M310.187 212.333L265.875 212.333M310.187 173.667L310.187 135M310.187 173.667L265.875 173.667M310.187 135L310.187 96.3333M310.187 135L265.875 135M310.187 96.3333L310.187 57.6667M310.187 96.3333L265.875 96.3333M310.187 57.6667L310.188 19M310.187 57.6667L265.875 57.6667M310.188 19L265.875 19M265.875 251L265.875 212.333M265.875 251L221.562 251M265.875 212.333L265.875 173.667M265.875 212.333L221.562 212.333M265.875 173.667L265.875 135M265.875 173.667L221.562 173.667M265.875 135L265.875 96.3333M265.875 135L221.562 135M265.875 96.3333L265.875 57.6667M265.875 96.3333L221.562 96.3333M265.875 57.6667L265.875 19M265.875 57.6667L221.562 57.6667M265.875 19L221.562 19M221.562 251L221.562 212.333M221.562 251L177.25 251M221.562 212.333L221.562 173.667M221.562 212.333L177.25 212.333M221.562 173.667L221.562 135M221.562 173.667L177.25 173.667M221.562 135L221.562 96.3333M221.562 135L177.25 135M221.562 96.3333L221.562 57.6667M221.562 96.3333L177.25 96.3333M221.562 57.6667L221.562 19M221.562 57.6667L177.25 57.6667M221.562 19L177.25 19M177.25 251L177.25 212.333M177.25 251L132.937 251M177.25 212.333L177.25 173.667M177.25 212.333L132.937 212.333M177.25 173.667L177.25 135M177.25 173.667L132.937 173.667M177.25 135L177.25 96.3333M177.25 135L132.937 135M177.25 96.3333L177.25 57.6667M177.25 96.3333L132.937 96.3333M177.25 57.6667L177.25 19M177.25 57.6667L132.937 57.6667M177.25 19L132.937 19M132.937 251L132.937 212.333M132.937 251L88.625 251M132.937 212.333L132.937 173.667M132.937 212.333L88.625 212.333M132.937 173.667L132.937 135M132.937 173.667L88.625 173.667M132.937 135L132.937 96.3333M132.937 135L88.625 135M132.937 96.3333L132.937 57.6667M132.937 96.3333L88.625 96.3333M132.937 57.6667L132.937 19M132.937 57.6667L88.625 57.6667M132.937 19L88.625 19M88.625 251L88.625 212.333M88.625 251L44.3125 251M88.625 212.333L88.625 173.667M88.625 212.333L44.3125 212.333M88.625 173.667L88.625 135M88.625 173.667L44.3125 173.667M88.625 135L88.625 96.3333M88.625 135L44.3125 135M88.625 96.3333L88.625 57.6667M88.625 96.3333L44.3125 96.3333M88.625 57.6667L88.625 19M88.625 57.6667L44.3125 57.6667M88.625 19L44.3125 19M44.3125 251L44.3125 212.333M44.3125 251L-3.14713e-05 251L-2.80909e-05 212.333M44.3125 212.333L44.3125 173.667M44.3125 212.333L-2.80909e-05 212.333M44.3125 173.667L44.3125 135M44.3125 173.667L-2.47106e-05 173.667M44.3125 135L44.3125 96.3333M44.3125 135L-2.13302e-05 135M44.3125 96.3333L44.3125 57.6667M44.3125 96.3333L-1.79499e-05 96.3333M44.3125 57.6667L44.3125 19M44.3125 57.6667L-1.45695e-05 57.6667M44.3125 19L-1.11892e-05 19L-1.45695e-05 57.6667M-2.80909e-05 212.333L-2.47106e-05 173.667M-2.47106e-05 173.667L-2.13302e-05 135M-2.13302e-05 135L-1.79499e-05 96.3333M-1.79499e-05 96.3333L-1.45695e-05 57.6667" stroke="url(#paint0_linear_0_1)" stroke-opacity="0.7"/>
<path d="M526.313 251L482 251L482 212.333M526.313 251L526.313 212.333M526.313 251L570.625 251M526.313 212.333L482 212.333M526.313 212.333L526.313 173.667M526.313 212.333L570.625 212.333M482 212.333L482 173.667M526.313 173.667L482 173.667M526.313 173.667L526.313 135M526.313 173.667L570.625 173.667M482 173.667L482 135M526.313 135L482 135M526.313 135L526.313 96.3334M526.313 135L570.625 135M482 135L482 96.3334M526.313 96.3334L482 96.3334M526.313 96.3334L526.313 57.6667M526.313 96.3334L570.625 96.3334M482 96.3334L482 57.6667M526.313 57.6667L482 57.6667M526.313 57.6667L526.313 19.0001M526.313 57.6667L570.625 57.6667M482 57.6667L482 19.0001L526.313 19.0001M526.313 19.0001L570.625 19M570.625 251L570.625 212.333M570.625 251L614.938 251M570.625 212.333L570.625 173.667M570.625 212.333L614.938 212.333M570.625 173.667L570.625 135M570.625 173.667L614.938 173.667M570.625 135L570.625 96.3334M570.625 135L614.938 135M570.625 96.3334L570.625 57.6667M570.625 96.3334L614.938 96.3334M570.625 57.6667L570.625 19M570.625 57.6667L614.938 57.6667M570.625 19L614.938 19M614.938 251L614.938 212.333M614.938 251L659.25 251M614.938 212.333L614.938 173.667M614.938 212.333L659.25 212.333M614.938 173.667L614.938 135M614.938 173.667L659.25 173.667M614.938 135L614.938 96.3334M614.938 135L659.25 135M614.938 96.3334L614.938 57.6667M614.938 96.3334L659.25 96.3334M614.938 57.6667L614.938 19M614.938 57.6667L659.25 57.6667M614.938 19L659.25 19M659.25 251L659.25 212.333M659.25 251L703.563 251M659.25 212.333L659.25 173.667M659.25 212.333L703.563 212.333M659.25 173.667L659.25 135M659.25 173.667L703.563 173.667M659.25 135L659.25 96.3334M659.25 135L703.563 135M659.25 96.3334L659.25 57.6667M659.25 96.3334L703.563 96.3333M659.25 57.6667L659.25 19M659.25 57.6667L703.563 57.6667M659.25 19L703.563 19M703.563 251L703.563 212.333M703.563 251L747.875 251M703.563 212.333L703.563 173.667M703.563 212.333L747.875 212.333M703.563 173.667L703.563 135M703.563 173.667L747.875 173.667M703.563 135L703.563 96.3333M703.563 135L747.875 135M703.563 96.3333L703.563 57.6667M703.563 96.3333L747.875 96.3333M703.563 57.6667L703.563 19M703.563 57.6667L747.875 57.6667M703.563 19L747.875 19M747.875 251L747.875 212.333M747.875 251L792.188 251M747.875 212.333L747.875 173.667M747.875 212.333L792.188 212.333M747.875 173.667L747.875 135M747.875 173.667L792.188 173.667M747.875 135L747.875 96.3333M747.875 135L792.188 135M747.875 96.3333L747.875 57.6667M747.875 96.3333L792.188 96.3333M747.875 57.6667L747.875 19M747.875 57.6667L792.188 57.6667M747.875 19L792.188 19M792.188 251L792.188 212.333M792.188 251L836.5 251M792.188 212.333L792.188 173.667M792.188 212.333L836.5 212.333M792.188 173.667L792.188 135M792.188 173.667L836.5 173.667M792.188 135L792.188 96.3333M792.188 135L836.5 135M792.188 96.3333L792.188 57.6667M792.188 96.3333L836.5 96.3333M792.188 57.6667L792.188 19M792.188 57.6667L836.5 57.6667M792.188 19L836.5 19M836.5 251L836.5 212.333M836.5 251L880.813 251M836.5 212.333L836.5 173.667M836.5 212.333L880.813 212.333M836.5 173.667L836.5 135M836.5 173.667L880.813 173.667M836.5 135L836.5 96.3333M836.5 135L880.813 135M836.5 96.3333L836.5 57.6667M836.5 96.3333L880.813 96.3333M836.5 57.6667L836.5 19M836.5 57.6667L880.813 57.6667M836.5 19L880.813 19M880.813 251L880.813 212.333M880.813 251L925.125 251M880.813 212.333L880.813 173.667M880.813 212.333L925.125 212.333M880.813 173.667L880.813 135M880.813 173.667L925.125 173.667M880.813 135L880.813 96.3333M880.813 135L925.125 135M880.813 96.3333L880.813 57.6667M880.813 96.3333L925.125 96.3333M880.813 57.6667L880.813 19M880.813 57.6667L925.125 57.6667M880.813 19L925.125 19M925.125 251L925.125 212.333M925.125 251L969.438 251M925.125 212.333L925.125 173.667M925.125 212.333L969.438 212.333M925.125 173.667L925.125 135M925.125 173.667L969.438 173.667M925.125 135L925.125 96.3333M925.125 135L969.438 135M925.125 96.3333L925.125 57.6667M925.125 96.3333L969.438 96.3333M925.125 57.6667L925.125 19M925.125 57.6667L969.438 57.6667M925.125 19L969.438 19M969.438 251L969.438 212.333M969.438 251L1013.75 251M969.438 212.333L969.438 173.667M969.438 212.333L1013.75 212.333M969.438 173.667L969.438 135M969.438 173.667L1013.75 173.667M969.438 135L969.438 96.3333M969.438 135L1013.75 135M969.438 96.3333L969.438 57.6667M969.438 96.3333L1013.75 96.3333M969.438 57.6667L969.438 19M969.438 57.6667L1013.75 57.6667M969.438 19L1013.75 19M1013.75 251L1013.75 212.333M1013.75 251L1058.06 251M1013.75 212.333L1013.75 173.667M1013.75 212.333L1058.06 212.333M1013.75 173.667L1013.75 135M1013.75 173.667L1058.06 173.667M1013.75 135L1013.75 96.3333M1013.75 135L1058.06 135M1013.75 96.3333L1013.75 57.6667M1013.75 96.3333L1058.06 96.3333M1013.75 57.6667L1013.75 19M1013.75 57.6667L1058.06 57.6667M1013.75 19L1058.06 19M1058.06 251L1058.06 212.333M1058.06 251L1102.38 251M1058.06 212.333L1058.06 173.667M1058.06 212.333L1102.38 212.333M1058.06 173.667L1058.06 135M1058.06 173.667L1102.38 173.667M1058.06 135L1058.06 96.3333M1058.06 135L1102.38 135M1058.06 96.3333L1058.06 57.6667M1058.06 96.3333L1102.38 96.3333M1058.06 57.6667L1058.06 19M1058.06 57.6667L1102.38 57.6667M1058.06 19L1102.38 19M1102.38 251L1102.38 212.333M1102.38 251L1146.69 251M1102.38 212.333L1102.38 173.667M1102.38 212.333L1146.69 212.333M1102.38 173.667L1102.38 135M1102.38 173.667L1146.69 173.667M1102.38 135L1102.38 96.3333M1102.38 135L1146.69 135M1102.38 96.3333L1102.38 57.6667M1102.38 96.3333L1146.69 96.3333M1102.38 57.6667L1102.38 19M1102.38 57.6667L1146.69 57.6667M1102.38 19L1146.69 19M1146.69 251L1146.69 212.333M1146.69 251L1191 251L1191 212.333M1146.69 212.333L1146.69 173.667M1146.69 212.333L1191 212.333M1146.69 173.667L1146.69 135M1146.69 173.667L1191 173.667M1146.69 135L1146.69 96.3333M1146.69 135L1191 135M1146.69 96.3333L1146.69 57.6667M1146.69 96.3333L1191 96.3333M1146.69 57.6667L1146.69 19M1146.69 57.6667L1191 57.6667M1146.69 19L1191 19L1191 57.6667M1191 212.333L1191 173.667M1191 173.667L1191 135M1191 135L1191 96.3333M1191 96.3333L1191 57.6667" stroke="url(#paint1_linear_0_1)" stroke-opacity="0.7"/>
</g>
<path d="M596 2.44226C597.021 2.44227 598.026 2.51397 599.011 2.65222C600.861 2.91195 602.06 4.51852 602.06 6.21375V11.6815L605.543 8.20105L605.665 8.08386C606.916 6.94557 608.902 6.74983 610.33 7.92468L610.471 8.04675L611.021 8.56726C612.285 9.80366 613.398 11.1948 614.327 12.7108C615.231 14.1861 614.891 15.9915 613.775 17.1073L611.713 19.1678C612.622 19.2409 613.526 19.4158 614.406 19.6952C616.123 20.2404 617.468 21.8141 617.479 23.786C617.48 23.8299 617.479 23.8737 617.479 23.9169C617.479 25.9506 617.197 27.9223 616.666 29.7919C616.209 31.4004 614.732 32.369 613.206 32.369H605.674C603.842 32.369 602.035 32.7926 600.395 33.6073L596.889 35.3485L596 35.7909L595.11 35.3485L591.604 33.6073C589.964 32.7928 588.158 32.3691 586.327 32.369H578.794C577.267 32.369 575.792 31.4003 575.335 29.7919C574.804 27.9223 574.52 25.9506 574.52 23.9169C574.52 23.8736 574.52 23.8293 574.52 23.785C574.532 21.8134 575.876 20.2404 577.594 19.6952C578.473 19.4159 579.377 19.2419 580.286 19.1688L578.224 17.1073C577.109 15.9917 576.769 14.187 577.673 12.7118C578.735 10.9788 580.036 9.40879 581.53 8.04675L581.671 7.92468C583.098 6.7501 585.084 6.94578 586.335 8.08386L586.458 8.20105L589.939 11.6815V6.21375C589.939 4.51852 591.139 2.91195 592.989 2.65222L593.731 2.56042C594.477 2.48205 595.234 2.44226 596 2.44226Z" fill="#F9F9F3" stroke="#9F8CE8" stroke-width="4"/>
<defs>
<linearGradient id="paint0_linear_0_1" x1="31.0511" y1="163" x2="549.432" y2="163" gradientUnits="userSpaceOnUse">
<stop stop-color="#E5E5E0"/>
<stop offset="1" stop-color="#CFD1D3" stop-opacity="0"/>
</linearGradient>
<linearGradient id="paint1_linear_0_1" x1="1159.95" y1="163" x2="641.568" y2="163" gradientUnits="userSpaceOnUse">
<stop stop-color="#E5E5E0"/>
<stop offset="1" stop-color="#CFD1D3" stop-opacity="0"/>
</linearGradient>
<clipPath id="clip0_0_1">
<rect width="1191" height="244" fill="white" transform="translate(0 19)"/>
</clipPath>
</defs>
</svg>
