<svg width="25" height="28" viewBox="0 0 25 28" fill="none" xmlns="http://www.w3.org/2000/svg">
<path d="M19.3337 19.3332C21.5429 19.3332 23.3337 21.124 23.3337 23.3332C23.3337 25.5424 21.5429 27.3332 19.3337 27.3332C17.1245 27.3332 15.3337 25.5424 15.3337 23.3332C15.3337 21.124 17.1245 19.3332 19.3337 19.3332ZM6.00033 13.9998C8.94585 13.9998 11.3337 16.3877 11.3337 19.3332C11.3337 22.2786 8.94585 24.6665 6.00033 24.6665C3.05481 24.6665 0.666992 22.2786 0.666992 19.3332C0.666992 16.3877 3.05481 13.9998 6.00033 13.9998ZM17.3337 0.666504C21.3838 0.666504 24.667 3.94974 24.667 7.99984C24.667 12.05 21.3838 15.3332 17.3337 15.3332C13.2835 15.3332 10.0003 12.05 10.0003 7.99984C10.0003 3.94974 13.2835 0.666504 17.3337 0.666504Z" fill="#CE583A"/>
</svg>
