<svg width="386" height="682" viewBox="0 0 386 682" fill="none" xmlns="http://www.w3.org/2000/svg">
<path d="M385 43.5L385 1L321 0.999997M385 43.5L321 43.5M385 43.5L385 86M321 43.5L321 0.999997M321 43.5L257 43.5M321 43.5L321 86M321 0.999997L257 0.999994M257 43.5L257 0.999994M257 43.5L193 43.5M257 43.5L257 86M257 0.999994L193 0.999992M193 43.5L193 0.999992M193 43.5L129 43.5M193 43.5L193 86M193 0.999992L129 0.999989M129 43.5L129 0.999989M129 43.5L65 43.5M129 43.5L129 86M129 0.999989L65 0.999986M65 43.5L65 0.999986M65 43.5L1.00002 43.5M65 43.5L65 86M65 0.999986L1.00003 0.999983L1.00002 43.5M1.00002 43.5L1.00002 86M385 86L321 86M385 86L385 128.5M321 86L257 86M321 86L321 128.5M257 86L193 86M257 86L257 128.5M193 86L129 86M193 86L193 128.5M129 86L65 86M129 86L129 128.5M65 86L1.00002 86M65 86L65 128.5M1.00002 86L1.00002 128.5M385 128.5L321 128.5M385 128.5L385 171M321 128.5L257 128.5M321 128.5L321 171M257 128.5L193 128.5M257 128.5L257 171M193 128.5L129 128.5M193 128.5L193 171M129 128.5L65 128.5M129 128.5L129 171M65 128.5L1.00002 128.5M65 128.5L65 171M1.00002 128.5L1.00002 171M385 171L321 171M385 171L385 213.5M321 171L257 171M321 171L321 213.5M257 171L193 171M257 171L257 213.5M193 171L129 171M193 171L193 213.5M129 171L65 171M129 171L129 213.5M65 171L1.00002 171M65 171L65 213.5M1.00002 171L1.00002 213.5M385 213.5L321 213.5M385 213.5L385 256M321 213.5L257 213.5M321 213.5L321 256M257 213.5L193 213.5M257 213.5L257 256M193 213.5L129 213.5M193 213.5L193 256M129 213.5L65 213.5M129 213.5L129 256M65 213.5L1.00002 213.5M65 213.5L65 256M1.00002 213.5L1.00001 256M385 256L321 256M385 256L385 298.5M321 256L257 256M321 256L321 298.5M257 256L193 256M257 256L257 298.5M193 256L129 256M193 256L193 298.5M129 256L65 256M129 256L129 298.5M65 256L1.00001 256M65 256L65 298.5M1.00001 256L1.00001 298.5M385 298.5L321 298.5M385 298.5L385 341M321 298.5L257 298.5M321 298.5L321 341M257 298.5L193 298.5M257 298.5L257 341M193 298.5L129 298.5M193 298.5L193 341M129 298.5L65 298.5M129 298.5L129 341M65 298.5L1.00001 298.5M65 298.5L65 341M1.00001 298.5L1.00001 341M385 341L321 341M385 341L385 383.5M321 341L257 341M321 341L321 383.5M257 341L193 341M257 341L257 383.5M193 341L129 341M193 341L193 383.5M129 341L65 341M129 341L129 383.5M65 341L1.00001 341M65 341L65 383.5M1.00001 341L1.00001 383.5M385 383.5L321 383.5M385 383.5L385 426M321 383.5L257 383.5M321 383.5L321 426M257 383.5L193 383.5M257 383.5L257 426M193 383.5L129 383.5M193 383.5L193 426M129 383.5L65 383.5M129 383.5L129 426M65 383.5L1.00001 383.5M65 383.5L65 426M1.00001 383.5L1.00001 426M385 426L321 426M385 426L385 468.5M321 426L257 426M321 426L321 468.5M257 426L193 426M257 426L257 468.5M193 426L129 426M193 426L193 468.5M129 426L65 426M129 426L129 468.5M65 426L1.00001 426M65 426L65 468.5M1.00001 426L1.00001 468.5M385 468.5L321 468.5M385 468.5L385 511M321 468.5L257 468.5M321 468.5L321 511M257 468.5L193 468.5M257 468.5L257 511M193 468.5L129 468.5M193 468.5L193 511M129 468.5L65 468.5M129 468.5L129 511M65 468.5L1.00001 468.5M65 468.5L65 511M1.00001 468.5L1 511M385 511L321 511M385 511L385 553.5M321 511L257 511M321 511L321 553.5M257 511L193 511M257 511L257 553.5M193 511L129 511M193 511L193 553.5M129 511L65 511M129 511L129 553.5M65 511L1 511M65 511L65 553.5M1 511L1 553.5M385 553.5L321 553.5M385 553.5L385 596M321 553.5L257 553.5M321 553.5L321 596M257 553.5L193 553.5M257 553.5L257 596M193 553.5L129 553.5M193 553.5L193 596M129 553.5L65 553.5M129 553.5L129 596M65 553.5L1 553.5M65 553.5L65 596M1 553.5L1 596M385 596L321 596M385 596L385 638.5M321 596L257 596M321 596L321 638.5M257 596L193 596M257 596L257 638.5M193 596L129 596M193 596L193 638.5M129 596L65 596M129 596L129 638.5M65 596L1 596M65 596L65 638.5M1 596L0.999998 638.5M385 638.5L321 638.5M385 638.5L385 681L321 681M321 638.5L257 638.5M321 638.5L321 681M257 638.5L193 638.5M257 638.5L257 681M193 638.5L129 638.5M193 638.5L193 681M129 638.5L65 638.5M129 638.5L129 681M65 638.5L0.999998 638.5M65 638.5L65 681M0.999998 638.5L0.999996 681L65 681M321 681L257 681M257 681L193 681M193 681L129 681M129 681L65 681" stroke="url(#paint0_radial_1155_11507)" stroke-opacity="0.7"/>
<defs>
<radialGradient id="paint0_radial_1155_11507" cx="0" cy="0" r="1" gradientUnits="userSpaceOnUse" gradientTransform="translate(255.367 341) rotate(-180) scale(442.357 283.714)">
<stop stop-color="#E5E5E0"/>
<stop offset="1" stop-color="#CFD1D3" stop-opacity="0"/>
</radialGradient>
</defs>
</svg>
