<svg width="341" height="330" viewBox="0 0 341 330" fill="none" xmlns="http://www.w3.org/2000/svg">
<g clip-path="url(#clip0_0_1)">
<rect width="341" height="330" rx="24" fill="#DDF24B"/>
<path d="M45.6853 49.3862C45.1638 46.3337 48.7212 44.2799 51.104 46.2577C66.0867 58.6939 85.7548 63.9639 104.948 60.6853C108.001 60.1638 110.055 63.7212 108.077 66.104C95.6407 81.0867 90.3706 100.755 93.6493 119.948C94.1708 123.001 90.6134 125.055 88.2306 123.077C73.2478 110.641 53.5797 105.371 34.3862 108.649C31.3337 109.171 29.2799 105.613 31.2577 103.231C43.6939 88.2478 48.9639 68.5797 45.6853 49.3862Z" fill="#FBFFE0"/>
<rect x="126.234" y="95" width="140" height="140" rx="20.8" transform="rotate(15 126.234 95)" fill="#FBFFE0" fill-opacity="0.7"/>
<circle cx="285" cy="266" r="24" fill="#FBFFE0"/>
</g>
<path d="M38.1709 265H36.0703L40.7812 251.904H43.0664L47.7686 265H45.6768L41.9678 254.286H41.8623L38.1709 265ZM38.5225 259.876H45.3164V261.528H38.5225V259.876ZM52.708 265.202C51.7646 265.202 50.9502 264.985 50.2646 264.552C49.5791 264.118 49.0518 263.521 48.6826 262.759C48.3135 261.997 48.1289 261.124 48.1289 260.14C48.1289 259.138 48.3164 258.256 48.6914 257.494C49.0723 256.727 49.6025 256.129 50.2822 255.701C50.9678 255.268 51.7705 255.051 52.6904 255.051C53.4404 255.051 54.1055 255.188 54.6855 255.464C55.2715 255.733 55.7432 256.117 56.1006 256.615C56.4639 257.113 56.6777 257.693 56.7422 258.355H54.8789C54.8145 258.045 54.6885 257.761 54.501 257.503C54.3193 257.245 54.0791 257.04 53.7803 256.888C53.4814 256.735 53.127 256.659 52.7168 256.659C52.1836 256.659 51.7178 256.8 51.3193 257.081C50.9268 257.356 50.6191 257.752 50.3965 258.268C50.1738 258.783 50.0625 259.393 50.0625 260.096C50.0625 260.805 50.1709 261.423 50.3877 261.95C50.6045 262.478 50.9121 262.885 51.3105 263.172C51.7148 263.453 52.1836 263.594 52.7168 263.594C53.2676 263.594 53.7363 263.441 54.123 263.137C54.5156 262.832 54.7676 262.416 54.8789 261.889H56.7422C56.6777 262.527 56.4727 263.096 56.127 263.594C55.7812 264.092 55.3184 264.484 54.7383 264.771C54.1582 265.059 53.4814 265.202 52.708 265.202ZM62.2178 265.202C61.2744 265.202 60.46 264.985 59.7744 264.552C59.0889 264.118 58.5615 263.521 58.1924 262.759C57.8232 261.997 57.6387 261.124 57.6387 260.14C57.6387 259.138 57.8262 258.256 58.2012 257.494C58.582 256.727 59.1123 256.129 59.792 255.701C60.4775 255.268 61.2803 255.051 62.2002 255.051C62.9502 255.051 63.6152 255.188 64.1953 255.464C64.7812 255.733 65.2529 256.117 65.6104 256.615C65.9736 257.113 66.1875 257.693 66.252 258.355H64.3887C64.3242 258.045 64.1982 257.761 64.0107 257.503C63.8291 257.245 63.5889 257.04 63.29 256.888C62.9912 256.735 62.6367 256.659 62.2266 256.659C61.6934 256.659 61.2275 256.8 60.8291 257.081C60.4365 257.356 60.1289 257.752 59.9062 258.268C59.6836 258.783 59.5723 259.393 59.5723 260.096C59.5723 260.805 59.6807 261.423 59.8975 261.95C60.1143 262.478 60.4219 262.885 60.8203 263.172C61.2246 263.453 61.6934 263.594 62.2266 263.594C62.7773 263.594 63.2461 263.441 63.6328 263.137C64.0254 262.832 64.2773 262.416 64.3887 261.889H66.252C66.1875 262.527 65.9824 263.096 65.6367 263.594C65.291 264.092 64.8281 264.484 64.248 264.771C63.668 265.059 62.9912 265.202 62.2178 265.202ZM73.8281 260.939V255.174H75.7266V265H73.8633V263.295H73.7578C73.5234 263.816 73.1602 264.253 72.668 264.604C72.1758 264.956 71.5605 265.129 70.8223 265.123C70.1895 265.123 69.6299 264.985 69.1436 264.71C68.6631 264.435 68.2852 264.021 68.0098 263.471C67.7402 262.92 67.6055 262.237 67.6055 261.423V255.174H69.5039V261.203C69.5039 261.865 69.6914 262.396 70.0664 262.794C70.4414 263.192 70.9248 263.389 71.5166 263.383C71.874 263.383 72.2285 263.295 72.5801 263.119C72.9375 262.943 73.2334 262.674 73.4678 262.311C73.708 261.947 73.8281 261.49 73.8281 260.939ZM77.5547 265V255.174H79.374V256.791H79.5059C79.7109 256.246 80.0449 255.821 80.5078 255.517C80.9766 255.206 81.5332 255.051 82.1777 255.051C82.834 255.051 83.3818 255.206 83.8213 255.517C84.2666 255.821 84.5977 256.246 84.8145 256.791H84.9199C85.1543 256.258 85.5264 255.836 86.0361 255.525C86.5459 255.209 87.1523 255.051 87.8555 255.051C88.7461 255.051 89.4756 255.332 90.0439 255.895C90.6123 256.451 90.8965 257.292 90.8965 258.417V265H88.9805V258.593C88.9805 257.925 88.7988 257.444 88.4355 257.151C88.0723 256.853 87.6387 256.703 87.1348 256.703C86.5137 256.703 86.0303 256.896 85.6846 257.283C85.3447 257.664 85.1748 258.147 85.1748 258.733V265H83.2588V258.47C83.2588 257.937 83.0947 257.509 82.7666 257.187C82.4385 256.864 82.0078 256.703 81.4746 256.703C81.1113 256.703 80.7744 256.8 80.4639 256.993C80.1592 257.181 79.9131 257.444 79.7256 257.784C79.5439 258.118 79.4531 258.505 79.4531 258.944V265H77.5547ZM98.9473 260.939V255.174H100.846V265H98.9824V263.295H98.877C98.6426 263.816 98.2793 264.253 97.7871 264.604C97.2949 264.956 96.6797 265.129 95.9414 265.123C95.3086 265.123 94.749 264.985 94.2627 264.71C93.7822 264.435 93.4043 264.021 93.1289 263.471C92.8594 262.92 92.7246 262.237 92.7246 261.423V255.174H94.623V261.203C94.623 261.865 94.8105 262.396 95.1855 262.794C95.5605 263.192 96.0439 263.389 96.6357 263.383C96.9932 263.383 97.3477 263.295 97.6992 263.119C98.0566 262.943 98.3525 262.674 98.5869 262.311C98.8271 261.947 98.9473 261.49 98.9473 260.939ZM104.572 251.904V265H102.674V251.904H104.572ZM109.248 265.211C108.627 265.211 108.064 265.097 107.561 264.868C107.057 264.634 106.658 264.294 106.365 263.849C106.072 263.403 105.926 262.861 105.926 262.223C105.926 261.666 106.031 261.212 106.242 260.86C106.459 260.503 106.749 260.219 107.112 260.008C107.476 259.797 107.88 259.639 108.325 259.533C108.771 259.428 109.228 259.346 109.696 259.287C110.288 259.223 110.766 259.167 111.129 259.12C111.492 259.073 111.756 259 111.92 258.9C112.09 258.795 112.175 258.628 112.175 258.399V258.355C112.175 257.799 112.017 257.368 111.7 257.063C111.39 256.759 110.927 256.606 110.312 256.606C109.673 256.606 109.166 256.747 108.791 257.028C108.422 257.304 108.167 257.617 108.026 257.969L106.225 257.556C106.441 256.958 106.755 256.478 107.165 256.114C107.581 255.745 108.056 255.476 108.589 255.306C109.128 255.136 109.69 255.051 110.276 255.051C110.669 255.051 111.085 255.098 111.524 255.191C111.964 255.279 112.377 255.446 112.764 255.692C113.156 255.933 113.476 256.278 113.722 256.729C113.968 257.181 114.091 257.764 114.091 258.479V265H112.219V263.655H112.148C112.031 263.896 111.847 264.136 111.595 264.376C111.349 264.616 111.032 264.815 110.646 264.974C110.259 265.132 109.793 265.211 109.248 265.211ZM109.661 263.682C110.194 263.682 110.648 263.579 111.023 263.374C111.398 263.163 111.686 262.888 111.885 262.548C112.084 262.208 112.184 261.848 112.184 261.467V260.192C112.113 260.257 111.981 260.318 111.788 260.377C111.595 260.436 111.375 260.485 111.129 260.526C110.883 260.567 110.643 260.605 110.408 260.641C110.174 260.67 109.978 260.693 109.819 260.711C109.45 260.764 109.113 260.846 108.809 260.957C108.504 261.062 108.258 261.221 108.07 261.432C107.889 261.637 107.798 261.909 107.798 262.249C107.798 262.724 107.974 263.081 108.325 263.321C108.677 263.562 109.122 263.682 109.661 263.682ZM120.498 255.174V256.712H115.137V255.174H120.498ZM116.569 252.836H118.477V262.117C118.477 262.568 118.57 262.899 118.758 263.11C118.945 263.315 119.247 263.418 119.663 263.418C119.763 263.418 119.868 263.412 119.979 263.4C120.097 263.389 120.214 263.371 120.331 263.348L120.691 264.93C120.498 264.994 120.287 265.044 120.059 265.079C119.83 265.114 119.602 265.132 119.373 265.132C118.523 265.132 117.844 264.895 117.334 264.42C116.824 263.939 116.569 263.301 116.569 262.504V252.836ZM125.991 265.202C125.03 265.202 124.198 264.994 123.495 264.578C122.792 264.162 122.25 263.576 121.869 262.82C121.494 262.059 121.307 261.171 121.307 260.157C121.307 259.149 121.491 258.262 121.86 257.494C122.235 256.727 122.76 256.129 123.434 255.701C124.113 255.268 124.91 255.051 125.824 255.051C126.381 255.051 126.92 255.142 127.441 255.323C127.963 255.505 128.432 255.792 128.848 256.185C129.264 256.577 129.592 257.087 129.832 257.714C130.078 258.341 130.201 259.097 130.201 259.981V260.667H122.388V259.234H129.217L128.329 259.709C128.329 259.105 128.235 258.572 128.048 258.109C127.86 257.646 127.579 257.286 127.204 257.028C126.835 256.765 126.375 256.633 125.824 256.633C125.273 256.633 124.802 256.765 124.409 257.028C124.022 257.292 123.727 257.641 123.521 258.074C123.316 258.508 123.214 258.982 123.214 259.498V260.474C123.214 261.147 123.331 261.719 123.565 262.188C123.8 262.656 124.125 263.014 124.541 263.26C124.963 263.506 125.452 263.629 126.009 263.629C126.372 263.629 126.7 263.576 126.993 263.471C127.292 263.365 127.55 263.207 127.767 262.996C127.983 262.785 128.147 262.524 128.259 262.214L130.069 262.557C129.923 263.084 129.665 263.547 129.296 263.945C128.927 264.344 128.461 264.654 127.898 264.877C127.342 265.094 126.706 265.202 125.991 265.202ZM142.893 257.582L141.161 257.881C141.05 257.553 140.842 257.251 140.537 256.976C140.238 256.7 139.79 256.562 139.192 256.562C138.653 256.562 138.202 256.686 137.839 256.932C137.481 257.172 137.303 257.479 137.303 257.854C137.303 258.183 137.423 258.449 137.663 258.654C137.909 258.859 138.299 259.023 138.832 259.146L140.405 259.498C141.302 259.703 141.973 260.025 142.418 260.465C142.863 260.904 143.086 261.467 143.086 262.152C143.086 262.744 142.916 263.271 142.576 263.734C142.236 264.191 141.765 264.552 141.161 264.815C140.558 265.073 139.86 265.202 139.069 265.202C137.968 265.202 137.071 264.965 136.38 264.49C135.688 264.016 135.264 263.348 135.105 262.486L136.942 262.205C137.06 262.686 137.297 263.049 137.654 263.295C138.018 263.541 138.486 263.664 139.061 263.664C139.682 263.664 140.18 263.532 140.555 263.269C140.936 263.005 141.126 262.686 141.126 262.311C141.126 261.689 140.663 261.271 139.737 261.054L138.076 260.685C137.156 260.474 136.477 260.143 136.037 259.691C135.604 259.234 135.387 258.66 135.387 257.969C135.387 257.389 135.548 256.879 135.87 256.439C136.198 256 136.646 255.66 137.215 255.42C137.789 255.174 138.442 255.051 139.175 255.051C140.241 255.051 141.076 255.282 141.68 255.745C142.289 256.208 142.693 256.82 142.893 257.582ZM148.544 265.202C147.601 265.202 146.786 264.985 146.101 264.552C145.415 264.118 144.888 263.521 144.519 262.759C144.149 261.997 143.965 261.124 143.965 260.14C143.965 259.138 144.152 258.256 144.527 257.494C144.908 256.727 145.438 256.129 146.118 255.701C146.804 255.268 147.606 255.051 148.526 255.051C149.276 255.051 149.941 255.188 150.521 255.464C151.107 255.733 151.579 256.117 151.937 256.615C152.3 257.113 152.514 257.693 152.578 258.355H150.715C150.65 258.045 150.524 257.761 150.337 257.503C150.155 257.245 149.915 257.04 149.616 256.888C149.317 256.735 148.963 256.659 148.553 256.659C148.02 256.659 147.554 256.8 147.155 257.081C146.763 257.356 146.455 257.752 146.232 258.268C146.01 258.783 145.898 259.393 145.898 260.096C145.898 260.805 146.007 261.423 146.224 261.95C146.44 262.478 146.748 262.885 147.146 263.172C147.551 263.453 148.02 263.594 148.553 263.594C149.104 263.594 149.572 263.441 149.959 263.137C150.352 262.832 150.604 262.416 150.715 261.889H152.578C152.514 262.527 152.309 263.096 151.963 263.594C151.617 264.092 151.154 264.484 150.574 264.771C149.994 265.059 149.317 265.202 148.544 265.202ZM155.83 259.173V265H153.932V251.904H155.804V256.791H155.936C156.164 256.258 156.513 255.836 156.981 255.525C157.456 255.209 158.074 255.051 158.836 255.051C159.51 255.051 160.099 255.188 160.603 255.464C161.106 255.739 161.499 256.152 161.78 256.703C162.067 257.254 162.211 257.939 162.211 258.76V265H160.295V258.988C160.295 258.262 160.107 257.699 159.732 257.301C159.363 256.902 158.848 256.703 158.186 256.703C157.729 256.703 157.324 256.803 156.973 257.002C156.621 257.195 156.343 257.474 156.138 257.837C155.933 258.2 155.83 258.646 155.83 259.173ZM168.161 265.202C167.241 265.202 166.436 264.991 165.744 264.569C165.059 264.147 164.525 263.556 164.145 262.794C163.77 262.032 163.582 261.147 163.582 260.14C163.582 259.12 163.77 258.229 164.145 257.468C164.525 256.7 165.059 256.105 165.744 255.684C166.436 255.262 167.241 255.051 168.161 255.051C169.087 255.051 169.893 255.262 170.578 255.684C171.264 256.105 171.797 256.7 172.178 257.468C172.559 258.229 172.749 259.12 172.749 260.14C172.749 261.147 172.559 262.032 172.178 262.794C171.797 263.556 171.264 264.147 170.578 264.569C169.893 264.991 169.087 265.202 168.161 265.202ZM168.161 263.594C168.765 263.594 169.263 263.436 169.655 263.119C170.048 262.803 170.338 262.384 170.525 261.862C170.719 261.335 170.815 260.761 170.815 260.14C170.815 259.507 170.719 258.927 170.525 258.399C170.338 257.872 170.048 257.45 169.655 257.134C169.263 256.817 168.765 256.659 168.161 256.659C167.563 256.659 167.068 256.817 166.676 257.134C166.289 257.45 165.999 257.872 165.806 258.399C165.612 258.927 165.516 259.507 165.516 260.14C165.516 260.761 165.612 261.335 165.806 261.862C165.999 262.384 166.289 262.803 166.676 263.119C167.068 263.436 167.563 263.594 168.161 263.594ZM176.027 251.904V265H174.129V251.904H176.027ZM180.703 265.211C180.082 265.211 179.52 265.097 179.016 264.868C178.512 264.634 178.113 264.294 177.82 263.849C177.527 263.403 177.381 262.861 177.381 262.223C177.381 261.666 177.486 261.212 177.697 260.86C177.914 260.503 178.204 260.219 178.567 260.008C178.931 259.797 179.335 259.639 179.78 259.533C180.226 259.428 180.683 259.346 181.151 259.287C181.743 259.223 182.221 259.167 182.584 259.12C182.947 259.073 183.211 259 183.375 258.9C183.545 258.795 183.63 258.628 183.63 258.399V258.355C183.63 257.799 183.472 257.368 183.155 257.063C182.845 256.759 182.382 256.606 181.767 256.606C181.128 256.606 180.621 256.747 180.246 257.028C179.877 257.304 179.622 257.617 179.481 257.969L177.68 257.556C177.896 256.958 178.21 256.478 178.62 256.114C179.036 255.745 179.511 255.476 180.044 255.306C180.583 255.136 181.146 255.051 181.731 255.051C182.124 255.051 182.54 255.098 182.979 255.191C183.419 255.279 183.832 255.446 184.219 255.692C184.611 255.933 184.931 256.278 185.177 256.729C185.423 257.181 185.546 257.764 185.546 258.479V265H183.674V263.655H183.604C183.486 263.896 183.302 264.136 183.05 264.376C182.804 264.616 182.487 264.815 182.101 264.974C181.714 265.132 181.248 265.211 180.703 265.211ZM181.116 263.682C181.649 263.682 182.104 263.579 182.479 263.374C182.854 263.163 183.141 262.888 183.34 262.548C183.539 262.208 183.639 261.848 183.639 261.467V260.192C183.568 260.257 183.437 260.318 183.243 260.377C183.05 260.436 182.83 260.485 182.584 260.526C182.338 260.567 182.098 260.605 181.863 260.641C181.629 260.67 181.433 260.693 181.274 260.711C180.905 260.764 180.568 260.846 180.264 260.957C179.959 261.062 179.713 261.221 179.525 261.432C179.344 261.637 179.253 261.909 179.253 262.249C179.253 262.724 179.429 263.081 179.78 263.321C180.132 263.562 180.577 263.682 181.116 263.682ZM187.383 265V255.174H189.22V256.747H189.325C189.507 256.22 189.823 255.804 190.274 255.499C190.731 255.188 191.247 255.033 191.821 255.033C191.938 255.033 192.076 255.039 192.234 255.051C192.398 255.057 192.53 255.065 192.63 255.077V256.905C192.554 256.882 192.416 256.858 192.217 256.835C192.023 256.812 191.827 256.8 191.628 256.8C191.177 256.8 190.772 256.896 190.415 257.09C190.063 257.277 189.785 257.538 189.58 257.872C189.381 258.2 189.281 258.581 189.281 259.015V265H187.383ZM200.9 257.582L199.169 257.881C199.058 257.553 198.85 257.251 198.545 256.976C198.246 256.7 197.798 256.562 197.2 256.562C196.661 256.562 196.21 256.686 195.847 256.932C195.489 257.172 195.311 257.479 195.311 257.854C195.311 258.183 195.431 258.449 195.671 258.654C195.917 258.859 196.307 259.023 196.84 259.146L198.413 259.498C199.31 259.703 199.98 260.025 200.426 260.465C200.871 260.904 201.094 261.467 201.094 262.152C201.094 262.744 200.924 263.271 200.584 263.734C200.244 264.191 199.772 264.552 199.169 264.815C198.565 265.073 197.868 265.202 197.077 265.202C195.976 265.202 195.079 264.965 194.388 264.49C193.696 264.016 193.271 263.348 193.113 262.486L194.95 262.205C195.067 262.686 195.305 263.049 195.662 263.295C196.025 263.541 196.494 263.664 197.068 263.664C197.689 263.664 198.188 263.532 198.562 263.269C198.943 263.005 199.134 262.686 199.134 262.311C199.134 261.689 198.671 261.271 197.745 261.054L196.084 260.685C195.164 260.474 194.484 260.143 194.045 259.691C193.611 259.234 193.395 258.66 193.395 257.969C193.395 257.389 193.556 256.879 193.878 256.439C194.206 256 194.654 255.66 195.223 255.42C195.797 255.174 196.45 255.051 197.183 255.051C198.249 255.051 199.084 255.282 199.688 255.745C200.297 256.208 200.701 256.82 200.9 257.582ZM204.328 259.173V265H202.43V251.904H204.302V256.791H204.434C204.662 256.258 205.011 255.836 205.479 255.525C205.954 255.209 206.572 255.051 207.334 255.051C208.008 255.051 208.597 255.188 209.101 255.464C209.604 255.739 209.997 256.152 210.278 256.703C210.565 257.254 210.709 257.939 210.709 258.76V265H208.793V258.988C208.793 258.262 208.605 257.699 208.23 257.301C207.861 256.902 207.346 256.703 206.684 256.703C206.227 256.703 205.822 256.803 205.471 257.002C205.119 257.195 204.841 257.474 204.636 257.837C204.431 258.2 204.328 258.646 204.328 259.173ZM212.537 265V255.174H214.436V265H212.537ZM213.495 253.662C213.161 253.662 212.877 253.551 212.643 253.328C212.408 253.105 212.291 252.839 212.291 252.528C212.291 252.212 212.408 251.942 212.643 251.72C212.877 251.497 213.161 251.386 213.495 251.386C213.823 251.386 214.104 251.497 214.339 251.72C214.579 251.942 214.699 252.212 214.699 252.528C214.699 252.839 214.579 253.105 214.339 253.328C214.104 253.551 213.823 253.662 213.495 253.662ZM216.264 268.674V255.174H218.109V256.773H218.268C218.385 256.568 218.546 256.331 218.751 256.062C218.962 255.792 219.255 255.558 219.63 255.358C220.005 255.153 220.494 255.051 221.098 255.051C221.889 255.051 222.592 255.25 223.207 255.648C223.828 256.047 224.317 256.624 224.675 257.38C225.032 258.136 225.211 259.047 225.211 260.113C225.211 261.168 225.035 262.076 224.684 262.838C224.332 263.594 223.846 264.177 223.225 264.587C222.609 264.991 221.903 265.193 221.106 265.193C220.515 265.193 220.028 265.094 219.647 264.895C219.272 264.689 218.977 264.452 218.76 264.183C218.549 263.913 218.385 263.676 218.268 263.471H218.162V268.674H216.264ZM220.693 263.567C221.262 263.567 221.736 263.415 222.117 263.11C222.498 262.806 222.785 262.393 222.979 261.871C223.178 261.344 223.277 260.752 223.277 260.096C223.277 259.445 223.181 258.862 222.987 258.347C222.794 257.831 222.507 257.424 222.126 257.125C221.745 256.826 221.268 256.677 220.693 256.677C220.137 256.677 219.668 256.82 219.287 257.107C218.906 257.389 218.616 257.787 218.417 258.303C218.224 258.812 218.127 259.41 218.127 260.096C218.127 260.781 218.227 261.385 218.426 261.906C218.625 262.428 218.915 262.835 219.296 263.128C219.683 263.421 220.148 263.567 220.693 263.567ZM41.5898 279.174V280.712H36.0439V279.174H41.5898ZM37.5557 289V278.031C37.5557 277.422 37.6904 276.915 37.96 276.511C38.2354 276.101 38.5928 275.796 39.0322 275.597C39.4775 275.392 39.9551 275.289 40.4648 275.289C40.8574 275.289 41.1914 275.321 41.4668 275.386C41.7422 275.45 41.9443 275.506 42.0732 275.553L41.6162 277.1C41.5283 277.07 41.4141 277.038 41.2734 277.003C41.1387 276.968 40.9688 276.95 40.7637 276.95C40.3008 276.95 39.9668 277.067 39.7617 277.302C39.5566 277.53 39.4541 277.864 39.4541 278.304V289H37.5557ZM49.0254 284.939V279.174H50.9238V289H49.0605V287.295H48.9551C48.7207 287.816 48.3574 288.253 47.8652 288.604C47.373 288.956 46.7578 289.129 46.0195 289.123C45.3867 289.123 44.8271 288.985 44.3408 288.71C43.8604 288.435 43.4824 288.021 43.207 287.471C42.9375 286.92 42.8027 286.237 42.8027 285.423V279.174H44.7012V285.203C44.7012 285.865 44.8887 286.396 45.2637 286.794C45.6387 287.192 46.1221 287.389 46.7139 287.383C47.0713 287.383 47.4258 287.295 47.7773 287.119C48.1348 286.943 48.4307 286.674 48.665 286.311C48.9053 285.947 49.0254 285.49 49.0254 284.939ZM54.6504 283.173V289H52.752V279.174H54.5977V280.791H54.7295C54.9521 280.258 55.3008 279.836 55.7754 279.525C56.25 279.209 56.8594 279.051 57.6035 279.051C58.2715 279.051 58.8545 279.191 59.3525 279.473C59.8564 279.748 60.2461 280.161 60.5215 280.712C60.8027 281.263 60.9434 281.945 60.9434 282.76V289H59.0449V282.988C59.0449 282.279 58.8574 281.723 58.4824 281.318C58.1074 280.908 57.5977 280.703 56.9531 280.703C56.5137 280.703 56.1182 280.803 55.7666 281.002C55.4209 281.195 55.1484 281.474 54.9492 281.837C54.75 282.2 54.6504 282.646 54.6504 283.173ZM66.4277 289.193C65.6309 289.193 64.9219 288.991 64.3008 288.587C63.6797 288.177 63.1934 287.594 62.8418 286.838C62.4902 286.076 62.3145 285.168 62.3145 284.113C62.3145 283.047 62.4932 282.136 62.8506 281.38C63.208 280.624 63.6973 280.047 64.3184 279.648C64.9395 279.25 65.6426 279.051 66.4277 279.051C67.043 279.051 67.5352 279.153 67.9043 279.358C68.2793 279.558 68.5693 279.792 68.7744 280.062C68.9854 280.331 69.1465 280.568 69.2578 280.773H69.3721V275.904H71.2705V289H69.416V287.471H69.2578C69.1465 287.676 68.9824 287.913 68.7656 288.183C68.5488 288.452 68.2529 288.689 67.8779 288.895C67.5088 289.094 67.0254 289.193 66.4277 289.193ZM66.8408 287.567C67.3916 287.567 67.8574 287.421 68.2383 287.128C68.6191 286.835 68.9062 286.428 69.0996 285.906C69.2988 285.385 69.3984 284.781 69.3984 284.096C69.3984 283.41 69.3018 282.812 69.1084 282.303C68.915 281.787 68.6279 281.389 68.2471 281.107C67.8662 280.82 67.3975 280.677 66.8408 280.677C66.2666 280.677 65.7891 280.826 65.4082 281.125C65.0273 281.424 64.7402 281.831 64.5469 282.347C64.3535 282.862 64.2568 283.445 64.2568 284.096C64.2568 284.752 64.3535 285.344 64.5469 285.871C64.7402 286.393 65.0273 286.806 65.4082 287.11C65.7949 287.415 66.2725 287.567 66.8408 287.567ZM80.4551 281.582L78.7236 281.881C78.6123 281.553 78.4043 281.251 78.0996 280.976C77.8008 280.7 77.3525 280.562 76.7549 280.562C76.2158 280.562 75.7646 280.686 75.4014 280.932C75.0439 281.172 74.8652 281.479 74.8652 281.854C74.8652 282.183 74.9854 282.449 75.2256 282.654C75.4717 282.859 75.8613 283.023 76.3945 283.146L77.9678 283.498C78.8643 283.703 79.5352 284.025 79.9805 284.465C80.4258 284.904 80.6484 285.467 80.6484 286.152C80.6484 286.744 80.4785 287.271 80.1387 287.734C79.7988 288.191 79.3271 288.552 78.7236 288.815C78.1201 289.073 77.4229 289.202 76.6318 289.202C75.5303 289.202 74.6338 288.965 73.9424 288.49C73.251 288.016 72.8262 287.348 72.668 286.486L74.5049 286.205C74.6221 286.686 74.8594 287.049 75.2168 287.295C75.5801 287.541 76.0488 287.664 76.623 287.664C77.2441 287.664 77.7422 287.532 78.1172 287.269C78.498 287.005 78.6885 286.686 78.6885 286.311C78.6885 285.689 78.2256 285.271 77.2998 285.054L75.6387 284.685C74.7188 284.474 74.0391 284.143 73.5996 283.691C73.166 283.234 72.9492 282.66 72.9492 281.969C72.9492 281.389 73.1104 280.879 73.4326 280.439C73.7607 280 74.209 279.66 74.7773 279.42C75.3516 279.174 76.0049 279.051 76.7373 279.051C77.8037 279.051 78.6387 279.282 79.2422 279.745C79.8516 280.208 80.2559 280.82 80.4551 281.582ZM88.8398 289.211C88.2188 289.211 87.6562 289.097 87.1523 288.868C86.6484 288.634 86.25 288.294 85.957 287.849C85.6641 287.403 85.5176 286.861 85.5176 286.223C85.5176 285.666 85.623 285.212 85.834 284.86C86.0508 284.503 86.3408 284.219 86.7041 284.008C87.0674 283.797 87.4717 283.639 87.917 283.533C88.3623 283.428 88.8193 283.346 89.2881 283.287C89.8799 283.223 90.3574 283.167 90.7207 283.12C91.084 283.073 91.3477 283 91.5117 282.9C91.6816 282.795 91.7666 282.628 91.7666 282.399V282.355C91.7666 281.799 91.6084 281.368 91.292 281.063C90.9814 280.759 90.5186 280.606 89.9033 280.606C89.2646 280.606 88.7578 280.747 88.3828 281.028C88.0137 281.304 87.7588 281.617 87.6182 281.969L85.8164 281.556C86.0332 280.958 86.3467 280.478 86.7568 280.114C87.1729 279.745 87.6475 279.476 88.1807 279.306C88.7197 279.136 89.2822 279.051 89.8682 279.051C90.2607 279.051 90.6768 279.098 91.1162 279.191C91.5557 279.279 91.9688 279.446 92.3555 279.692C92.748 279.933 93.0674 280.278 93.3135 280.729C93.5596 281.181 93.6826 281.764 93.6826 282.479V289H91.8105V287.655H91.7402C91.623 287.896 91.4385 288.136 91.1865 288.376C90.9404 288.616 90.624 288.815 90.2373 288.974C89.8506 289.132 89.3848 289.211 88.8398 289.211ZM89.2529 287.682C89.7861 287.682 90.2402 287.579 90.6152 287.374C90.9902 287.163 91.2773 286.888 91.4766 286.548C91.6758 286.208 91.7754 285.848 91.7754 285.467V284.192C91.7051 284.257 91.5732 284.318 91.3799 284.377C91.1865 284.436 90.9668 284.485 90.7207 284.526C90.4746 284.567 90.2344 284.605 90 284.641C89.7656 284.67 89.5693 284.693 89.4111 284.711C89.042 284.764 88.7051 284.846 88.4004 284.957C88.0957 285.062 87.8496 285.221 87.6621 285.432C87.4805 285.637 87.3896 285.909 87.3896 286.249C87.3896 286.724 87.5654 287.081 87.917 287.321C88.2686 287.562 88.7139 287.682 89.2529 287.682ZM102.867 281.582L101.136 281.881C101.024 281.553 100.816 281.251 100.512 280.976C100.213 280.7 99.7646 280.562 99.167 280.562C98.6279 280.562 98.1768 280.686 97.8135 280.932C97.4561 281.172 97.2773 281.479 97.2773 281.854C97.2773 282.183 97.3975 282.449 97.6377 282.654C97.8838 282.859 98.2734 283.023 98.8066 283.146L100.38 283.498C101.276 283.703 101.947 284.025 102.393 284.465C102.838 284.904 103.061 285.467 103.061 286.152C103.061 286.744 102.891 287.271 102.551 287.734C102.211 288.191 101.739 288.552 101.136 288.815C100.532 289.073 99.835 289.202 99.0439 289.202C97.9424 289.202 97.0459 288.965 96.3545 288.49C95.6631 288.016 95.2383 287.348 95.0801 286.486L96.917 286.205C97.0342 286.686 97.2715 287.049 97.6289 287.295C97.9922 287.541 98.4609 287.664 99.0352 287.664C99.6562 287.664 100.154 287.532 100.529 287.269C100.91 287.005 101.101 286.686 101.101 286.311C101.101 285.689 100.638 285.271 99.7119 285.054L98.0508 284.685C97.1309 284.474 96.4512 284.143 96.0117 283.691C95.5781 283.234 95.3613 282.66 95.3613 281.969C95.3613 281.389 95.5225 280.879 95.8447 280.439C96.1729 280 96.6211 279.66 97.1895 279.42C97.7637 279.174 98.417 279.051 99.1494 279.051C100.216 279.051 101.051 279.282 101.654 279.745C102.264 280.208 102.668 280.82 102.867 281.582ZM109.6 292.674C109.312 292.68 109.052 292.659 108.817 292.612C108.589 292.571 108.413 292.521 108.29 292.463L108.756 290.907L108.888 290.942C109.374 291.065 109.784 291.057 110.118 290.916C110.458 290.781 110.742 290.403 110.971 289.782L111.208 289.132L107.622 279.174H109.67L112.148 286.803H112.254L114.741 279.174H116.789L112.746 290.301C112.559 290.816 112.321 291.25 112.034 291.602C111.747 291.959 111.401 292.226 110.997 292.401C110.599 292.583 110.133 292.674 109.6 292.674ZM121.614 289.202C120.694 289.202 119.889 288.991 119.197 288.569C118.512 288.147 117.979 287.556 117.598 286.794C117.223 286.032 117.035 285.147 117.035 284.14C117.035 283.12 117.223 282.229 117.598 281.468C117.979 280.7 118.512 280.105 119.197 279.684C119.889 279.262 120.694 279.051 121.614 279.051C122.54 279.051 123.346 279.262 124.031 279.684C124.717 280.105 125.25 280.7 125.631 281.468C126.012 282.229 126.202 283.12 126.202 284.14C126.202 285.147 126.012 286.032 125.631 286.794C125.25 287.556 124.717 288.147 124.031 288.569C123.346 288.991 122.54 289.202 121.614 289.202ZM121.614 287.594C122.218 287.594 122.716 287.436 123.108 287.119C123.501 286.803 123.791 286.384 123.979 285.862C124.172 285.335 124.269 284.761 124.269 284.14C124.269 283.507 124.172 282.927 123.979 282.399C123.791 281.872 123.501 281.45 123.108 281.134C122.716 280.817 122.218 280.659 121.614 280.659C121.017 280.659 120.521 280.817 120.129 281.134C119.742 281.45 119.452 281.872 119.259 282.399C119.065 282.927 118.969 283.507 118.969 284.14C118.969 284.761 119.065 285.335 119.259 285.862C119.452 286.384 119.742 286.803 120.129 287.119C120.521 287.436 121.017 287.594 121.614 287.594ZM133.805 284.939V279.174H135.703V289H133.84V287.295H133.734C133.5 287.816 133.137 288.253 132.645 288.604C132.152 288.956 131.537 289.129 130.799 289.123C130.166 289.123 129.606 288.985 129.12 288.71C128.64 288.435 128.262 288.021 127.986 287.471C127.717 286.92 127.582 286.237 127.582 285.423V279.174H129.48V285.203C129.48 285.865 129.668 286.396 130.043 286.794C130.418 287.192 130.901 287.389 131.493 287.383C131.851 287.383 132.205 287.295 132.557 287.119C132.914 286.943 133.21 286.674 133.444 286.311C133.685 285.947 133.805 285.49 133.805 284.939ZM141.539 292.674V279.174H143.385V280.773H143.543C143.66 280.568 143.821 280.331 144.026 280.062C144.237 279.792 144.53 279.558 144.905 279.358C145.28 279.153 145.77 279.051 146.373 279.051C147.164 279.051 147.867 279.25 148.482 279.648C149.104 280.047 149.593 280.624 149.95 281.38C150.308 282.136 150.486 283.047 150.486 284.113C150.486 285.168 150.311 286.076 149.959 286.838C149.607 287.594 149.121 288.177 148.5 288.587C147.885 288.991 147.179 289.193 146.382 289.193C145.79 289.193 145.304 289.094 144.923 288.895C144.548 288.689 144.252 288.452 144.035 288.183C143.824 287.913 143.66 287.676 143.543 287.471H143.438V292.674H141.539ZM145.969 287.567C146.537 287.567 147.012 287.415 147.393 287.11C147.773 286.806 148.061 286.393 148.254 285.871C148.453 285.344 148.553 284.752 148.553 284.096C148.553 283.445 148.456 282.862 148.263 282.347C148.069 281.831 147.782 281.424 147.401 281.125C147.021 280.826 146.543 280.677 145.969 280.677C145.412 280.677 144.943 280.82 144.562 281.107C144.182 281.389 143.892 281.787 143.692 282.303C143.499 282.812 143.402 283.41 143.402 284.096C143.402 284.781 143.502 285.385 143.701 285.906C143.9 286.428 144.19 286.835 144.571 287.128C144.958 287.421 145.424 287.567 145.969 287.567ZM151.875 289V279.174H153.712V280.747H153.817C153.999 280.22 154.315 279.804 154.767 279.499C155.224 279.188 155.739 279.033 156.313 279.033C156.431 279.033 156.568 279.039 156.727 279.051C156.891 279.057 157.022 279.065 157.122 279.077V280.905C157.046 280.882 156.908 280.858 156.709 280.835C156.516 280.812 156.319 280.8 156.12 280.8C155.669 280.8 155.265 280.896 154.907 281.09C154.556 281.277 154.277 281.538 154.072 281.872C153.873 282.2 153.773 282.581 153.773 283.015V289H151.875ZM161.815 289.202C160.896 289.202 160.09 288.991 159.398 288.569C158.713 288.147 158.18 287.556 157.799 286.794C157.424 286.032 157.236 285.147 157.236 284.14C157.236 283.12 157.424 282.229 157.799 281.468C158.18 280.7 158.713 280.105 159.398 279.684C160.09 279.262 160.896 279.051 161.815 279.051C162.741 279.051 163.547 279.262 164.232 279.684C164.918 280.105 165.451 280.7 165.832 281.468C166.213 282.229 166.403 283.12 166.403 284.14C166.403 285.147 166.213 286.032 165.832 286.794C165.451 287.556 164.918 288.147 164.232 288.569C163.547 288.991 162.741 289.202 161.815 289.202ZM161.815 287.594C162.419 287.594 162.917 287.436 163.31 287.119C163.702 286.803 163.992 286.384 164.18 285.862C164.373 285.335 164.47 284.761 164.47 284.14C164.47 283.507 164.373 282.927 164.18 282.399C163.992 281.872 163.702 281.45 163.31 281.134C162.917 280.817 162.419 280.659 161.815 280.659C161.218 280.659 160.723 280.817 160.33 281.134C159.943 281.45 159.653 281.872 159.46 282.399C159.267 282.927 159.17 283.507 159.17 284.14C159.17 284.761 159.267 285.335 159.46 285.862C159.653 286.384 159.943 286.803 160.33 287.119C160.723 287.436 161.218 287.594 161.815 287.594ZM171.879 292.885C170.707 292.885 169.784 292.665 169.11 292.226C168.437 291.786 167.971 291.265 167.713 290.661L169.348 289.984C169.465 290.172 169.62 290.371 169.813 290.582C170.013 290.793 170.279 290.972 170.613 291.118C170.947 291.265 171.378 291.338 171.905 291.338C172.626 291.338 173.224 291.162 173.698 290.811C174.173 290.465 174.41 289.908 174.41 289.141V287.216H174.278C174.173 287.421 174.012 287.652 173.795 287.91C173.578 288.162 173.282 288.382 172.907 288.569C172.532 288.757 172.043 288.851 171.439 288.851C170.666 288.851 169.969 288.669 169.348 288.306C168.732 287.937 168.24 287.397 167.871 286.688C167.508 285.974 167.326 285.095 167.326 284.052C167.326 283.009 167.505 282.115 167.862 281.371C168.226 280.621 168.718 280.047 169.339 279.648C169.96 279.25 170.666 279.051 171.457 279.051C172.066 279.051 172.559 279.153 172.934 279.358C173.314 279.558 173.61 279.792 173.821 280.062C174.032 280.331 174.196 280.568 174.313 280.773H174.454V279.174H176.309V289.22C176.309 290.063 176.112 290.755 175.72 291.294C175.333 291.833 174.806 292.231 174.138 292.489C173.47 292.753 172.717 292.885 171.879 292.885ZM171.861 287.26C172.688 287.26 173.32 286.976 173.76 286.407C174.205 285.833 174.428 285.039 174.428 284.025C174.428 283.363 174.331 282.783 174.138 282.285C173.944 281.781 173.657 281.389 173.276 281.107C172.896 280.82 172.424 280.677 171.861 280.677C171.287 280.677 170.807 280.826 170.42 281.125C170.039 281.418 169.752 281.819 169.559 282.329C169.365 282.833 169.269 283.398 169.269 284.025C169.269 284.664 169.365 285.229 169.559 285.722C169.752 286.208 170.042 286.586 170.429 286.855C170.821 287.125 171.299 287.26 171.861 287.26ZM178.137 289V279.174H179.974V280.747H180.079C180.261 280.22 180.577 279.804 181.028 279.499C181.485 279.188 182.001 279.033 182.575 279.033C182.692 279.033 182.83 279.039 182.988 279.051C183.152 279.057 183.284 279.065 183.384 279.077V280.905C183.308 280.882 183.17 280.858 182.971 280.835C182.777 280.812 182.581 280.8 182.382 280.8C181.931 280.8 181.526 280.896 181.169 281.09C180.817 281.277 180.539 281.538 180.334 281.872C180.135 282.2 180.035 282.581 180.035 283.015V289H178.137ZM188.183 289.202C187.222 289.202 186.39 288.994 185.687 288.578C184.983 288.162 184.441 287.576 184.061 286.82C183.686 286.059 183.498 285.171 183.498 284.157C183.498 283.149 183.683 282.262 184.052 281.494C184.427 280.727 184.951 280.129 185.625 279.701C186.305 279.268 187.102 279.051 188.016 279.051C188.572 279.051 189.111 279.142 189.633 279.323C190.154 279.505 190.623 279.792 191.039 280.185C191.455 280.577 191.783 281.087 192.023 281.714C192.27 282.341 192.393 283.097 192.393 283.981V284.667H184.579V283.234H191.408L190.521 283.709C190.521 283.105 190.427 282.572 190.239 282.109C190.052 281.646 189.771 281.286 189.396 281.028C189.026 280.765 188.566 280.633 188.016 280.633C187.465 280.633 186.993 280.765 186.601 281.028C186.214 281.292 185.918 281.641 185.713 282.074C185.508 282.508 185.405 282.982 185.405 283.498V284.474C185.405 285.147 185.522 285.719 185.757 286.188C185.991 286.656 186.316 287.014 186.732 287.26C187.154 287.506 187.644 287.629 188.2 287.629C188.563 287.629 188.892 287.576 189.185 287.471C189.483 287.365 189.741 287.207 189.958 286.996C190.175 286.785 190.339 286.524 190.45 286.214L192.261 286.557C192.114 287.084 191.856 287.547 191.487 287.945C191.118 288.344 190.652 288.654 190.09 288.877C189.533 289.094 188.897 289.202 188.183 289.202ZM201.076 281.582L199.345 281.881C199.233 281.553 199.025 281.251 198.721 280.976C198.422 280.7 197.974 280.562 197.376 280.562C196.837 280.562 196.386 280.686 196.022 280.932C195.665 281.172 195.486 281.479 195.486 281.854C195.486 282.183 195.606 282.449 195.847 282.654C196.093 282.859 196.482 283.023 197.016 283.146L198.589 283.498C199.485 283.703 200.156 284.025 200.602 284.465C201.047 284.904 201.27 285.467 201.27 286.152C201.27 286.744 201.1 287.271 200.76 287.734C200.42 288.191 199.948 288.552 199.345 288.815C198.741 289.073 198.044 289.202 197.253 289.202C196.151 289.202 195.255 288.965 194.563 288.49C193.872 288.016 193.447 287.348 193.289 286.486L195.126 286.205C195.243 286.686 195.48 287.049 195.838 287.295C196.201 287.541 196.67 287.664 197.244 287.664C197.865 287.664 198.363 287.532 198.738 287.269C199.119 287.005 199.31 286.686 199.31 286.311C199.31 285.689 198.847 285.271 197.921 285.054L196.26 284.685C195.34 284.474 194.66 284.143 194.221 283.691C193.787 283.234 193.57 282.66 193.57 281.969C193.57 281.389 193.731 280.879 194.054 280.439C194.382 280 194.83 279.66 195.398 279.42C195.973 279.174 196.626 279.051 197.358 279.051C198.425 279.051 199.26 279.282 199.863 279.745C200.473 280.208 200.877 280.82 201.076 281.582ZM209.953 281.582L208.222 281.881C208.11 281.553 207.902 281.251 207.598 280.976C207.299 280.7 206.851 280.562 206.253 280.562C205.714 280.562 205.263 280.686 204.899 280.932C204.542 281.172 204.363 281.479 204.363 281.854C204.363 282.183 204.483 282.449 204.724 282.654C204.97 282.859 205.359 283.023 205.893 283.146L207.466 283.498C208.362 283.703 209.033 284.025 209.479 284.465C209.924 284.904 210.146 285.467 210.146 286.152C210.146 286.744 209.977 287.271 209.637 287.734C209.297 288.191 208.825 288.552 208.222 288.815C207.618 289.073 206.921 289.202 206.13 289.202C205.028 289.202 204.132 288.965 203.44 288.49C202.749 288.016 202.324 287.348 202.166 286.486L204.003 286.205C204.12 286.686 204.357 287.049 204.715 287.295C205.078 287.541 205.547 287.664 206.121 287.664C206.742 287.664 207.24 287.532 207.615 287.269C207.996 287.005 208.187 286.686 208.187 286.311C208.187 285.689 207.724 285.271 206.798 285.054L205.137 284.685C204.217 284.474 203.537 284.143 203.098 283.691C202.664 283.234 202.447 282.66 202.447 281.969C202.447 281.389 202.608 280.879 202.931 280.439C203.259 280 203.707 279.66 204.275 279.42C204.85 279.174 205.503 279.051 206.235 279.051C207.302 279.051 208.137 279.282 208.74 279.745C209.35 280.208 209.754 280.82 209.953 281.582Z" fill="#474645"/>
<path d="M153.1 65C152.64 65 152.41 64.83 152.41 64.49V64.4C152.41 64.2 152.6 63.89 152.98 63.47C153.38 63.03 153.58 62.57 153.58 62.09V46.61C153.58 46.11 153.38 45.65 152.98 45.23C152.6 44.81 152.41 44.5 152.41 44.3V44.18C152.41 43.86 152.63 43.7 153.07 43.7H166.45C166.99 43.7 167.3 43.98 167.38 44.54L168.1 48.05C168.2 48.57 168 48.83 167.5 48.83H167.32C167.02 48.83 166.69 48.66 166.33 48.32C165.99 47.96 165.68 47.58 165.4 47.18C165.14 46.76 164.8 46.38 164.38 46.04C163.98 45.68 163.56 45.5 163.12 45.5H159.28C158.48 45.5 158.08 45.93 158.08 46.79V53.24H161.95C162.29 53.24 162.58 53.13 162.82 52.91C163.08 52.67 163.27 52.42 163.39 52.16C163.51 51.88 163.65 51.63 163.81 51.41C163.99 51.17 164.16 51.05 164.32 51.05H164.56C164.9 51.05 165.07 51.26 165.07 51.68V56.51C165.07 56.93 164.9 57.14 164.56 57.14H164.32C164.16 57.14 163.99 57.03 163.81 56.81C163.65 56.59 163.51 56.36 163.39 56.12C163.27 55.86 163.08 55.62 162.82 55.4C162.58 55.18 162.29 55.07 161.95 55.07H158.08L158.05 61.34C158.05 61.84 158.18 62.28 158.44 62.66C158.7 63.02 159.1 63.2 159.64 63.2H164.05C164.49 63.2 164.9 63.02 165.28 62.66C165.68 62.3 165.99 61.9 166.21 61.46C166.45 61.02 166.74 60.62 167.08 60.26C167.42 59.9 167.76 59.72 168.1 59.72H168.34C168.54 59.72 168.69 59.8 168.79 59.96C168.89 60.12 168.92 60.3 168.88 60.5L168.22 64.13C168.1 64.71 167.78 65 167.26 65H153.1ZM183.859 62C183.919 62.46 184.029 62.83 184.189 63.11C184.369 63.39 184.549 63.57 184.729 63.65C184.909 63.71 185.069 63.79 185.209 63.89C185.349 63.99 185.419 64.13 185.419 64.31C185.419 64.89 184.459 65.18 182.539 65.18C181.659 65.18 181.009 65.07 180.589 64.85C180.189 64.61 179.949 64.18 179.869 63.56C179.089 64.72 177.759 65.3 175.879 65.3C174.199 65.3 172.839 64.91 171.799 64.13C170.759 63.35 170.239 62.23 170.239 60.77C170.219 59.33 170.729 58.21 171.769 57.41C172.809 56.61 174.109 56.21 175.669 56.21C176.989 56.21 178.079 56.51 178.939 57.11L178.909 56.75C178.709 54.85 178.429 53.51 178.069 52.73C177.709 51.95 177.099 51.56 176.239 51.56C175.699 51.56 175.259 51.76 174.919 52.16C174.579 52.56 174.339 53 174.199 53.48C174.059 53.96 173.829 54.4 173.509 54.8C173.189 55.2 172.779 55.4 172.279 55.4C171.739 55.4 171.299 55.25 170.959 54.95C170.639 54.63 170.479 54.22 170.479 53.72C170.479 52.68 171.029 51.85 172.129 51.23C173.249 50.61 174.619 50.3 176.239 50.3C178.179 50.3 179.769 50.85 181.009 51.95C182.249 53.05 182.979 54.55 183.199 56.45L183.859 62ZM177.199 63.98C177.859 63.98 178.389 63.71 178.789 63.17C179.189 62.61 179.369 61.98 179.329 61.28L179.239 60.23C179.159 59.37 178.899 58.71 178.459 58.25C178.039 57.79 177.509 57.56 176.869 57.56C176.229 57.56 175.699 57.79 175.279 58.25C174.879 58.71 174.679 59.32 174.679 60.08C174.679 61.16 174.909 62.08 175.369 62.84C175.849 63.6 176.459 63.98 177.199 63.98ZM195.445 50.3C196.305 50.3 196.975 50.56 197.455 51.08C197.955 51.58 198.205 52.23 198.205 53.03C198.205 54.61 197.565 55.4 196.285 55.4C195.765 55.4 195.355 55.27 195.055 55.01C194.775 54.73 194.605 54.43 194.545 54.11C194.485 53.79 194.365 53.5 194.185 53.24C194.005 52.96 193.735 52.82 193.375 52.82C192.835 52.82 192.435 53.14 192.175 53.78C191.915 54.42 191.785 55.2 191.785 56.12V62.12C191.785 62.48 191.905 62.8 192.145 63.08C192.405 63.34 192.655 63.57 192.895 63.77C193.155 63.97 193.285 64.17 193.285 64.37V64.49C193.285 64.83 193.065 65 192.625 65H187.075C186.615 65 186.385 64.83 186.385 64.49V64.37C186.385 64.17 186.575 63.86 186.955 63.44C187.355 63.02 187.555 62.58 187.555 62.12V55.1C187.555 54.62 187.325 54.19 186.865 53.81C186.405 53.43 186.175 53.14 186.175 52.94V52.82C186.175 52.54 186.385 52.3 186.805 52.1L190.405 50.42C191.045 50.12 191.365 50.32 191.365 51.02V53.27C192.045 51.29 193.405 50.3 195.445 50.3ZM214.638 62.09C214.678 62.57 214.868 63.02 215.208 63.44C215.548 63.86 215.718 64.18 215.718 64.4V64.52C215.718 64.86 215.488 65.03 215.028 65.03H209.838C209.378 65.03 209.148 64.86 209.148 64.52V64.4C209.148 64.2 209.328 63.89 209.688 63.47C210.068 63.05 210.248 62.59 210.228 62.09L209.928 56.54C209.788 53.52 208.918 52.01 207.318 52.01C206.518 52.01 205.888 52.31 205.428 52.91C204.988 53.51 204.768 54.31 204.768 55.31V62.12C204.768 62.6 204.978 63.05 205.398 63.47C205.838 63.89 206.058 64.2 206.058 64.4V64.52C206.058 64.86 205.828 65.03 205.368 65.03H199.788C199.328 65.03 199.098 64.86 199.098 64.52V64.4C199.098 64.2 199.308 63.89 199.728 63.47C200.168 63.05 200.388 62.6 200.388 62.12V55.13C200.388 54.83 200.308 54.56 200.148 54.32C200.008 54.08 199.838 53.91 199.638 53.81C199.458 53.69 199.288 53.55 199.128 53.39C198.988 53.23 198.918 53.07 198.918 52.91V52.79C198.918 52.57 199.118 52.36 199.518 52.16L203.088 50.42C203.428 50.26 203.678 50.25 203.838 50.39C204.018 50.51 204.108 50.73 204.108 51.05V52.73C204.968 51.11 206.448 50.3 208.548 50.3C210.068 50.3 211.358 50.81 212.418 51.83C213.498 52.85 214.118 54.47 214.278 56.69L214.638 62.09ZM250.772 43.7C251.212 43.7 251.432 43.86 251.432 44.18V44.3C251.432 44.52 251.192 44.83 250.712 45.23C250.232 45.61 249.902 46.06 249.722 46.58L243.992 63.74C243.712 64.58 243.132 65 242.252 65C241.432 65 240.882 64.61 240.602 63.83L236.852 52.58L233.042 63.74C232.782 64.58 232.262 65 231.482 65C231.042 65 230.702 64.91 230.462 64.73C230.242 64.55 230.032 64.25 229.832 63.83L222.782 46.61C222.562 46.09 222.202 45.64 221.702 45.26C221.202 44.86 220.952 44.53 220.952 44.27V44.18C220.952 43.86 221.172 43.7 221.612 43.7H227.942C228.402 43.7 228.632 43.86 228.632 44.18V44.3C228.632 44.5 228.502 44.71 228.242 44.93C228.002 45.13 227.792 45.37 227.612 45.65C227.432 45.91 227.412 46.23 227.552 46.61L232.292 59.42L235.742 49.22L234.872 46.58C234.732 46.14 234.392 45.71 233.852 45.29C233.312 44.85 233.042 44.51 233.042 44.27V44.18C233.042 43.86 233.252 43.7 233.672 43.7H239.972C240.392 43.7 240.602 43.86 240.602 44.18V44.27C240.602 44.43 240.512 44.59 240.332 44.75C240.172 44.91 239.992 45.05 239.792 45.17C239.612 45.27 239.462 45.45 239.342 45.71C239.242 45.95 239.242 46.24 239.342 46.58L243.212 59.33L247.262 46.58C247.362 46.3 247.362 46.04 247.262 45.8C247.162 45.56 247.022 45.38 246.842 45.26C246.662 45.14 246.492 44.99 246.332 44.81C246.172 44.63 246.092 44.46 246.092 44.3V44.21C246.092 43.87 246.312 43.7 246.752 43.7H250.772ZM267.746 62.06C267.786 62.54 267.976 62.99 268.316 63.41C268.656 63.83 268.826 64.15 268.826 64.37V64.49C268.826 64.83 268.606 65 268.166 65H262.946C262.506 65 262.286 64.83 262.286 64.49V64.37C262.286 64.17 262.466 63.86 262.826 63.44C263.206 63.02 263.386 62.57 263.366 62.09L263.066 56.33C262.926 53.45 262.056 52.01 260.456 52.01C259.656 52.01 259.026 52.31 258.566 52.91C258.126 53.51 257.906 54.31 257.906 55.31V62.12C257.906 62.58 258.116 63.02 258.536 63.44C258.976 63.86 259.196 64.17 259.196 64.37V64.49C259.196 64.83 258.956 65 258.476 65H252.926C252.466 65 252.236 64.83 252.236 64.49V64.37C252.236 64.17 252.446 63.86 252.866 63.44C253.286 63.02 253.496 62.58 253.496 62.12V47.18C253.496 46.7 253.266 46.27 252.806 45.89C252.366 45.51 252.146 45.22 252.146 45.02V44.93C252.146 44.63 252.346 44.38 252.746 44.18L256.706 42.44C257.046 42.3 257.306 42.28 257.486 42.38C257.686 42.48 257.786 42.68 257.786 42.98L257.756 51.98C258.696 50.86 260.006 50.3 261.686 50.3C263.206 50.3 264.496 50.8 265.556 51.8C266.616 52.78 267.216 54.33 267.356 56.45L267.746 62.06ZM275.721 47.75C275.201 48.23 274.501 48.47 273.621 48.47C272.741 48.47 272.021 48.23 271.461 47.75C270.921 47.25 270.651 46.61 270.651 45.83C270.651 45.07 270.921 44.45 271.461 43.97C272.021 43.47 272.741 43.22 273.621 43.22C274.501 43.22 275.201 43.47 275.721 43.97C276.261 44.45 276.531 45.07 276.531 45.83C276.531 46.61 276.261 47.25 275.721 47.75ZM270.891 65C270.451 65 270.231 64.83 270.231 64.49V64.37C270.231 64.17 270.421 63.86 270.801 63.44C271.181 63.02 271.371 62.57 271.371 62.09V55.31C271.371 54.81 271.181 54.34 270.801 53.9C270.421 53.46 270.231 53.16 270.231 53V52.91C270.231 52.71 270.441 52.5 270.861 52.28L274.611 50.42C274.991 50.26 275.291 50.25 275.511 50.39C275.731 50.51 275.841 50.72 275.841 51.02V62.09C275.841 62.57 276.051 63.02 276.471 63.44C276.891 63.86 277.101 64.17 277.101 64.37V64.49C277.101 64.83 276.871 65 276.411 65H270.891ZM279.265 65C278.805 65 278.575 64.83 278.575 64.49V64.37C278.575 64.17 278.765 63.86 279.145 63.44C279.545 63.02 279.745 62.58 279.745 62.12V47.36C279.745 46.84 279.545 46.37 279.145 45.95C278.765 45.53 278.575 45.24 278.575 45.08V44.96C278.575 44.72 278.775 44.52 279.175 44.36L282.955 42.5C283.355 42.34 283.655 42.32 283.855 42.44C284.075 42.56 284.185 42.76 284.185 43.04V62.12C284.185 62.58 284.395 63.02 284.815 63.44C285.255 63.86 285.475 64.17 285.475 64.37V64.49C285.475 64.83 285.245 65 284.785 65H279.265ZM299.225 60.44C299.405 60.2 299.625 60.12 299.885 60.2C300.145 60.28 300.265 60.47 300.245 60.77C300.145 61.81 299.545 62.83 298.445 63.83C297.345 64.81 295.915 65.3 294.155 65.3C292.035 65.3 290.295 64.6 288.935 63.2C287.575 61.8 286.895 59.96 286.895 57.68C286.895 55.54 287.605 53.78 289.025 52.4C290.445 51 292.155 50.3 294.155 50.3C295.975 50.3 297.375 50.73 298.355 51.59C299.335 52.45 299.825 53.44 299.825 54.56C299.825 55.48 299.385 56.14 298.505 56.54L291.845 59.57C292.665 61.31 293.985 62.18 295.805 62.18C296.565 62.18 297.245 62.02 297.845 61.7C298.465 61.36 298.925 60.94 299.225 60.44ZM293.615 51.62C292.835 51.62 292.215 52 291.755 52.76C291.295 53.5 291.065 54.45 291.065 55.61C291.065 56.59 291.165 57.45 291.365 58.19L295.235 56.24C295.755 55.98 296.015 55.51 296.015 54.83C296.015 54.15 295.795 53.45 295.355 52.73C294.915 51.99 294.335 51.62 293.615 51.62ZM170.65 79.7C171.09 79.7 171.31 79.86 171.31 80.18V80.3C171.31 80.54 171.07 80.86 170.59 81.26C170.13 81.66 169.76 82.1 169.48 82.58L163.84 92.33V98.12C163.84 98.58 164.05 99.03 164.47 99.47C164.89 99.89 165.1 100.2 165.1 100.4V100.49C165.1 100.83 164.88 101 164.44 101H158.77C158.33 101 158.11 100.83 158.11 100.49V100.4C158.11 100.2 158.3 99.89 158.68 99.47C159.06 99.03 159.25 98.58 159.25 98.12V92.66L152.89 82.58C152.63 82.16 152.24 81.74 151.72 81.32C151.2 80.9 150.94 80.56 150.94 80.3V80.18C150.94 79.86 151.18 79.7 151.66 79.7H158.47C158.93 79.7 159.16 79.86 159.16 80.18V80.3C159.16 80.5 159.01 80.71 158.71 80.93C158.43 81.15 158.19 81.4 157.99 81.68C157.79 81.94 157.79 82.24 157.99 82.58L162.61 90.68L167.23 82.58C167.41 82.3 167.45 82.04 167.35 81.8C167.25 81.56 167.1 81.38 166.9 81.26C166.7 81.12 166.5 80.97 166.3 80.81C166.12 80.63 166.03 80.46 166.03 80.3V80.18C166.03 79.86 166.25 79.7 166.69 79.7H170.65ZM176.874 101.3C174.494 101.3 172.524 100.57 170.964 99.11C169.424 97.63 168.654 95.83 168.654 93.71C168.654 91.57 169.414 89.8 170.934 88.4C172.454 87 174.284 86.3 176.424 86.3C178.724 86.3 180.644 87.03 182.184 88.49C183.724 89.93 184.494 91.72 184.494 93.86C184.494 96 183.764 97.78 182.304 99.2C180.864 100.6 179.054 101.3 176.874 101.3ZM177.414 99.98C178.234 99.98 178.864 99.6 179.304 98.84C179.764 98.08 179.994 97.01 179.994 95.63C179.994 94.49 179.824 93.32 179.484 92.12C179.164 90.9 178.674 89.85 178.014 88.97C177.354 88.07 176.624 87.62 175.824 87.62C173.984 87.62 173.064 89.08 173.064 92C173.064 93.08 173.224 94.22 173.544 95.42C173.884 96.62 174.394 97.68 175.074 98.6C175.774 99.52 176.554 99.98 177.414 99.98ZM200.788 97.94C200.788 98.48 200.858 98.89 200.998 99.17C201.158 99.43 201.328 99.58 201.508 99.62C201.688 99.64 201.848 99.7 201.988 99.8C202.148 99.9 202.228 100.07 202.228 100.31C202.228 100.89 201.338 101.18 199.558 101.18C198.678 101.18 198.018 101.04 197.578 100.76C197.158 100.46 196.928 99.95 196.888 99.23C196.048 100.61 194.598 101.3 192.538 101.3C190.918 101.3 189.578 100.76 188.518 99.68C187.478 98.58 186.958 97.04 186.958 95.06V89.99C186.958 89.49 186.758 89.03 186.358 88.61C185.978 88.17 185.788 87.87 185.788 87.71V87.62C185.788 87.26 185.998 87.05 186.418 86.99L190.198 86.42C191.018 86.32 191.428 86.5 191.428 86.96L191.338 95.51C191.338 98.23 192.168 99.59 193.828 99.59C194.568 99.59 195.178 99.27 195.658 98.63C196.158 97.97 196.408 97.12 196.408 96.08V89.99C196.408 89.49 196.208 89.03 195.808 88.61C195.408 88.17 195.208 87.87 195.208 87.71V87.62C195.208 87.26 195.408 87.05 195.808 86.99L199.648 86.42C200.408 86.34 200.788 86.52 200.788 86.96V97.94ZM210.843 101C210.403 101 210.183 100.83 210.183 100.49V100.4C210.183 100.2 210.373 99.89 210.753 99.47C211.133 99.03 211.323 98.58 211.323 98.12V82.58C211.323 82.1 211.133 81.66 210.753 81.26C210.373 80.84 210.183 80.52 210.183 80.3V80.18C210.183 79.86 210.403 79.7 210.843 79.7H216.483C216.963 79.7 217.203 79.86 217.203 80.18V80.3C217.203 80.52 216.983 80.84 216.543 81.26C216.123 81.66 215.913 82.1 215.913 82.58V97.49C215.913 97.97 216.013 98.37 216.213 98.69C216.433 99.01 216.753 99.17 217.173 99.17H221.493C221.993 99.17 222.453 98.97 222.873 98.57C223.293 98.15 223.613 97.7 223.833 97.22C224.073 96.74 224.333 96.3 224.613 95.9C224.913 95.48 225.203 95.27 225.483 95.27H225.843C226.283 95.27 226.453 95.49 226.353 95.93L225.573 100.13C225.453 100.71 225.143 101 224.643 101H210.843ZM239.665 96.44C239.845 96.2 240.065 96.12 240.325 96.2C240.585 96.28 240.705 96.47 240.685 96.77C240.585 97.81 239.985 98.83 238.885 99.83C237.785 100.81 236.355 101.3 234.595 101.3C232.475 101.3 230.735 100.6 229.375 99.2C228.015 97.8 227.335 95.96 227.335 93.68C227.335 91.54 228.045 89.78 229.465 88.4C230.885 87 232.595 86.3 234.595 86.3C236.415 86.3 237.815 86.73 238.795 87.59C239.775 88.45 240.265 89.44 240.265 90.56C240.265 91.48 239.825 92.14 238.945 92.54L232.285 95.57C233.105 97.31 234.425 98.18 236.245 98.18C237.005 98.18 237.685 98.02 238.285 97.7C238.905 97.36 239.365 96.94 239.665 96.44ZM234.055 87.62C233.275 87.62 232.655 88 232.195 88.76C231.735 89.5 231.505 90.45 231.505 91.61C231.505 92.59 231.605 93.45 231.805 94.19L235.675 92.24C236.195 91.98 236.455 91.51 236.455 90.83C236.455 90.15 236.235 89.45 235.795 88.73C235.355 87.99 234.775 87.62 234.055 87.62ZM255.694 98C255.754 98.46 255.864 98.83 256.024 99.11C256.204 99.39 256.384 99.57 256.564 99.65C256.744 99.71 256.904 99.79 257.044 99.89C257.184 99.99 257.254 100.13 257.254 100.31C257.254 100.89 256.294 101.18 254.374 101.18C253.494 101.18 252.844 101.07 252.424 100.85C252.024 100.61 251.784 100.18 251.704 99.56C250.924 100.72 249.594 101.3 247.714 101.3C246.034 101.3 244.674 100.91 243.634 100.13C242.594 99.35 242.074 98.23 242.074 96.77C242.054 95.33 242.564 94.21 243.604 93.41C244.644 92.61 245.944 92.21 247.504 92.21C248.824 92.21 249.914 92.51 250.774 93.11L250.744 92.75C250.544 90.85 250.264 89.51 249.904 88.73C249.544 87.95 248.934 87.56 248.074 87.56C247.534 87.56 247.094 87.76 246.754 88.16C246.414 88.56 246.174 89 246.034 89.48C245.894 89.96 245.664 90.4 245.344 90.8C245.024 91.2 244.614 91.4 244.114 91.4C243.574 91.4 243.134 91.25 242.794 90.95C242.474 90.63 242.314 90.22 242.314 89.72C242.314 88.68 242.864 87.85 243.964 87.23C245.084 86.61 246.454 86.3 248.074 86.3C250.014 86.3 251.604 86.85 252.844 87.95C254.084 89.05 254.814 90.55 255.034 92.45L255.694 98ZM249.034 99.98C249.694 99.98 250.224 99.71 250.624 99.17C251.024 98.61 251.204 97.98 251.164 97.28L251.074 96.23C250.994 95.37 250.734 94.71 250.294 94.25C249.874 93.79 249.344 93.56 248.704 93.56C248.064 93.56 247.534 93.79 247.114 94.25C246.714 94.71 246.514 95.32 246.514 96.08C246.514 97.16 246.744 98.08 247.204 98.84C247.684 99.6 248.294 99.98 249.034 99.98ZM267.28 86.3C268.14 86.3 268.81 86.56 269.29 87.08C269.79 87.58 270.04 88.23 270.04 89.03C270.04 90.61 269.4 91.4 268.12 91.4C267.6 91.4 267.19 91.27 266.89 91.01C266.61 90.73 266.44 90.43 266.38 90.11C266.32 89.79 266.2 89.5 266.02 89.24C265.84 88.96 265.57 88.82 265.21 88.82C264.67 88.82 264.27 89.14 264.01 89.78C263.75 90.42 263.62 91.2 263.62 92.12V98.12C263.62 98.48 263.74 98.8 263.98 99.08C264.24 99.34 264.49 99.57 264.73 99.77C264.99 99.97 265.12 100.17 265.12 100.37V100.49C265.12 100.83 264.9 101 264.46 101H258.91C258.45 101 258.22 100.83 258.22 100.49V100.37C258.22 100.17 258.41 99.86 258.79 99.44C259.19 99.02 259.39 98.58 259.39 98.12V91.1C259.39 90.62 259.16 90.19 258.7 89.81C258.24 89.43 258.01 89.14 258.01 88.94V88.82C258.01 88.54 258.22 88.3 258.64 88.1L262.24 86.42C262.88 86.12 263.2 86.32 263.2 87.02V89.27C263.88 87.29 265.24 86.3 267.28 86.3ZM286.473 98.09C286.513 98.57 286.703 99.02 287.043 99.44C287.383 99.86 287.553 100.18 287.553 100.4V100.52C287.553 100.86 287.323 101.03 286.863 101.03H281.673C281.213 101.03 280.983 100.86 280.983 100.52V100.4C280.983 100.2 281.163 99.89 281.523 99.47C281.903 99.05 282.083 98.59 282.063 98.09L281.763 92.54C281.623 89.52 280.753 88.01 279.153 88.01C278.353 88.01 277.723 88.31 277.263 88.91C276.823 89.51 276.603 90.31 276.603 91.31V98.12C276.603 98.6 276.813 99.05 277.233 99.47C277.673 99.89 277.893 100.2 277.893 100.4V100.52C277.893 100.86 277.663 101.03 277.203 101.03H271.623C271.163 101.03 270.933 100.86 270.933 100.52V100.4C270.933 100.2 271.143 99.89 271.563 99.47C272.003 99.05 272.223 98.6 272.223 98.12V91.13C272.223 90.83 272.143 90.56 271.983 90.32C271.843 90.08 271.673 89.91 271.473 89.81C271.293 89.69 271.123 89.55 270.963 89.39C270.823 89.23 270.753 89.07 270.753 88.91V88.79C270.753 88.57 270.953 88.36 271.353 88.16L274.923 86.42C275.263 86.26 275.513 86.25 275.673 86.39C275.853 86.51 275.943 86.73 275.943 87.05V88.73C276.803 87.11 278.283 86.3 280.383 86.3C281.903 86.3 283.193 86.81 284.253 87.83C285.333 88.85 285.953 90.47 286.113 92.69L286.473 98.09Z" fill="black"/>
<defs>
<clipPath id="clip0_0_1">
<rect width="341" height="330" rx="24" fill="white"/>
</clipPath>
</defs>
</svg>
