<svg width="279" height="245" viewBox="0 0 279 245" fill="none" xmlns="http://www.w3.org/2000/svg">
<path d="M15.6853 4.38616C15.1638 1.33371 18.7212 -0.720124 21.104 1.25767C36.0867 13.6939 55.7548 18.9639 74.9484 15.6853C78.0009 15.1638 80.0547 18.7212 78.0769 21.104C65.6407 36.0867 60.3706 55.7548 63.6493 74.9484C64.1708 78.0009 60.6134 80.0547 58.2306 78.0769C43.2478 65.6407 23.5797 60.3706 4.38616 63.6493C1.33371 64.1708 -0.720124 60.6134 1.25767 58.2306C13.6939 43.2478 18.9639 23.5797 15.6853 4.38616Z" fill="#FBFFE0"/>
<rect x="96.2344" y="50" width="140" height="140" rx="20.8" transform="rotate(15 96.2344 50)" fill="#FBFFE0" fill-opacity="0.7"/>
<circle cx="255" cy="221" r="24" fill="#FBFFE0"/>
</svg>
