<svg width="300" height="188" viewBox="0 0 300 188" fill="none" xmlns="http://www.w3.org/2000/svg">
<path d="M167.027 125.242L146.888 111.027" stroke="#343433" stroke-width="7.61156" stroke-linecap="round" stroke-linejoin="round"/>
<path d="M233.34 135.015C216.322 136.282 203.442 154.889 216.162 175.174C213.519 176.804 209.778 180.152 209.778 180.152" stroke="#343433" stroke-width="7.61156" stroke-linecap="round" stroke-linejoin="round"/>
<path fill-rule="evenodd" clip-rule="evenodd" d="M208.944 168.89C209.525 170.603 210.257 172.331 211.15 174.064C210.579 174.507 210.037 174.943 209.561 175.335C208.898 175.88 208.323 176.371 207.912 176.726C207.707 176.904 207.542 177.049 207.427 177.15C207.369 177.201 207.324 177.241 207.293 177.269L207.256 177.302L207.245 177.311L207.242 177.314L207.24 177.315C207.24 177.315 207.24 177.316 209.778 180.152L207.24 177.315C205.674 178.717 205.54 181.123 206.942 182.69C208.344 184.256 210.75 184.389 212.316 182.988L212.322 182.982L212.348 182.959C212.373 182.937 212.411 182.904 212.46 182.86C212.56 182.771 212.708 182.642 212.895 182.481C213.268 182.157 213.793 181.709 214.396 181.214C215.641 180.19 217.071 179.085 218.159 178.413C219.023 177.881 219.638 177.026 219.868 176.038C220.099 175.05 219.925 174.012 219.387 173.152C217.938 170.843 216.872 168.587 216.137 166.407L208.944 168.89Z" fill="#FFCF7B"/>
<path d="M207.24 177.315L207.242 177.314L207.245 177.311L207.256 177.302L207.293 177.269C207.324 177.241 207.369 177.201 207.427 177.15C207.542 177.049 207.707 176.904 207.912 176.726C208.323 176.371 208.898 175.88 209.561 175.335C210.037 174.943 210.579 174.507 211.15 174.064C210.257 172.331 209.525 170.603 208.944 168.89L216.137 166.407C216.872 168.587 217.938 170.843 219.387 173.152C219.925 174.012 220.099 175.05 219.868 176.038C219.638 177.026 219.023 177.881 218.159 178.413C217.071 179.085 215.641 180.19 214.396 181.214C213.793 181.709 213.268 182.157 212.895 182.481C212.708 182.642 212.56 182.771 212.46 182.86C212.411 182.904 212.373 182.937 212.348 182.959L212.322 182.982L212.316 182.988C210.75 184.389 208.344 184.256 206.942 182.69C205.54 181.123 205.674 178.717 207.24 177.315ZM207.24 177.315C207.24 177.315 207.24 177.316 209.778 180.152L207.24 177.315Z" stroke="#FFCF7B" stroke-width="0.259292"/>
<path d="M245.51 128.028C228.424 143.232 225.834 165.68 250.266 174.497C248.839 177.674 247.661 183.404 247.661 183.404" stroke="#343433" stroke-width="7.61156" stroke-linecap="round" stroke-linejoin="round"/>
<path fill-rule="evenodd" clip-rule="evenodd" d="M240.224 173.745C241.807 174.801 243.55 175.77 245.454 176.642C245.181 177.542 244.941 178.42 244.743 179.189C244.495 180.15 244.294 181.004 244.154 181.619C244.085 181.927 244.03 182.176 243.992 182.351C243.974 182.439 243.959 182.508 243.949 182.556L243.937 182.613L243.934 182.629L243.933 182.634L243.932 182.636L243.932 182.637C243.932 182.637 243.932 182.637 247.66 183.404L243.932 182.637C243.508 184.696 244.834 186.708 246.893 187.131C248.952 187.555 250.964 186.229 251.387 184.171L251.388 184.17L251.389 184.162L251.398 184.121C251.406 184.084 251.418 184.026 251.434 183.951C251.467 183.8 251.515 183.577 251.578 183.299C251.705 182.74 251.888 181.963 252.112 181.094C252.579 179.289 253.165 177.329 253.737 176.055C254.171 175.089 254.183 173.985 253.769 173.01C253.355 172.034 252.554 171.276 251.557 170.916C248.682 169.879 246.274 168.663 244.281 167.313L240.224 173.745Z" fill="#FFCF7B" stroke="#FFCF7B" stroke-width="0.259292"/>
<path d="M149.05 122.184C149.05 129.126 150.017 135.844 151.824 142.208C152.549 144.761 154.94 146.43 157.594 146.43H185.901C193.944 146.43 201.877 148.292 209.08 151.87L222.253 158.414L235.427 151.87C242.63 148.292 250.563 146.43 258.606 146.43H286.913C289.567 146.43 291.958 144.761 292.683 142.208C294.49 135.844 295.457 129.126 295.457 122.184C295.457 122.036 295.456 121.885 295.455 121.733C295.433 117.896 292.807 114.644 289.149 113.483C281.352 111.007 272.965 111.116 265.235 113.794L259.09 115.922L283.739 91.2793C285.68 89.3389 286.151 86.3447 284.717 84.0048C281.098 78.0978 276.663 72.7431 271.568 68.0983C269.233 65.9694 265.662 66.2058 263.427 68.4398L237.513 94.3479V55.6578C237.513 52.7046 235.449 50.1253 232.525 49.7147C229.169 49.2436 225.74 49 222.255 49C218.769 49 215.34 49.2436 211.984 49.7147C209.06 50.1253 206.996 52.7046 206.996 55.6578V94.35L181.08 68.4403C178.845 66.2061 175.274 65.9699 172.939 68.0992C167.846 72.7432 163.411 78.0963 159.791 84.0022C158.356 86.3423 158.827 89.3371 160.769 91.2777L184.305 115.922L179.274 113.794C171.544 111.116 163.155 111.007 155.358 113.483C151.701 114.644 149.074 117.896 149.052 121.734C149.051 121.886 149.05 122.036 149.05 122.184Z" fill="#DBD3FC"/>
<path d="M198.869 71.8363L193.823 90.6688C189.072 108.398 194.814 121.453 200.467 129.283C206.558 137.712 213.729 141.944 214.043 142.122C214.474 142.373 214.964 142.504 215.462 142.502C215.823 142.506 224.14 142.424 233.639 138.171C242.43 134.212 253.929 125.777 258.68 108.047L263.726 89.2147C264.109 87.7877 263.906 86.2665 263.163 84.9858C262.419 83.7051 261.197 82.7699 259.763 82.3858L205.716 67.9038C204.282 67.5197 202.756 67.7182 201.472 68.4557C200.188 69.1932 199.251 70.4092 198.869 71.8363Z" fill="#9E8BE6"/>
<path d="M229.943 103.432C229.353 112.14 239.524 112.993 240.391 104.308C240.982 95.6002 230.811 94.7475 229.943 103.432Z" fill="white"/>
<path d="M208.435 101.628C207.845 110.336 218.016 111.189 218.883 102.504C219.474 93.7963 209.303 92.9436 208.435 101.628Z" fill="white"/>
<path d="M295.459 139.382C295.459 139.382 289.948 135.364 286.969 132.194C284.248 129.299 280.813 124.102 280.813 124.102" stroke="#343433" stroke-width="7.61156" stroke-linecap="round" stroke-linejoin="round"/>
<path d="M228.323 21.4088C230.537 19.2282 232.442 20.8857 234.198 22.5813C235.067 20.301 236.099 18.0033 239.017 19.0378C241.772 20.4549 240.786 22.8115 239.716 24.9951C242.151 25.116 244.695 25.3929 244.6 28.4919C244.101 31.5469 241.56 31.3364 239.153 30.9926C239.792 33.3421 240.313 35.8416 237.34 36.7098C234.273 37.181 233.691 34.6906 233.271 32.292C231.221 33.6219 229.031 34.8864 227.274 32.325C225.883 29.5625 228.062 28.234 230.212 27.1002C228.312 25.5637 226.426 23.8738 228.32 21.4067L228.323 21.4088Z" fill="#DBD3FC"/>
<path d="M276.008 38.8379C273.491 40.6598 274.81 42.8147 276.19 44.8267C273.797 45.3051 271.36 45.9411 271.895 48.9912C272.836 51.9423 275.324 51.3618 277.654 50.6698C277.37 53.09 277.221 55.6446 280.292 56.0655C283.388 56.0802 283.602 53.5404 283.662 51.1091C285.873 52.1298 288.251 53.0577 289.601 50.2693C290.575 47.324 288.215 46.3374 285.92 45.5237C287.571 43.7234 289.183 41.7735 286.948 39.6159C284.455 37.7865 282.783 39.7147 281.307 41.6463C280.108 39.5175 278.754 37.3771 276.007 38.8352L276.008 38.8379Z" fill="#DBD3FC"/>
<path d="M251.7 27.7967C253.3 25.1327 255.559 26.2624 257.682 27.4657C257.954 25.0403 258.38 22.5586 261.464 22.8311C264.486 23.5158 264.12 26.0442 263.628 28.4258C266.016 27.935 268.548 27.5675 269.23 30.593C269.509 33.6755 266.997 34.106 264.579 34.3733C265.785 36.4889 266.913 38.7793 264.251 40.3628C261.399 41.5843 260.214 39.318 259.207 37.1003C257.554 38.8998 255.75 40.6713 253.41 38.6295C251.374 36.3015 253.152 34.4708 254.951 32.836C252.727 31.8223 250.478 30.6566 251.697 27.7953L251.7 27.7967Z" fill="#DBD3FC"/>
<path d="M53.5 98.909C60.8333 94.6751 70 99.9674 70 108.435L70 163.861C70 172.329 60.8333 177.621 53.5 173.387L5.49999 145.674C-1.83334 141.44 -1.83333 130.856 5.5 126.622L53.5 98.909Z" fill="#C0B3F8"/>
</svg>
