<svg width="384" height="330" viewBox="0 0 384 330" fill="none" xmlns="http://www.w3.org/2000/svg">
<rect width="384" height="330" rx="24" fill="#AF9EEF"/>
<path d="M59.91 43.7C60.37 43.7 60.6 43.86 60.6 44.18V44.3C60.6 44.52 60.38 44.82 59.94 45.2C59.5 45.58 59.17 46.04 58.95 46.58L51.75 63.74C51.39 64.58 50.79 65 49.95 65C49.23 65 48.69 64.61 48.33 63.83L40.38 46.61C40.16 46.11 39.83 45.66 39.39 45.26C38.97 44.86 38.76 44.54 38.76 44.3V44.18C38.76 43.86 39 43.7 39.48 43.7H46.2C46.66 43.7 46.89 43.86 46.89 44.18V44.3C46.89 44.46 46.8 44.63 46.62 44.81C46.44 44.97 46.26 45.12 46.08 45.26C45.9 45.4 45.75 45.59 45.63 45.83C45.53 46.07 45.54 46.33 45.66 46.61L51.21 59.99L56.46 46.58C56.6 46.22 56.56 45.91 56.34 45.65C56.12 45.37 55.86 45.12 55.56 44.9C55.28 44.68 55.14 44.48 55.14 44.3V44.18C55.14 43.86 55.37 43.7 55.83 43.7H59.91ZM71.0941 60.44C71.2741 60.2 71.4941 60.12 71.7541 60.2C72.0141 60.28 72.1341 60.47 72.1141 60.77C72.0141 61.81 71.4141 62.83 70.3141 63.83C69.2141 64.81 67.7841 65.3 66.0241 65.3C63.9041 65.3 62.1641 64.6 60.8041 63.2C59.4441 61.8 58.7641 59.96 58.7641 57.68C58.7641 55.54 59.4741 53.78 60.8941 52.4C62.3141 51 64.0241 50.3 66.0241 50.3C67.8441 50.3 69.2441 50.73 70.2241 51.59C71.2041 52.45 71.6941 53.44 71.6941 54.56C71.6941 55.48 71.2541 56.14 70.3741 56.54L63.7141 59.57C64.5341 61.31 65.8541 62.18 67.6741 62.18C68.4341 62.18 69.1141 62.02 69.7141 61.7C70.3341 61.36 70.7941 60.94 71.0941 60.44ZM65.4841 51.62C64.7041 51.62 64.0841 52 63.6241 52.76C63.1641 53.5 62.9341 54.45 62.9341 55.61C62.9341 56.59 63.0341 57.45 63.2341 58.19L67.1041 56.24C67.6241 55.98 67.8841 55.51 67.8841 54.83C67.8841 54.15 67.6641 53.45 67.2241 52.73C66.7841 51.99 66.2041 51.62 65.4841 51.62ZM82.7123 50.3C83.5723 50.3 84.2423 50.56 84.7223 51.08C85.2223 51.58 85.4723 52.23 85.4723 53.03C85.4723 54.61 84.8323 55.4 83.5523 55.4C83.0323 55.4 82.6223 55.27 82.3223 55.01C82.0423 54.73 81.8723 54.43 81.8123 54.11C81.7523 53.79 81.6323 53.5 81.4523 53.24C81.2723 52.96 81.0023 52.82 80.6423 52.82C80.1023 52.82 79.7023 53.14 79.4423 53.78C79.1823 54.42 79.0523 55.2 79.0523 56.12V62.12C79.0523 62.48 79.1723 62.8 79.4123 63.08C79.6723 63.34 79.9223 63.57 80.1623 63.77C80.4223 63.97 80.5523 64.17 80.5523 64.37V64.49C80.5523 64.83 80.3323 65 79.8923 65H74.3423C73.8823 65 73.6523 64.83 73.6523 64.49V64.37C73.6523 64.17 73.8423 63.86 74.2223 63.44C74.6223 63.02 74.8223 62.58 74.8223 62.12V55.1C74.8223 54.62 74.5923 54.19 74.1323 53.81C73.6723 53.43 73.4423 53.14 73.4423 52.94V52.82C73.4423 52.54 73.6523 52.3 74.0723 52.1L77.6723 50.42C78.3123 50.12 78.6323 50.32 78.6323 51.02V53.27C79.3123 51.29 80.6723 50.3 82.7123 50.3ZM91.8856 47.75C91.3656 48.23 90.6656 48.47 89.7856 48.47C88.9056 48.47 88.1856 48.23 87.6256 47.75C87.0856 47.25 86.8156 46.61 86.8156 45.83C86.8156 45.07 87.0856 44.45 87.6256 43.97C88.1856 43.47 88.9056 43.22 89.7856 43.22C90.6656 43.22 91.3656 43.47 91.8856 43.97C92.4256 44.45 92.6956 45.07 92.6956 45.83C92.6956 46.61 92.4256 47.25 91.8856 47.75ZM87.0556 65C86.6156 65 86.3956 64.83 86.3956 64.49V64.37C86.3956 64.17 86.5856 63.86 86.9656 63.44C87.3456 63.02 87.5356 62.57 87.5356 62.09V55.31C87.5356 54.81 87.3456 54.34 86.9656 53.9C86.5856 53.46 86.3956 53.16 86.3956 53V52.91C86.3956 52.71 86.6056 52.5 87.0256 52.28L90.7756 50.42C91.1556 50.26 91.4556 50.25 91.6756 50.39C91.8956 50.51 92.0056 50.72 92.0056 51.02V62.09C92.0056 62.57 92.2156 63.02 92.6356 63.44C93.0556 63.86 93.2656 64.17 93.2656 64.37V64.49C93.2656 64.83 93.0356 65 92.5756 65H87.0556ZM104.1 44.33C103.12 44.33 102.35 44.84 101.79 45.86C101.23 46.88 101 48.14 101.1 49.64V50.6H104.7C104.86 50.6 105 50.66 105.12 50.78C105.24 50.9 105.3 51.04 105.3 51.2V51.77C105.3 51.93 105.24 52.07 105.12 52.19C105 52.29 104.86 52.34 104.7 52.34H101.1V62.09C101.1 62.45 101.23 62.77 101.49 63.05C101.75 63.33 102 63.57 102.24 63.77C102.5 63.97 102.63 64.17 102.63 64.37V64.49C102.63 64.83 102.43 65 102.03 65H96.24C95.82 65 95.61 64.83 95.61 64.49V64.37C95.61 64.17 95.81 63.86 96.21 63.44C96.61 63.02 96.81 62.57 96.81 62.09V52.34H94.68C94.26 52.34 94.05 52.15 94.05 51.77V51.2C94.05 51.04 94.11 50.9 94.23 50.78C94.35 50.66 94.5 50.6 94.68 50.6H96.81V49.37C96.81 47.45 97.53 45.91 98.97 44.75C100.41 43.59 102.31 43.01 104.67 43.01C106.69 43.01 108.29 43.44 109.47 44.3C110.67 45.14 111.27 46.1 111.27 47.18C111.27 47.64 111.11 48.03 110.79 48.35C110.47 48.65 110.06 48.8 109.56 48.8C108.98 48.8 108.48 48.65 108.06 48.35C107.64 48.03 107.3 47.66 107.04 47.24C106.8 46.8 106.56 46.36 106.32 45.92C106.1 45.48 105.8 45.11 105.42 44.81C105.06 44.49 104.62 44.33 104.1 44.33ZM112.47 62.09C112.47 62.57 112.68 63.02 113.1 63.44C113.52 63.86 113.73 64.17 113.73 64.37V64.49C113.73 64.83 113.5 65 113.04 65H107.49C107.03 65 106.8 64.83 106.8 64.49V64.37C106.8 64.17 106.99 63.86 107.37 63.44C107.77 63.02 107.97 62.57 107.97 62.09V55.31C107.97 54.81 107.77 54.34 107.37 53.9C106.99 53.46 106.8 53.16 106.8 53V52.91C106.8 52.71 107.01 52.5 107.43 52.28L111.24 50.42C111.62 50.26 111.92 50.25 112.14 50.39C112.36 50.51 112.47 50.72 112.47 51.02V62.09ZM127.46 60.44C127.64 60.2 127.86 60.12 128.12 60.2C128.38 60.28 128.5 60.47 128.48 60.77C128.38 61.81 127.78 62.83 126.68 63.83C125.58 64.81 124.15 65.3 122.39 65.3C120.27 65.3 118.53 64.6 117.17 63.2C115.81 61.8 115.13 59.96 115.13 57.68C115.13 55.54 115.84 53.78 117.26 52.4C118.68 51 120.39 50.3 122.39 50.3C124.21 50.3 125.61 50.73 126.59 51.59C127.57 52.45 128.06 53.44 128.06 54.56C128.06 55.48 127.62 56.14 126.74 56.54L120.08 59.57C120.9 61.31 122.22 62.18 124.04 62.18C124.8 62.18 125.48 62.02 126.08 61.7C126.7 61.36 127.16 60.94 127.46 60.44ZM121.85 51.62C121.07 51.62 120.45 52 119.99 52.76C119.53 53.5 119.3 54.45 119.3 55.61C119.3 56.59 119.4 57.45 119.6 58.19L123.47 56.24C123.99 55.98 124.25 55.51 124.25 54.83C124.25 54.15 124.03 53.45 123.59 52.73C123.15 51.99 122.57 51.62 121.85 51.62ZM144.599 62.12C144.599 62.58 144.799 63.03 145.199 63.47C145.599 63.89 145.799 64.2 145.799 64.4V64.49C145.799 64.83 145.599 65 145.199 65H141.479C141.019 65 140.789 64.78 140.789 64.34L140.729 63.68C139.809 64.76 138.509 65.3 136.829 65.3C134.889 65.3 133.229 64.63 131.849 63.29C130.469 61.93 129.779 60.09 129.779 57.77C129.779 55.59 130.469 53.8 131.849 52.4C133.229 51 134.899 50.3 136.859 50.3C138.259 50.3 139.429 50.69 140.369 51.47V46.67C140.369 46.27 140.239 45.94 139.979 45.68C139.739 45.42 139.489 45.2 139.229 45.02C138.989 44.84 138.869 44.65 138.869 44.45V44.36C138.869 44.02 139.079 43.79 139.499 43.67L143.429 42.47C144.209 42.21 144.599 42.41 144.599 43.07V62.12ZM137.819 64.01C138.499 64.01 139.089 63.73 139.589 63.17C140.109 62.59 140.369 61.8 140.369 60.8V55.52C140.369 54.54 140.039 53.64 139.379 52.82C138.719 52 137.959 51.59 137.099 51.59C136.179 51.59 135.449 51.98 134.909 52.76C134.369 53.52 134.089 54.6 134.069 56C134.029 57.14 134.139 58.31 134.399 59.51C134.679 60.71 135.119 61.76 135.719 62.66C136.339 63.54 137.039 63.99 137.819 64.01ZM49.98 101.3C47.2 101.3 44.8 100.17 42.78 97.91C40.78 95.63 39.78 93.02 39.78 90.08C39.78 86.98 40.7 84.43 42.54 82.43C44.4 80.43 46.8 79.43 49.74 79.43C52.04 79.43 54.04 80.02 55.74 81.2C57.44 82.36 58.29 83.66 58.29 85.1C58.29 85.7 58.1 86.19 57.72 86.57C57.34 86.93 56.82 87.11 56.16 87.11C55.56 87.11 55.03 86.91 54.57 86.51C54.11 86.11 53.71 85.63 53.37 85.07C53.03 84.49 52.67 83.91 52.29 83.33C51.93 82.75 51.45 82.26 50.85 81.86C50.25 81.46 49.56 81.26 48.78 81.26C47.52 81.26 46.44 81.83 45.54 82.97C44.64 84.09 44.19 85.56 44.19 87.38C44.19 90.24 44.9 92.6 46.32 94.46C47.76 96.32 49.43 97.25 51.33 97.25C53.69 97.25 55.58 95.99 57 93.47C57.24 93.13 57.55 93.02 57.93 93.14C58.31 93.24 58.48 93.51 58.44 93.95C58.26 96.01 57.44 97.75 55.98 99.17C54.52 100.59 52.52 101.3 49.98 101.3ZM68.9138 86.3C69.7738 86.3 70.4438 86.56 70.9238 87.08C71.4238 87.58 71.6738 88.23 71.6738 89.03C71.6738 90.61 71.0338 91.4 69.7538 91.4C69.2338 91.4 68.8238 91.27 68.5238 91.01C68.2438 90.73 68.0738 90.43 68.0138 90.11C67.9538 89.79 67.8338 89.5 67.6538 89.24C67.4738 88.96 67.2038 88.82 66.8438 88.82C66.3038 88.82 65.9038 89.14 65.6438 89.78C65.3838 90.42 65.2538 91.2 65.2538 92.12V98.12C65.2538 98.48 65.3738 98.8 65.6138 99.08C65.8738 99.34 66.1238 99.57 66.3638 99.77C66.6238 99.97 66.7538 100.17 66.7538 100.37V100.49C66.7538 100.83 66.5338 101 66.0938 101H60.5438C60.0838 101 59.8538 100.83 59.8538 100.49V100.37C59.8538 100.17 60.0438 99.86 60.4238 99.44C60.8238 99.02 61.0238 98.58 61.0238 98.12V91.1C61.0238 90.62 60.7938 90.19 60.3338 89.81C59.8738 89.43 59.6438 89.14 59.6438 88.94V88.82C59.6438 88.54 59.8538 88.3 60.2738 88.1L63.8738 86.42C64.5138 86.12 64.8338 86.32 64.8338 87.02V89.27C65.5138 87.29 66.8738 86.3 68.9138 86.3ZM84.5119 96.44C84.6919 96.2 84.9119 96.12 85.1719 96.2C85.4319 96.28 85.5519 96.47 85.5319 96.77C85.4319 97.81 84.8319 98.83 83.7319 99.83C82.6319 100.81 81.2019 101.3 79.4419 101.3C77.3219 101.3 75.5819 100.6 74.2219 99.2C72.8619 97.8 72.1819 95.96 72.1819 93.68C72.1819 91.54 72.8919 89.78 74.3119 88.4C75.7319 87 77.4419 86.3 79.4419 86.3C81.2619 86.3 82.6619 86.73 83.6419 87.59C84.6219 88.45 85.1119 89.44 85.1119 90.56C85.1119 91.48 84.6719 92.14 83.7919 92.54L77.1319 95.57C77.9519 97.31 79.2719 98.18 81.0919 98.18C81.8519 98.18 82.5319 98.02 83.1319 97.7C83.7519 97.36 84.2119 96.94 84.5119 96.44ZM78.9019 87.62C78.1219 87.62 77.5019 88 77.0419 88.76C76.5819 89.5 76.3519 90.45 76.3519 91.61C76.3519 92.59 76.4519 93.45 76.6519 94.19L80.5219 92.24C81.0419 91.98 81.3019 91.51 81.3019 90.83C81.3019 90.15 81.0819 89.45 80.6419 88.73C80.2019 87.99 79.6219 87.62 78.9019 87.62ZM101.65 98.12C101.65 98.58 101.85 99.03 102.25 99.47C102.65 99.89 102.85 100.2 102.85 100.4V100.49C102.85 100.83 102.65 101 102.25 101H98.5301C98.0701 101 97.8401 100.78 97.8401 100.34L97.7801 99.68C96.8601 100.76 95.5601 101.3 93.8801 101.3C91.9401 101.3 90.2801 100.63 88.9001 99.29C87.5201 97.93 86.8301 96.09 86.8301 93.77C86.8301 91.59 87.5201 89.8 88.9001 88.4C90.2801 87 91.9501 86.3 93.9101 86.3C95.3101 86.3 96.4801 86.69 97.4201 87.47V82.67C97.4201 82.27 97.2901 81.94 97.0301 81.68C96.7901 81.42 96.5401 81.2 96.2801 81.02C96.0401 80.84 95.9201 80.65 95.9201 80.45V80.36C95.9201 80.02 96.1301 79.79 96.5501 79.67L100.48 78.47C101.26 78.21 101.65 78.41 101.65 79.07V98.12ZM94.8701 100.01C95.5501 100.01 96.1401 99.73 96.6401 99.17C97.1601 98.59 97.4201 97.8 97.4201 96.8V91.52C97.4201 90.54 97.0901 89.64 96.4301 88.82C95.7701 88 95.0101 87.59 94.1501 87.59C93.2301 87.59 92.5001 87.98 91.9601 88.76C91.4201 89.52 91.1401 90.6 91.1201 92C91.0801 93.14 91.1901 94.31 91.4501 95.51C91.7301 96.71 92.1701 97.76 92.7701 98.66C93.3901 99.54 94.0901 99.99 94.8701 100.01ZM116.562 96.44C116.742 96.2 116.962 96.12 117.222 96.2C117.482 96.28 117.602 96.47 117.582 96.77C117.482 97.81 116.882 98.83 115.782 99.83C114.682 100.81 113.252 101.3 111.492 101.3C109.372 101.3 107.632 100.6 106.272 99.2C104.912 97.8 104.232 95.96 104.232 93.68C104.232 91.54 104.942 89.78 106.362 88.4C107.782 87 109.492 86.3 111.492 86.3C113.312 86.3 114.712 86.73 115.692 87.59C116.672 88.45 117.162 89.44 117.162 90.56C117.162 91.48 116.722 92.14 115.842 92.54L109.182 95.57C110.002 97.31 111.322 98.18 113.142 98.18C113.902 98.18 114.582 98.02 115.182 97.7C115.802 97.36 116.262 96.94 116.562 96.44ZM110.952 87.62C110.172 87.62 109.552 88 109.092 88.76C108.632 89.5 108.402 90.45 108.402 91.61C108.402 92.59 108.502 93.45 108.702 94.19L112.572 92.24C113.092 91.98 113.352 91.51 113.352 90.83C113.352 90.15 113.132 89.45 112.692 88.73C112.252 87.99 111.672 87.62 110.952 87.62ZM134.6 98.09C134.64 98.57 134.83 99.02 135.17 99.44C135.51 99.86 135.68 100.18 135.68 100.4V100.52C135.68 100.86 135.45 101.03 134.99 101.03H129.8C129.34 101.03 129.11 100.86 129.11 100.52V100.4C129.11 100.2 129.29 99.89 129.65 99.47C130.03 99.05 130.21 98.59 130.19 98.09L129.89 92.54C129.75 89.52 128.88 88.01 127.28 88.01C126.48 88.01 125.85 88.31 125.39 88.91C124.95 89.51 124.73 90.31 124.73 91.31V98.12C124.73 98.6 124.94 99.05 125.36 99.47C125.8 99.89 126.02 100.2 126.02 100.4V100.52C126.02 100.86 125.79 101.03 125.33 101.03H119.75C119.29 101.03 119.06 100.86 119.06 100.52V100.4C119.06 100.2 119.27 99.89 119.69 99.47C120.13 99.05 120.35 98.6 120.35 98.12V91.13C120.35 90.83 120.27 90.56 120.11 90.32C119.97 90.08 119.8 89.91 119.6 89.81C119.42 89.69 119.25 89.55 119.09 89.39C118.95 89.23 118.88 89.07 118.88 88.91V88.79C118.88 88.57 119.08 88.36 119.48 88.16L123.05 86.42C123.39 86.26 123.64 86.25 123.8 86.39C123.98 86.51 124.07 86.73 124.07 87.05V88.73C124.93 87.11 126.41 86.3 128.51 86.3C130.03 86.3 131.32 86.81 132.38 87.83C133.46 88.85 134.08 90.47 134.24 92.69L134.6 98.09ZM142.752 101.3C141.352 101.3 140.242 100.86 139.422 99.98C138.622 99.08 138.222 97.79 138.222 96.11V88.34H136.812C136.412 88.34 136.212 88.14 136.212 87.74V87.23C136.212 86.81 136.412 86.6 136.812 86.6H137.562C138.382 86.6 139.072 86.33 139.632 85.79C140.212 85.25 140.582 84.53 140.742 83.63C140.842 83.15 141.072 82.91 141.432 82.91H142.032C142.472 82.91 142.692 83.15 142.692 83.63L142.722 86.6H146.172C146.332 86.6 146.472 86.66 146.592 86.78C146.712 86.9 146.772 87.05 146.772 87.23V87.74C146.772 87.92 146.712 88.07 146.592 88.19C146.472 88.29 146.332 88.34 146.172 88.34H142.722V96.17C142.722 96.75 142.862 97.22 143.142 97.58C143.442 97.92 143.812 98.09 144.252 98.09C145.292 98.09 145.972 97.64 146.292 96.74C146.472 96.48 146.692 96.38 146.952 96.44C147.232 96.48 147.372 96.64 147.372 96.92C147.372 98.08 146.952 99.1 146.112 99.98C145.292 100.86 144.172 101.3 142.752 101.3ZM153.965 83.75C153.445 84.23 152.745 84.47 151.865 84.47C150.985 84.47 150.265 84.23 149.705 83.75C149.165 83.25 148.895 82.61 148.895 81.83C148.895 81.07 149.165 80.45 149.705 79.97C150.265 79.47 150.985 79.22 151.865 79.22C152.745 79.22 153.445 79.47 153.965 79.97C154.505 80.45 154.775 81.07 154.775 81.83C154.775 82.61 154.505 83.25 153.965 83.75ZM149.135 101C148.695 101 148.475 100.83 148.475 100.49V100.37C148.475 100.17 148.665 99.86 149.045 99.44C149.425 99.02 149.615 98.57 149.615 98.09V91.31C149.615 90.81 149.425 90.34 149.045 89.9C148.665 89.46 148.475 89.16 148.475 89V88.91C148.475 88.71 148.685 88.5 149.105 88.28L152.855 86.42C153.235 86.26 153.535 86.25 153.755 86.39C153.975 86.51 154.085 86.72 154.085 87.02V98.09C154.085 98.57 154.295 99.02 154.715 99.44C155.135 99.86 155.345 100.17 155.345 100.37V100.49C155.345 100.83 155.115 101 154.655 101H149.135ZM170.529 98C170.589 98.46 170.699 98.83 170.859 99.11C171.039 99.39 171.219 99.57 171.399 99.65C171.579 99.71 171.739 99.79 171.879 99.89C172.019 99.99 172.089 100.13 172.089 100.31C172.089 100.89 171.129 101.18 169.209 101.18C168.329 101.18 167.679 101.07 167.259 100.85C166.859 100.61 166.619 100.18 166.539 99.56C165.759 100.72 164.429 101.3 162.549 101.3C160.869 101.3 159.509 100.91 158.469 100.13C157.429 99.35 156.909 98.23 156.909 96.77C156.889 95.33 157.399 94.21 158.439 93.41C159.479 92.61 160.779 92.21 162.339 92.21C163.659 92.21 164.749 92.51 165.609 93.11L165.579 92.75C165.379 90.85 165.099 89.51 164.739 88.73C164.379 87.95 163.769 87.56 162.909 87.56C162.369 87.56 161.929 87.76 161.589 88.16C161.249 88.56 161.009 89 160.869 89.48C160.729 89.96 160.499 90.4 160.179 90.8C159.859 91.2 159.449 91.4 158.949 91.4C158.409 91.4 157.969 91.25 157.629 90.95C157.309 90.63 157.149 90.22 157.149 89.72C157.149 88.68 157.699 87.85 158.799 87.23C159.919 86.61 161.289 86.3 162.909 86.3C164.849 86.3 166.439 86.85 167.679 87.95C168.919 89.05 169.649 90.55 169.869 92.45L170.529 98ZM163.869 99.98C164.529 99.98 165.059 99.71 165.459 99.17C165.859 98.61 166.039 97.98 165.999 97.28L165.909 96.23C165.829 95.37 165.569 94.71 165.129 94.25C164.709 93.79 164.179 93.56 163.539 93.56C162.899 93.56 162.369 93.79 161.949 94.25C161.549 94.71 161.349 95.32 161.349 96.08C161.349 97.16 161.579 98.08 162.039 98.84C162.519 99.6 163.129 99.98 163.869 99.98ZM173.505 101C173.045 101 172.815 100.83 172.815 100.49V100.37C172.815 100.17 173.005 99.86 173.385 99.44C173.785 99.02 173.985 98.58 173.985 98.12V83.36C173.985 82.84 173.785 82.37 173.385 81.95C173.005 81.53 172.815 81.24 172.815 81.08V80.96C172.815 80.72 173.015 80.52 173.415 80.36L177.195 78.5C177.595 78.34 177.895 78.32 178.095 78.44C178.315 78.56 178.425 78.76 178.425 79.04V98.12C178.425 98.58 178.635 99.02 179.055 99.44C179.495 99.86 179.715 100.17 179.715 100.37V100.49C179.715 100.83 179.485 101 179.025 101H173.505ZM187.555 101.27C185.675 101.27 184.135 100.93 182.935 100.25C181.735 99.57 181.135 98.75 181.135 97.79C181.135 97.25 181.295 96.84 181.615 96.56C181.955 96.28 182.395 96.14 182.935 96.14C183.515 96.14 183.985 96.35 184.345 96.77C184.705 97.17 184.955 97.62 185.095 98.12C185.255 98.62 185.535 99.08 185.935 99.5C186.355 99.9 186.895 100.1 187.555 100.1C188.195 100.1 188.715 99.93 189.115 99.59C189.535 99.25 189.745 98.76 189.745 98.12C189.745 97.4 189.455 96.83 188.875 96.41C188.315 95.99 187.625 95.68 186.805 95.48C185.985 95.26 185.165 95.02 184.345 94.76C183.525 94.48 182.825 94.01 182.245 93.35C181.685 92.67 181.405 91.79 181.405 90.71C181.405 89.43 181.965 88.38 183.085 87.56C184.225 86.72 185.695 86.3 187.495 86.3C189.315 86.3 190.795 86.66 191.935 87.38C193.095 88.08 193.675 88.92 193.675 89.9C193.675 90.34 193.505 90.71 193.165 91.01C192.845 91.31 192.445 91.46 191.965 91.46C191.405 91.46 190.955 91.26 190.615 90.86C190.275 90.44 190.035 89.99 189.895 89.51C189.755 89.01 189.505 88.56 189.145 88.16C188.785 87.74 188.315 87.53 187.735 87.53C187.155 87.53 186.685 87.73 186.325 88.13C185.965 88.51 185.785 88.98 185.785 89.54C185.785 90.1 185.935 90.57 186.235 90.95C186.535 91.33 186.925 91.62 187.405 91.82C187.885 92.02 188.415 92.21 188.995 92.39C189.575 92.55 190.155 92.74 190.735 92.96C191.335 93.16 191.875 93.41 192.355 93.71C192.835 94.01 193.225 94.44 193.525 95C193.825 95.54 193.975 96.2 193.975 96.98C193.975 98.22 193.395 99.25 192.235 100.07C191.075 100.87 189.515 101.27 187.555 101.27Z" fill="black"/>
<path d="M44.4404 265.211C43.4619 265.211 42.6123 265.059 41.8916 264.754C41.1768 264.443 40.6172 264.001 40.2129 263.427C39.8086 262.853 39.583 262.17 39.5361 261.379H41.5225C41.5635 261.854 41.7158 262.249 41.9795 262.565C42.249 262.876 42.5977 263.107 43.0254 263.26C43.4531 263.412 43.9219 263.488 44.4316 263.488C44.9883 263.488 45.4863 263.4 45.9258 263.225C46.3652 263.049 46.708 262.803 46.9541 262.486C47.2061 262.164 47.332 261.789 47.332 261.361C47.332 260.975 47.2207 260.658 46.998 260.412C46.7812 260.166 46.4854 259.964 46.1104 259.806C45.7354 259.642 45.3135 259.498 44.8447 259.375L43.3066 258.953C42.252 258.672 41.4199 258.253 40.8105 257.696C40.2012 257.134 39.8965 256.398 39.8965 255.49C39.8965 254.734 40.0986 254.075 40.5029 253.513C40.9131 252.95 41.4668 252.514 42.1641 252.203C42.8672 251.887 43.6553 251.729 44.5283 251.729C45.4189 251.729 46.2012 251.887 46.875 252.203C47.5547 252.514 48.0908 252.941 48.4834 253.486C48.8818 254.025 49.0898 254.644 49.1074 255.341H47.1914C47.1211 254.737 46.8398 254.269 46.3477 253.935C45.8613 253.601 45.2402 253.434 44.4844 253.434C43.957 253.434 43.4941 253.519 43.0957 253.688C42.7031 253.853 42.3984 254.081 42.1816 254.374C41.9707 254.667 41.8652 255.004 41.8652 255.385C41.8652 255.795 41.9912 256.129 42.2432 256.387C42.501 256.645 42.8115 256.85 43.1748 257.002C43.5439 257.148 43.8984 257.269 44.2383 257.362L45.5127 257.705C45.9287 257.811 46.3564 257.951 46.7959 258.127C47.2354 258.303 47.6426 258.534 48.0176 258.821C48.3984 259.103 48.7031 259.454 48.9316 259.876C49.166 260.292 49.2832 260.796 49.2832 261.388C49.2832 262.12 49.0928 262.776 48.7119 263.356C48.3311 263.931 47.7803 264.385 47.0596 264.719C46.3389 265.047 45.4658 265.211 44.4404 265.211ZM54.9697 265.202C54.0088 265.202 53.1768 264.994 52.4736 264.578C51.7705 264.162 51.2285 263.576 50.8477 262.82C50.4727 262.059 50.2852 261.171 50.2852 260.157C50.2852 259.149 50.4697 258.262 50.8389 257.494C51.2139 256.727 51.7383 256.129 52.4121 255.701C53.0918 255.268 53.8887 255.051 54.8027 255.051C55.3594 255.051 55.8984 255.142 56.4199 255.323C56.9414 255.505 57.4102 255.792 57.8262 256.185C58.2422 256.577 58.5703 257.087 58.8105 257.714C59.0566 258.341 59.1797 259.097 59.1797 259.981V260.667H51.3662V259.234H58.1953L57.3076 259.709C57.3076 259.105 57.2139 258.572 57.0264 258.109C56.8389 257.646 56.5576 257.286 56.1826 257.028C55.8135 256.765 55.3535 256.633 54.8027 256.633C54.252 256.633 53.7803 256.765 53.3877 257.028C53.001 257.292 52.7051 257.641 52.5 258.074C52.2949 258.508 52.1924 258.982 52.1924 259.498V260.474C52.1924 261.147 52.3096 261.719 52.5439 262.188C52.7783 262.656 53.1035 263.014 53.5195 263.26C53.9414 263.506 54.4307 263.629 54.9873 263.629C55.3506 263.629 55.6787 263.576 55.9717 263.471C56.2705 263.365 56.5283 263.207 56.7451 262.996C56.9619 262.785 57.126 262.524 57.2373 262.214L59.0479 262.557C58.9014 263.084 58.6436 263.547 58.2744 263.945C57.9053 264.344 57.4395 264.654 56.877 264.877C56.3203 265.094 55.6846 265.202 54.9697 265.202ZM64.6377 265.202C63.6943 265.202 62.8799 264.985 62.1943 264.552C61.5088 264.118 60.9814 263.521 60.6123 262.759C60.2432 261.997 60.0586 261.124 60.0586 260.14C60.0586 259.138 60.2461 258.256 60.6211 257.494C61.002 256.727 61.5322 256.129 62.2119 255.701C62.8975 255.268 63.7002 255.051 64.6201 255.051C65.3701 255.051 66.0352 255.188 66.6152 255.464C67.2012 255.733 67.6729 256.117 68.0303 256.615C68.3936 257.113 68.6074 257.693 68.6719 258.355H66.8086C66.7441 258.045 66.6182 257.761 66.4307 257.503C66.249 257.245 66.0088 257.04 65.71 256.888C65.4111 256.735 65.0566 256.659 64.6465 256.659C64.1133 256.659 63.6475 256.8 63.249 257.081C62.8564 257.356 62.5488 257.752 62.3262 258.268C62.1035 258.783 61.9922 259.393 61.9922 260.096C61.9922 260.805 62.1006 261.423 62.3174 261.95C62.5342 262.478 62.8418 262.885 63.2402 263.172C63.6445 263.453 64.1133 263.594 64.6465 263.594C65.1973 263.594 65.666 263.441 66.0527 263.137C66.4453 262.832 66.6973 262.416 66.8086 261.889H68.6719C68.6074 262.527 68.4023 263.096 68.0566 263.594C67.7109 264.092 67.248 264.484 66.668 264.771C66.0879 265.059 65.4111 265.202 64.6377 265.202ZM76.248 260.939V255.174H78.1465V265H76.2832V263.295H76.1777C75.9434 263.816 75.5801 264.253 75.0879 264.604C74.5957 264.956 73.9805 265.129 73.2422 265.123C72.6094 265.123 72.0498 264.985 71.5635 264.71C71.083 264.435 70.7051 264.021 70.4297 263.471C70.1602 262.92 70.0254 262.237 70.0254 261.423V255.174H71.9238V261.203C71.9238 261.865 72.1113 262.396 72.4863 262.794C72.8613 263.192 73.3447 263.389 73.9365 263.383C74.2939 263.383 74.6484 263.295 75 263.119C75.3574 262.943 75.6533 262.674 75.8877 262.311C76.1279 261.947 76.248 261.49 76.248 260.939ZM79.9746 265V255.174H81.8115V256.747H81.917C82.0986 256.22 82.415 255.804 82.8662 255.499C83.3232 255.188 83.8389 255.033 84.4131 255.033C84.5303 255.033 84.668 255.039 84.8262 255.051C84.9902 255.057 85.1221 255.065 85.2217 255.077V256.905C85.1455 256.882 85.0078 256.858 84.8086 256.835C84.6152 256.812 84.4189 256.8 84.2197 256.8C83.7686 256.8 83.3643 256.896 83.0068 257.09C82.6553 257.277 82.377 257.538 82.1719 257.872C81.9727 258.2 81.873 258.581 81.873 259.015V265H79.9746ZM90.0205 265.202C89.0596 265.202 88.2275 264.994 87.5244 264.578C86.8213 264.162 86.2793 263.576 85.8984 262.82C85.5234 262.059 85.3359 261.171 85.3359 260.157C85.3359 259.149 85.5205 258.262 85.8896 257.494C86.2646 256.727 86.7891 256.129 87.4629 255.701C88.1426 255.268 88.9395 255.051 89.8535 255.051C90.4102 255.051 90.9492 255.142 91.4707 255.323C91.9922 255.505 92.4609 255.792 92.877 256.185C93.293 256.577 93.6211 257.087 93.8613 257.714C94.1074 258.341 94.2305 259.097 94.2305 259.981V260.667H86.417V259.234H93.2461L92.3584 259.709C92.3584 259.105 92.2646 258.572 92.0771 258.109C91.8896 257.646 91.6084 257.286 91.2334 257.028C90.8643 256.765 90.4043 256.633 89.8535 256.633C89.3027 256.633 88.8311 256.765 88.4385 257.028C88.0518 257.292 87.7559 257.641 87.5508 258.074C87.3457 258.508 87.2432 258.982 87.2432 259.498V260.474C87.2432 261.147 87.3604 261.719 87.5947 262.188C87.8291 262.656 88.1543 263.014 88.5703 263.26C88.9922 263.506 89.4814 263.629 90.0381 263.629C90.4014 263.629 90.7295 263.576 91.0225 263.471C91.3213 263.365 91.5791 263.207 91.7959 262.996C92.0127 262.785 92.1768 262.524 92.2881 262.214L94.0986 262.557C93.9521 263.084 93.6943 263.547 93.3252 263.945C92.9561 264.344 92.4902 264.654 91.9277 264.877C91.3711 265.094 90.7354 265.202 90.0205 265.202ZM104.417 265.193C103.825 265.193 103.339 265.094 102.958 264.895C102.583 264.689 102.287 264.452 102.07 264.183C101.859 263.913 101.695 263.676 101.578 263.471H101.42V265H99.5742V251.904H101.473V256.773H101.578C101.695 256.568 101.856 256.331 102.062 256.062C102.272 255.792 102.565 255.558 102.94 255.358C103.315 255.153 103.805 255.051 104.408 255.051C105.199 255.051 105.902 255.25 106.518 255.648C107.139 256.047 107.628 256.624 107.985 257.38C108.343 258.136 108.521 259.047 108.521 260.113C108.521 261.168 108.346 262.076 107.994 262.838C107.643 263.594 107.156 264.177 106.535 264.587C105.92 264.991 105.214 265.193 104.417 265.193ZM104.004 263.567C104.572 263.567 105.047 263.415 105.428 263.11C105.809 262.806 106.096 262.393 106.289 261.871C106.488 261.344 106.588 260.752 106.588 260.096C106.588 259.445 106.491 258.862 106.298 258.347C106.104 257.831 105.817 257.424 105.437 257.125C105.056 256.826 104.578 256.677 104.004 256.677C103.447 256.677 102.979 256.82 102.598 257.107C102.217 257.389 101.927 257.787 101.728 258.303C101.534 258.812 101.438 259.41 101.438 260.096C101.438 260.781 101.537 261.385 101.736 261.906C101.936 262.428 102.226 262.835 102.606 263.128C102.993 263.421 103.459 263.567 104.004 263.567ZM111.809 251.904V265H109.91V251.904H111.809ZM117.759 265.202C116.839 265.202 116.033 264.991 115.342 264.569C114.656 264.147 114.123 263.556 113.742 262.794C113.367 262.032 113.18 261.147 113.18 260.14C113.18 259.12 113.367 258.229 113.742 257.468C114.123 256.7 114.656 256.105 115.342 255.684C116.033 255.262 116.839 255.051 117.759 255.051C118.685 255.051 119.49 255.262 120.176 255.684C120.861 256.105 121.395 256.7 121.775 257.468C122.156 258.229 122.347 259.12 122.347 260.14C122.347 261.147 122.156 262.032 121.775 262.794C121.395 263.556 120.861 264.147 120.176 264.569C119.49 264.991 118.685 265.202 117.759 265.202ZM117.759 263.594C118.362 263.594 118.86 263.436 119.253 263.119C119.646 262.803 119.936 262.384 120.123 261.862C120.316 261.335 120.413 260.761 120.413 260.14C120.413 259.507 120.316 258.927 120.123 258.399C119.936 257.872 119.646 257.45 119.253 257.134C118.86 256.817 118.362 256.659 117.759 256.659C117.161 256.659 116.666 256.817 116.273 257.134C115.887 257.45 115.597 257.872 115.403 258.399C115.21 258.927 115.113 259.507 115.113 260.14C115.113 260.761 115.21 261.335 115.403 261.862C115.597 262.384 115.887 262.803 116.273 263.119C116.666 263.436 117.161 263.594 117.759 263.594ZM127.849 265.202C126.905 265.202 126.091 264.985 125.405 264.552C124.72 264.118 124.192 263.521 123.823 262.759C123.454 261.997 123.27 261.124 123.27 260.14C123.27 259.138 123.457 258.256 123.832 257.494C124.213 256.727 124.743 256.129 125.423 255.701C126.108 255.268 126.911 255.051 127.831 255.051C128.581 255.051 129.246 255.188 129.826 255.464C130.412 255.733 130.884 256.117 131.241 256.615C131.604 257.113 131.818 257.693 131.883 258.355H130.02C129.955 258.045 129.829 257.761 129.642 257.503C129.46 257.245 129.22 257.04 128.921 256.888C128.622 256.735 128.268 256.659 127.857 256.659C127.324 256.659 126.858 256.8 126.46 257.081C126.067 257.356 125.76 257.752 125.537 258.268C125.314 258.783 125.203 259.393 125.203 260.096C125.203 260.805 125.312 261.423 125.528 261.95C125.745 262.478 126.053 262.885 126.451 263.172C126.855 263.453 127.324 263.594 127.857 263.594C128.408 263.594 128.877 263.441 129.264 263.137C129.656 262.832 129.908 262.416 130.02 261.889H131.883C131.818 262.527 131.613 263.096 131.268 263.594C130.922 264.092 130.459 264.484 129.879 264.771C129.299 265.059 128.622 265.202 127.849 265.202ZM134.994 261.669L134.968 259.34H135.311L139.222 255.174H141.507L137.051 259.92H136.734L134.994 261.669ZM133.236 265V251.904H135.135V265H133.236ZM139.424 265L135.908 260.342L137.227 258.997L141.779 265H139.424ZM146.218 265.202C145.274 265.202 144.46 264.985 143.774 264.552C143.089 264.118 142.562 263.521 142.192 262.759C141.823 261.997 141.639 261.124 141.639 260.14C141.639 259.138 141.826 258.256 142.201 257.494C142.582 256.727 143.112 256.129 143.792 255.701C144.478 255.268 145.28 255.051 146.2 255.051C146.95 255.051 147.615 255.188 148.195 255.464C148.781 255.733 149.253 256.117 149.61 256.615C149.974 257.113 150.188 257.693 150.252 258.355H148.389C148.324 258.045 148.198 257.761 148.011 257.503C147.829 257.245 147.589 257.04 147.29 256.888C146.991 256.735 146.637 256.659 146.227 256.659C145.693 256.659 145.228 256.8 144.829 257.081C144.437 257.356 144.129 257.752 143.906 258.268C143.684 258.783 143.572 259.393 143.572 260.096C143.572 260.805 143.681 261.423 143.897 261.95C144.114 262.478 144.422 262.885 144.82 263.172C145.225 263.453 145.693 263.594 146.227 263.594C146.777 263.594 147.246 263.441 147.633 263.137C148.025 262.832 148.277 262.416 148.389 261.889H150.252C150.188 262.527 149.982 263.096 149.637 263.594C149.291 264.092 148.828 264.484 148.248 264.771C147.668 265.059 146.991 265.202 146.218 265.202ZM153.504 259.173V265H151.605V251.904H153.478V256.791H153.609C153.838 256.258 154.187 255.836 154.655 255.525C155.13 255.209 155.748 255.051 156.51 255.051C157.184 255.051 157.772 255.188 158.276 255.464C158.78 255.739 159.173 256.152 159.454 256.703C159.741 257.254 159.885 257.939 159.885 258.76V265H157.969V258.988C157.969 258.262 157.781 257.699 157.406 257.301C157.037 256.902 156.521 256.703 155.859 256.703C155.402 256.703 154.998 256.803 154.646 257.002C154.295 257.195 154.017 257.474 153.812 257.837C153.606 258.2 153.504 258.646 153.504 259.173ZM164.561 265.211C163.939 265.211 163.377 265.097 162.873 264.868C162.369 264.634 161.971 264.294 161.678 263.849C161.385 263.403 161.238 262.861 161.238 262.223C161.238 261.666 161.344 261.212 161.555 260.86C161.771 260.503 162.062 260.219 162.425 260.008C162.788 259.797 163.192 259.639 163.638 259.533C164.083 259.428 164.54 259.346 165.009 259.287C165.601 259.223 166.078 259.167 166.441 259.12C166.805 259.073 167.068 259 167.232 258.9C167.402 258.795 167.487 258.628 167.487 258.399V258.355C167.487 257.799 167.329 257.368 167.013 257.063C166.702 256.759 166.239 256.606 165.624 256.606C164.985 256.606 164.479 256.747 164.104 257.028C163.734 257.304 163.479 257.617 163.339 257.969L161.537 257.556C161.754 256.958 162.067 256.478 162.478 256.114C162.894 255.745 163.368 255.476 163.901 255.306C164.44 255.136 165.003 255.051 165.589 255.051C165.981 255.051 166.397 255.098 166.837 255.191C167.276 255.279 167.689 255.446 168.076 255.692C168.469 255.933 168.788 256.278 169.034 256.729C169.28 257.181 169.403 257.764 169.403 258.479V265H167.531V263.655H167.461C167.344 263.896 167.159 264.136 166.907 264.376C166.661 264.616 166.345 264.815 165.958 264.974C165.571 265.132 165.105 265.211 164.561 265.211ZM164.974 263.682C165.507 263.682 165.961 263.579 166.336 263.374C166.711 263.163 166.998 262.888 167.197 262.548C167.396 262.208 167.496 261.848 167.496 261.467V260.192C167.426 260.257 167.294 260.318 167.101 260.377C166.907 260.436 166.688 260.485 166.441 260.526C166.195 260.567 165.955 260.605 165.721 260.641C165.486 260.67 165.29 260.693 165.132 260.711C164.763 260.764 164.426 260.846 164.121 260.957C163.816 261.062 163.57 261.221 163.383 261.432C163.201 261.637 163.11 261.909 163.11 262.249C163.11 262.724 163.286 263.081 163.638 263.321C163.989 263.562 164.435 263.682 164.974 263.682ZM171.24 265V255.174H173.139V265H171.24ZM172.198 253.662C171.864 253.662 171.58 253.551 171.346 253.328C171.111 253.105 170.994 252.839 170.994 252.528C170.994 252.212 171.111 251.942 171.346 251.72C171.58 251.497 171.864 251.386 172.198 251.386C172.526 251.386 172.808 251.497 173.042 251.72C173.282 251.942 173.402 252.212 173.402 252.528C173.402 252.839 173.282 253.105 173.042 253.328C172.808 253.551 172.526 253.662 172.198 253.662ZM176.865 259.173V265H174.967V255.174H176.812V256.791H176.944C177.167 256.258 177.516 255.836 177.99 255.525C178.465 255.209 179.074 255.051 179.818 255.051C180.486 255.051 181.069 255.191 181.567 255.473C182.071 255.748 182.461 256.161 182.736 256.712C183.018 257.263 183.158 257.945 183.158 258.76V265H181.26V258.988C181.26 258.279 181.072 257.723 180.697 257.318C180.322 256.908 179.812 256.703 179.168 256.703C178.729 256.703 178.333 256.803 177.981 257.002C177.636 257.195 177.363 257.474 177.164 257.837C176.965 258.2 176.865 258.646 176.865 259.173ZM193.116 265.202C192.173 265.202 191.358 264.985 190.673 264.552C189.987 264.118 189.46 263.521 189.091 262.759C188.722 261.997 188.537 261.124 188.537 260.14C188.537 259.138 188.725 258.256 189.1 257.494C189.48 256.727 190.011 256.129 190.69 255.701C191.376 255.268 192.179 255.051 193.099 255.051C193.849 255.051 194.514 255.188 195.094 255.464C195.68 255.733 196.151 256.117 196.509 256.615C196.872 257.113 197.086 257.693 197.15 258.355H195.287C195.223 258.045 195.097 257.761 194.909 257.503C194.728 257.245 194.487 257.04 194.188 256.888C193.89 256.735 193.535 256.659 193.125 256.659C192.592 256.659 192.126 256.8 191.728 257.081C191.335 257.356 191.027 257.752 190.805 258.268C190.582 258.783 190.471 259.393 190.471 260.096C190.471 260.805 190.579 261.423 190.796 261.95C191.013 262.478 191.32 262.885 191.719 263.172C192.123 263.453 192.592 263.594 193.125 263.594C193.676 263.594 194.145 263.441 194.531 263.137C194.924 262.832 195.176 262.416 195.287 261.889H197.15C197.086 262.527 196.881 263.096 196.535 263.594C196.189 264.092 195.727 264.484 195.146 264.771C194.566 265.059 193.89 265.202 193.116 265.202ZM202.731 265.202C201.771 265.202 200.938 264.994 200.235 264.578C199.532 264.162 198.99 263.576 198.609 262.82C198.234 262.059 198.047 261.171 198.047 260.157C198.047 259.149 198.231 258.262 198.601 257.494C198.976 256.727 199.5 256.129 200.174 255.701C200.854 255.268 201.65 255.051 202.564 255.051C203.121 255.051 203.66 255.142 204.182 255.323C204.703 255.505 205.172 255.792 205.588 256.185C206.004 256.577 206.332 257.087 206.572 257.714C206.818 258.341 206.941 259.097 206.941 259.981V260.667H199.128V259.234H205.957L205.069 259.709C205.069 259.105 204.976 258.572 204.788 258.109C204.601 257.646 204.319 257.286 203.944 257.028C203.575 256.765 203.115 256.633 202.564 256.633C202.014 256.633 201.542 256.765 201.149 257.028C200.763 257.292 200.467 257.641 200.262 258.074C200.057 258.508 199.954 258.982 199.954 259.498V260.474C199.954 261.147 200.071 261.719 200.306 262.188C200.54 262.656 200.865 263.014 201.281 263.26C201.703 263.506 202.192 263.629 202.749 263.629C203.112 263.629 203.44 263.576 203.733 263.471C204.032 263.365 204.29 263.207 204.507 262.996C204.724 262.785 204.888 262.524 204.999 262.214L206.81 262.557C206.663 263.084 206.405 263.547 206.036 263.945C205.667 264.344 205.201 264.654 204.639 264.877C204.082 265.094 203.446 265.202 202.731 265.202ZM208.277 265V255.174H210.114V256.747H210.22C210.401 256.22 210.718 255.804 211.169 255.499C211.626 255.188 212.142 255.033 212.716 255.033C212.833 255.033 212.971 255.039 213.129 255.051C213.293 255.057 213.425 255.065 213.524 255.077V256.905C213.448 256.882 213.311 256.858 213.111 256.835C212.918 256.812 212.722 256.8 212.522 256.8C212.071 256.8 211.667 256.896 211.31 257.09C210.958 257.277 210.68 257.538 210.475 257.872C210.275 258.2 210.176 258.581 210.176 259.015V265H208.277ZM219.58 255.174V256.712H214.219V255.174H219.58ZM215.651 252.836H217.559V262.117C217.559 262.568 217.652 262.899 217.84 263.11C218.027 263.315 218.329 263.418 218.745 263.418C218.845 263.418 218.95 263.412 219.062 263.4C219.179 263.389 219.296 263.371 219.413 263.348L219.773 264.93C219.58 264.994 219.369 265.044 219.141 265.079C218.912 265.114 218.684 265.132 218.455 265.132C217.605 265.132 216.926 264.895 216.416 264.42C215.906 263.939 215.651 263.301 215.651 262.504V252.836ZM220.951 265V255.174H222.85V265H220.951ZM221.909 253.662C221.575 253.662 221.291 253.551 221.057 253.328C220.822 253.105 220.705 252.839 220.705 252.528C220.705 252.212 220.822 251.942 221.057 251.72C221.291 251.497 221.575 251.386 221.909 251.386C222.237 251.386 222.519 251.497 222.753 251.72C222.993 251.942 223.113 252.212 223.113 252.528C223.113 252.839 222.993 253.105 222.753 253.328C222.519 253.551 222.237 253.662 221.909 253.662ZM229.354 255.174V256.712H223.808V255.174H229.354ZM225.319 265V254.031C225.319 253.422 225.454 252.915 225.724 252.511C225.999 252.101 226.356 251.796 226.796 251.597C227.241 251.392 227.719 251.289 228.229 251.289C228.621 251.289 228.955 251.321 229.23 251.386C229.506 251.45 229.708 251.506 229.837 251.553L229.38 253.1C229.292 253.07 229.178 253.038 229.037 253.003C228.902 252.968 228.732 252.95 228.527 252.95C228.064 252.95 227.73 253.067 227.525 253.302C227.32 253.53 227.218 253.864 227.218 254.304V265H225.319ZM230.566 265V255.174H232.465V265H230.566ZM231.524 253.662C231.19 253.662 230.906 253.551 230.672 253.328C230.438 253.105 230.32 252.839 230.32 252.528C230.32 252.212 230.438 251.942 230.672 251.72C230.906 251.497 231.19 251.386 231.524 251.386C231.853 251.386 232.134 251.497 232.368 251.72C232.608 251.942 232.729 252.212 232.729 252.528C232.729 252.839 232.608 253.105 232.368 253.328C232.134 253.551 231.853 253.662 231.524 253.662ZM238.415 265.202C237.472 265.202 236.657 264.985 235.972 264.552C235.286 264.118 234.759 263.521 234.39 262.759C234.021 261.997 233.836 261.124 233.836 260.14C233.836 259.138 234.023 258.256 234.398 257.494C234.779 256.727 235.31 256.129 235.989 255.701C236.675 255.268 237.478 255.051 238.397 255.051C239.147 255.051 239.812 255.188 240.393 255.464C240.979 255.733 241.45 256.117 241.808 256.615C242.171 257.113 242.385 257.693 242.449 258.355H240.586C240.521 258.045 240.396 257.761 240.208 257.503C240.026 257.245 239.786 257.04 239.487 256.888C239.188 256.735 238.834 256.659 238.424 256.659C237.891 256.659 237.425 256.8 237.026 257.081C236.634 257.356 236.326 257.752 236.104 258.268C235.881 258.783 235.77 259.393 235.77 260.096C235.77 260.805 235.878 261.423 236.095 261.95C236.312 262.478 236.619 262.885 237.018 263.172C237.422 263.453 237.891 263.594 238.424 263.594C238.975 263.594 239.443 263.441 239.83 263.137C240.223 262.832 240.475 262.416 240.586 261.889H242.449C242.385 262.527 242.18 263.096 241.834 263.594C241.488 264.092 241.025 264.484 240.445 264.771C239.865 265.059 239.188 265.202 238.415 265.202ZM246.65 265.211C246.029 265.211 245.467 265.097 244.963 264.868C244.459 264.634 244.061 264.294 243.768 263.849C243.475 263.403 243.328 262.861 243.328 262.223C243.328 261.666 243.434 261.212 243.645 260.86C243.861 260.503 244.151 260.219 244.515 260.008C244.878 259.797 245.282 259.639 245.728 259.533C246.173 259.428 246.63 259.346 247.099 259.287C247.69 259.223 248.168 259.167 248.531 259.12C248.895 259.073 249.158 259 249.322 258.9C249.492 258.795 249.577 258.628 249.577 258.399V258.355C249.577 257.799 249.419 257.368 249.103 257.063C248.792 256.759 248.329 256.606 247.714 256.606C247.075 256.606 246.568 256.747 246.193 257.028C245.824 257.304 245.569 257.617 245.429 257.969L243.627 257.556C243.844 256.958 244.157 256.478 244.567 256.114C244.983 255.745 245.458 255.476 245.991 255.306C246.53 255.136 247.093 255.051 247.679 255.051C248.071 255.051 248.487 255.098 248.927 255.191C249.366 255.279 249.779 255.446 250.166 255.692C250.559 255.933 250.878 256.278 251.124 256.729C251.37 257.181 251.493 257.764 251.493 258.479V265H249.621V263.655H249.551C249.434 263.896 249.249 264.136 248.997 264.376C248.751 264.616 248.435 264.815 248.048 264.974C247.661 265.132 247.195 265.211 246.65 265.211ZM247.063 263.682C247.597 263.682 248.051 263.579 248.426 263.374C248.801 263.163 249.088 262.888 249.287 262.548C249.486 262.208 249.586 261.848 249.586 261.467V260.192C249.516 260.257 249.384 260.318 249.19 260.377C248.997 260.436 248.777 260.485 248.531 260.526C248.285 260.567 248.045 260.605 247.811 260.641C247.576 260.67 247.38 260.693 247.222 260.711C246.853 260.764 246.516 260.846 246.211 260.957C245.906 261.062 245.66 261.221 245.473 261.432C245.291 261.637 245.2 261.909 245.2 262.249C245.2 262.724 245.376 263.081 245.728 263.321C246.079 263.562 246.524 263.682 247.063 263.682ZM257.9 255.174V256.712H252.539V255.174H257.9ZM253.972 252.836H255.879V262.117C255.879 262.568 255.973 262.899 256.16 263.11C256.348 263.315 256.649 263.418 257.065 263.418C257.165 263.418 257.271 263.412 257.382 263.4C257.499 263.389 257.616 263.371 257.733 263.348L258.094 264.93C257.9 264.994 257.689 265.044 257.461 265.079C257.232 265.114 257.004 265.132 256.775 265.132C255.926 265.132 255.246 264.895 254.736 264.42C254.227 263.939 253.972 263.301 253.972 262.504V252.836ZM263.394 265.202C262.433 265.202 261.601 264.994 260.897 264.578C260.194 264.162 259.652 263.576 259.271 262.82C258.896 262.059 258.709 261.171 258.709 260.157C258.709 259.149 258.894 258.262 259.263 257.494C259.638 256.727 260.162 256.129 260.836 255.701C261.516 255.268 262.312 255.051 263.227 255.051C263.783 255.051 264.322 255.142 264.844 255.323C265.365 255.505 265.834 255.792 266.25 256.185C266.666 256.577 266.994 257.087 267.234 257.714C267.48 258.341 267.604 259.097 267.604 259.981V260.667H259.79V259.234H266.619L265.731 259.709C265.731 259.105 265.638 258.572 265.45 258.109C265.263 257.646 264.981 257.286 264.606 257.028C264.237 256.765 263.777 256.633 263.227 256.633C262.676 256.633 262.204 256.765 261.812 257.028C261.425 257.292 261.129 257.641 260.924 258.074C260.719 258.508 260.616 258.982 260.616 259.498V260.474C260.616 261.147 260.733 261.719 260.968 262.188C261.202 262.656 261.527 263.014 261.943 263.26C262.365 263.506 262.854 263.629 263.411 263.629C263.774 263.629 264.103 263.576 264.396 263.471C264.694 263.365 264.952 263.207 265.169 262.996C265.386 262.785 265.55 262.524 265.661 262.214L267.472 262.557C267.325 263.084 267.067 263.547 266.698 263.945C266.329 264.344 265.863 264.654 265.301 264.877C264.744 265.094 264.108 265.202 263.394 265.202ZM276.287 257.582L274.556 257.881C274.444 257.553 274.236 257.251 273.932 256.976C273.633 256.7 273.185 256.562 272.587 256.562C272.048 256.562 271.597 256.686 271.233 256.932C270.876 257.172 270.697 257.479 270.697 257.854C270.697 258.183 270.817 258.449 271.058 258.654C271.304 258.859 271.693 259.023 272.227 259.146L273.8 259.498C274.696 259.703 275.367 260.025 275.812 260.465C276.258 260.904 276.48 261.467 276.48 262.152C276.48 262.744 276.311 263.271 275.971 263.734C275.631 264.191 275.159 264.552 274.556 264.815C273.952 265.073 273.255 265.202 272.464 265.202C271.362 265.202 270.466 264.965 269.774 264.49C269.083 264.016 268.658 263.348 268.5 262.486L270.337 262.205C270.454 262.686 270.691 263.049 271.049 263.295C271.412 263.541 271.881 263.664 272.455 263.664C273.076 263.664 273.574 263.532 273.949 263.269C274.33 263.005 274.521 262.686 274.521 262.311C274.521 261.689 274.058 261.271 273.132 261.054L271.471 260.685C270.551 260.474 269.871 260.143 269.432 259.691C268.998 259.234 268.781 258.66 268.781 257.969C268.781 257.389 268.942 256.879 269.265 256.439C269.593 256 270.041 255.66 270.609 255.42C271.184 255.174 271.837 255.051 272.569 255.051C273.636 255.051 274.471 255.282 275.074 255.745C275.684 256.208 276.088 256.82 276.287 257.582ZM44.5898 279.174V280.712H39.0439V279.174H44.5898ZM40.5557 289V278.031C40.5557 277.422 40.6904 276.915 40.96 276.511C41.2354 276.101 41.5928 275.796 42.0322 275.597C42.4775 275.392 42.9551 275.289 43.4648 275.289C43.8574 275.289 44.1914 275.321 44.4668 275.386C44.7422 275.45 44.9443 275.506 45.0732 275.553L44.6162 277.1C44.5283 277.07 44.4141 277.038 44.2734 277.003C44.1387 276.968 43.9688 276.95 43.7637 276.95C43.3008 276.95 42.9668 277.067 42.7617 277.302C42.5566 277.53 42.4541 277.864 42.4541 278.304V289H40.5557ZM49.5381 289.202C48.6182 289.202 47.8125 288.991 47.1211 288.569C46.4355 288.147 45.9023 287.556 45.5215 286.794C45.1465 286.032 44.959 285.147 44.959 284.14C44.959 283.12 45.1465 282.229 45.5215 281.468C45.9023 280.7 46.4355 280.105 47.1211 279.684C47.8125 279.262 48.6182 279.051 49.5381 279.051C50.4639 279.051 51.2695 279.262 51.9551 279.684C52.6406 280.105 53.1738 280.7 53.5547 281.468C53.9355 282.229 54.126 283.12 54.126 284.14C54.126 285.147 53.9355 286.032 53.5547 286.794C53.1738 287.556 52.6406 288.147 51.9551 288.569C51.2695 288.991 50.4639 289.202 49.5381 289.202ZM49.5381 287.594C50.1416 287.594 50.6396 287.436 51.0322 287.119C51.4248 286.803 51.7148 286.384 51.9023 285.862C52.0957 285.335 52.1924 284.761 52.1924 284.14C52.1924 283.507 52.0957 282.927 51.9023 282.399C51.7148 281.872 51.4248 281.45 51.0322 281.134C50.6396 280.817 50.1416 280.659 49.5381 280.659C48.9404 280.659 48.4453 280.817 48.0527 281.134C47.666 281.45 47.376 281.872 47.1826 282.399C46.9893 282.927 46.8926 283.507 46.8926 284.14C46.8926 284.761 46.9893 285.335 47.1826 285.862C47.376 286.384 47.666 286.803 48.0527 287.119C48.4453 287.436 48.9404 287.594 49.5381 287.594ZM55.5059 289V279.174H57.3428V280.747H57.4482C57.6299 280.22 57.9463 279.804 58.3975 279.499C58.8545 279.188 59.3701 279.033 59.9443 279.033C60.0615 279.033 60.1992 279.039 60.3574 279.051C60.5215 279.057 60.6533 279.065 60.7529 279.077V280.905C60.6768 280.882 60.5391 280.858 60.3398 280.835C60.1465 280.812 59.9502 280.8 59.751 280.8C59.2998 280.8 58.8955 280.896 58.5381 281.09C58.1865 281.277 57.9082 281.538 57.7031 281.872C57.5039 282.2 57.4043 282.581 57.4043 283.015V289H55.5059ZM66.8789 292.674C66.5918 292.68 66.3311 292.659 66.0967 292.612C65.8682 292.571 65.6924 292.521 65.5693 292.463L66.0352 290.907L66.167 290.942C66.6533 291.065 67.0635 291.057 67.3975 290.916C67.7373 290.781 68.0215 290.403 68.25 289.782L68.4873 289.132L64.9014 279.174H66.9492L69.4277 286.803H69.5332L72.0205 279.174H74.0684L70.0254 290.301C69.8379 290.816 69.6006 291.25 69.3135 291.602C69.0264 291.959 68.6807 292.226 68.2764 292.401C67.8779 292.583 67.4121 292.674 66.8789 292.674ZM78.8936 289.202C77.9736 289.202 77.168 288.991 76.4766 288.569C75.791 288.147 75.2578 287.556 74.877 286.794C74.502 286.032 74.3145 285.147 74.3145 284.14C74.3145 283.12 74.502 282.229 74.877 281.468C75.2578 280.7 75.791 280.105 76.4766 279.684C77.168 279.262 77.9736 279.051 78.8936 279.051C79.8193 279.051 80.625 279.262 81.3105 279.684C81.9961 280.105 82.5293 280.7 82.9102 281.468C83.291 282.229 83.4814 283.12 83.4814 284.14C83.4814 285.147 83.291 286.032 82.9102 286.794C82.5293 287.556 81.9961 288.147 81.3105 288.569C80.625 288.991 79.8193 289.202 78.8936 289.202ZM78.8936 287.594C79.4971 287.594 79.9951 287.436 80.3877 287.119C80.7803 286.803 81.0703 286.384 81.2578 285.862C81.4512 285.335 81.5479 284.761 81.5479 284.14C81.5479 283.507 81.4512 282.927 81.2578 282.399C81.0703 281.872 80.7803 281.45 80.3877 281.134C79.9951 280.817 79.4971 280.659 78.8936 280.659C78.2959 280.659 77.8008 280.817 77.4082 281.134C77.0215 281.45 76.7314 281.872 76.5381 282.399C76.3447 282.927 76.248 283.507 76.248 284.14C76.248 284.761 76.3447 285.335 76.5381 285.862C76.7314 286.384 77.0215 286.803 77.4082 287.119C77.8008 287.436 78.2959 287.594 78.8936 287.594ZM91.084 284.939V279.174H92.9824V289H91.1191V287.295H91.0137C90.7793 287.816 90.416 288.253 89.9238 288.604C89.4316 288.956 88.8164 289.129 88.0781 289.123C87.4453 289.123 86.8857 288.985 86.3994 288.71C85.9189 288.435 85.541 288.021 85.2656 287.471C84.9961 286.92 84.8613 286.237 84.8613 285.423V279.174H86.7598V285.203C86.7598 285.865 86.9473 286.396 87.3223 286.794C87.6973 287.192 88.1807 287.389 88.7725 287.383C89.1299 287.383 89.4844 287.295 89.8359 287.119C90.1934 286.943 90.4893 286.674 90.7236 286.311C90.9639 285.947 91.084 285.49 91.084 284.939ZM94.8105 289V279.174H96.6475V280.747H96.7529C96.9346 280.22 97.251 279.804 97.7021 279.499C98.1592 279.188 98.6748 279.033 99.249 279.033C99.3662 279.033 99.5039 279.039 99.6621 279.051C99.8262 279.057 99.958 279.065 100.058 279.077V280.905C99.9814 280.882 99.8438 280.858 99.6445 280.835C99.4512 280.812 99.2549 280.8 99.0557 280.8C98.6045 280.8 98.2002 280.896 97.8428 281.09C97.4912 281.277 97.2129 281.538 97.0078 281.872C96.8086 282.2 96.709 282.581 96.709 283.015V289H94.8105ZM107.836 289.211C107.215 289.211 106.652 289.097 106.148 288.868C105.645 288.634 105.246 288.294 104.953 287.849C104.66 287.403 104.514 286.861 104.514 286.223C104.514 285.666 104.619 285.212 104.83 284.86C105.047 284.503 105.337 284.219 105.7 284.008C106.063 283.797 106.468 283.639 106.913 283.533C107.358 283.428 107.815 283.346 108.284 283.287C108.876 283.223 109.354 283.167 109.717 283.12C110.08 283.073 110.344 283 110.508 282.9C110.678 282.795 110.763 282.628 110.763 282.399V282.355C110.763 281.799 110.604 281.368 110.288 281.063C109.978 280.759 109.515 280.606 108.899 280.606C108.261 280.606 107.754 280.747 107.379 281.028C107.01 281.304 106.755 281.617 106.614 281.969L104.812 281.556C105.029 280.958 105.343 280.478 105.753 280.114C106.169 279.745 106.644 279.476 107.177 279.306C107.716 279.136 108.278 279.051 108.864 279.051C109.257 279.051 109.673 279.098 110.112 279.191C110.552 279.279 110.965 279.446 111.352 279.692C111.744 279.933 112.063 280.278 112.31 280.729C112.556 281.181 112.679 281.764 112.679 282.479V289H110.807V287.655H110.736C110.619 287.896 110.435 288.136 110.183 288.376C109.937 288.616 109.62 288.815 109.233 288.974C108.847 289.132 108.381 289.211 107.836 289.211ZM108.249 287.682C108.782 287.682 109.236 287.579 109.611 287.374C109.986 287.163 110.273 286.888 110.473 286.548C110.672 286.208 110.771 285.848 110.771 285.467V284.192C110.701 284.257 110.569 284.318 110.376 284.377C110.183 284.436 109.963 284.485 109.717 284.526C109.471 284.567 109.23 284.605 108.996 284.641C108.762 284.67 108.565 284.693 108.407 284.711C108.038 284.764 107.701 284.846 107.396 284.957C107.092 285.062 106.846 285.221 106.658 285.432C106.477 285.637 106.386 285.909 106.386 286.249C106.386 286.724 106.562 287.081 106.913 287.321C107.265 287.562 107.71 287.682 108.249 287.682ZM118.638 289.202C117.694 289.202 116.88 288.985 116.194 288.552C115.509 288.118 114.981 287.521 114.612 286.759C114.243 285.997 114.059 285.124 114.059 284.14C114.059 283.138 114.246 282.256 114.621 281.494C115.002 280.727 115.532 280.129 116.212 279.701C116.897 279.268 117.7 279.051 118.62 279.051C119.37 279.051 120.035 279.188 120.615 279.464C121.201 279.733 121.673 280.117 122.03 280.615C122.394 281.113 122.607 281.693 122.672 282.355H120.809C120.744 282.045 120.618 281.761 120.431 281.503C120.249 281.245 120.009 281.04 119.71 280.888C119.411 280.735 119.057 280.659 118.646 280.659C118.113 280.659 117.647 280.8 117.249 281.081C116.856 281.356 116.549 281.752 116.326 282.268C116.104 282.783 115.992 283.393 115.992 284.096C115.992 284.805 116.101 285.423 116.317 285.95C116.534 286.478 116.842 286.885 117.24 287.172C117.645 287.453 118.113 287.594 118.646 287.594C119.197 287.594 119.666 287.441 120.053 287.137C120.445 286.832 120.697 286.416 120.809 285.889H122.672C122.607 286.527 122.402 287.096 122.057 287.594C121.711 288.092 121.248 288.484 120.668 288.771C120.088 289.059 119.411 289.202 118.638 289.202ZM125.924 283.173V289H124.025V275.904H125.897V280.791H126.029C126.258 280.258 126.606 279.836 127.075 279.525C127.55 279.209 128.168 279.051 128.93 279.051C129.604 279.051 130.192 279.188 130.696 279.464C131.2 279.739 131.593 280.152 131.874 280.703C132.161 281.254 132.305 281.939 132.305 282.76V289H130.389V282.988C130.389 282.262 130.201 281.699 129.826 281.301C129.457 280.902 128.941 280.703 128.279 280.703C127.822 280.703 127.418 280.803 127.066 281.002C126.715 281.195 126.437 281.474 126.231 281.837C126.026 282.2 125.924 282.646 125.924 283.173ZM134.133 289V279.174H136.031V289H134.133ZM135.091 277.662C134.757 277.662 134.473 277.551 134.238 277.328C134.004 277.105 133.887 276.839 133.887 276.528C133.887 276.212 134.004 275.942 134.238 275.72C134.473 275.497 134.757 275.386 135.091 275.386C135.419 275.386 135.7 275.497 135.935 275.72C136.175 275.942 136.295 276.212 136.295 276.528C136.295 276.839 136.175 277.105 135.935 277.328C135.7 277.551 135.419 277.662 135.091 277.662ZM142.087 289.202C141.126 289.202 140.294 288.994 139.591 288.578C138.888 288.162 138.346 287.576 137.965 286.82C137.59 286.059 137.402 285.171 137.402 284.157C137.402 283.149 137.587 282.262 137.956 281.494C138.331 280.727 138.855 280.129 139.529 279.701C140.209 279.268 141.006 279.051 141.92 279.051C142.477 279.051 143.016 279.142 143.537 279.323C144.059 279.505 144.527 279.792 144.943 280.185C145.359 280.577 145.688 281.087 145.928 281.714C146.174 282.341 146.297 283.097 146.297 283.981V284.667H138.483V283.234H145.312L144.425 283.709C144.425 283.105 144.331 282.572 144.144 282.109C143.956 281.646 143.675 281.286 143.3 281.028C142.931 280.765 142.471 280.633 141.92 280.633C141.369 280.633 140.897 280.765 140.505 281.028C140.118 281.292 139.822 281.641 139.617 282.074C139.412 282.508 139.31 282.982 139.31 283.498V284.474C139.31 285.147 139.427 285.719 139.661 286.188C139.896 286.656 140.221 287.014 140.637 287.26C141.059 287.506 141.548 287.629 142.104 287.629C142.468 287.629 142.796 287.576 143.089 287.471C143.388 287.365 143.646 287.207 143.862 286.996C144.079 286.785 144.243 286.524 144.354 286.214L146.165 286.557C146.019 287.084 145.761 287.547 145.392 287.945C145.022 288.344 144.557 288.654 143.994 288.877C143.438 289.094 142.802 289.202 142.087 289.202ZM155.666 279.174L152.115 289H150.059L146.499 279.174H148.547L151.043 286.75H151.148L153.627 279.174H155.666ZM160.597 289.202C159.636 289.202 158.804 288.994 158.101 288.578C157.397 288.162 156.855 287.576 156.475 286.82C156.1 286.059 155.912 285.171 155.912 284.157C155.912 283.149 156.097 282.262 156.466 281.494C156.841 280.727 157.365 280.129 158.039 279.701C158.719 279.268 159.516 279.051 160.43 279.051C160.986 279.051 161.525 279.142 162.047 279.323C162.568 279.505 163.037 279.792 163.453 280.185C163.869 280.577 164.197 281.087 164.438 281.714C164.684 282.341 164.807 283.097 164.807 283.981V284.667H156.993V283.234H163.822L162.935 283.709C162.935 283.105 162.841 282.572 162.653 282.109C162.466 281.646 162.185 281.286 161.81 281.028C161.44 280.765 160.98 280.633 160.43 280.633C159.879 280.633 159.407 280.765 159.015 281.028C158.628 281.292 158.332 281.641 158.127 282.074C157.922 282.508 157.819 282.982 157.819 283.498V284.474C157.819 285.147 157.937 285.719 158.171 286.188C158.405 286.656 158.73 287.014 159.146 287.26C159.568 287.506 160.058 287.629 160.614 287.629C160.978 287.629 161.306 287.576 161.599 287.471C161.897 287.365 162.155 287.207 162.372 286.996C162.589 286.785 162.753 286.524 162.864 286.214L164.675 286.557C164.528 287.084 164.271 287.547 163.901 287.945C163.532 288.344 163.066 288.654 162.504 288.877C161.947 289.094 161.312 289.202 160.597 289.202ZM166.143 289V279.174H167.962V280.791H168.094C168.299 280.246 168.633 279.821 169.096 279.517C169.564 279.206 170.121 279.051 170.766 279.051C171.422 279.051 171.97 279.206 172.409 279.517C172.854 279.821 173.186 280.246 173.402 280.791H173.508C173.742 280.258 174.114 279.836 174.624 279.525C175.134 279.209 175.74 279.051 176.443 279.051C177.334 279.051 178.063 279.332 178.632 279.895C179.2 280.451 179.484 281.292 179.484 282.417V289H177.568V282.593C177.568 281.925 177.387 281.444 177.023 281.151C176.66 280.853 176.227 280.703 175.723 280.703C175.102 280.703 174.618 280.896 174.272 281.283C173.933 281.664 173.763 282.147 173.763 282.733V289H171.847V282.47C171.847 281.937 171.683 281.509 171.354 281.187C171.026 280.864 170.596 280.703 170.062 280.703C169.699 280.703 169.362 280.8 169.052 280.993C168.747 281.181 168.501 281.444 168.313 281.784C168.132 282.118 168.041 282.505 168.041 282.944V289H166.143ZM185.54 289.202C184.579 289.202 183.747 288.994 183.044 288.578C182.341 288.162 181.799 287.576 181.418 286.82C181.043 286.059 180.855 285.171 180.855 284.157C180.855 283.149 181.04 282.262 181.409 281.494C181.784 280.727 182.309 280.129 182.982 279.701C183.662 279.268 184.459 279.051 185.373 279.051C185.93 279.051 186.469 279.142 186.99 279.323C187.512 279.505 187.98 279.792 188.396 280.185C188.812 280.577 189.141 281.087 189.381 281.714C189.627 282.341 189.75 283.097 189.75 283.981V284.667H181.937V283.234H188.766L187.878 283.709C187.878 283.105 187.784 282.572 187.597 282.109C187.409 281.646 187.128 281.286 186.753 281.028C186.384 280.765 185.924 280.633 185.373 280.633C184.822 280.633 184.351 280.765 183.958 281.028C183.571 281.292 183.275 281.641 183.07 282.074C182.865 282.508 182.763 282.982 182.763 283.498V284.474C182.763 285.147 182.88 285.719 183.114 286.188C183.349 286.656 183.674 287.014 184.09 287.26C184.512 287.506 185.001 287.629 185.558 287.629C185.921 287.629 186.249 287.576 186.542 287.471C186.841 287.365 187.099 287.207 187.315 286.996C187.532 286.785 187.696 286.524 187.808 286.214L189.618 286.557C189.472 287.084 189.214 287.547 188.845 287.945C188.476 288.344 188.01 288.654 187.447 288.877C186.891 289.094 186.255 289.202 185.54 289.202ZM192.984 283.173V289H191.086V279.174H192.932V280.791H193.063C193.286 280.258 193.635 279.836 194.109 279.525C194.584 279.209 195.193 279.051 195.938 279.051C196.605 279.051 197.188 279.191 197.687 279.473C198.19 279.748 198.58 280.161 198.855 280.712C199.137 281.263 199.277 281.945 199.277 282.76V289H197.379V282.988C197.379 282.279 197.191 281.723 196.816 281.318C196.441 280.908 195.932 280.703 195.287 280.703C194.848 280.703 194.452 280.803 194.101 281.002C193.755 281.195 193.482 281.474 193.283 281.837C193.084 282.2 192.984 282.646 192.984 283.173ZM205.676 279.174V280.712H200.314V279.174H205.676ZM201.747 276.836H203.654V286.117C203.654 286.568 203.748 286.899 203.936 287.11C204.123 287.315 204.425 287.418 204.841 287.418C204.94 287.418 205.046 287.412 205.157 287.4C205.274 287.389 205.392 287.371 205.509 287.348L205.869 288.93C205.676 288.994 205.465 289.044 205.236 289.079C205.008 289.114 204.779 289.132 204.551 289.132C203.701 289.132 203.021 288.895 202.512 288.42C202.002 287.939 201.747 287.301 201.747 286.504V276.836ZM214.236 281.582L212.505 281.881C212.394 281.553 212.186 281.251 211.881 280.976C211.582 280.7 211.134 280.562 210.536 280.562C209.997 280.562 209.546 280.686 209.183 280.932C208.825 281.172 208.646 281.479 208.646 281.854C208.646 282.183 208.767 282.449 209.007 282.654C209.253 282.859 209.643 283.023 210.176 283.146L211.749 283.498C212.646 283.703 213.316 284.025 213.762 284.465C214.207 284.904 214.43 285.467 214.43 286.152C214.43 286.744 214.26 287.271 213.92 287.734C213.58 288.191 213.108 288.552 212.505 288.815C211.901 289.073 211.204 289.202 210.413 289.202C209.312 289.202 208.415 288.965 207.724 288.49C207.032 288.016 206.607 287.348 206.449 286.486L208.286 286.205C208.403 286.686 208.641 287.049 208.998 287.295C209.361 287.541 209.83 287.664 210.404 287.664C211.025 287.664 211.523 287.532 211.898 287.269C212.279 287.005 212.47 286.686 212.47 286.311C212.47 285.689 212.007 285.271 211.081 285.054L209.42 284.685C208.5 284.474 207.82 284.143 207.381 283.691C206.947 283.234 206.73 282.66 206.73 281.969C206.73 281.389 206.892 280.879 207.214 280.439C207.542 280 207.99 279.66 208.559 279.42C209.133 279.174 209.786 279.051 210.519 279.051C211.585 279.051 212.42 279.282 213.023 279.745C213.633 280.208 214.037 280.82 214.236 281.582Z" fill="#474645"/>
<path d="M216.027 171.242L195.888 157.027" stroke="#343433" stroke-width="7.61156" stroke-linecap="round" stroke-linejoin="round"/>
<path d="M282.34 181.015C265.322 182.282 252.442 200.889 265.162 221.174C262.519 222.804 258.778 226.152 258.778 226.152" stroke="#343433" stroke-width="7.61156" stroke-linecap="round" stroke-linejoin="round"/>
<path fill-rule="evenodd" clip-rule="evenodd" d="M257.944 214.89C258.525 216.603 259.257 218.331 260.15 220.064C259.579 220.507 259.037 220.943 258.561 221.335C257.898 221.88 257.323 222.371 256.912 222.726C256.707 222.904 256.542 223.049 256.427 223.15C256.369 223.201 256.324 223.241 256.293 223.269L256.256 223.302L256.245 223.311L256.242 223.314L256.24 223.315C256.24 223.315 256.24 223.316 258.778 226.152L256.24 223.315C254.674 224.717 254.54 227.123 255.942 228.69C257.344 230.256 259.75 230.389 261.316 228.988L261.322 228.982L261.348 228.959C261.373 228.937 261.411 228.904 261.46 228.86C261.56 228.771 261.708 228.642 261.895 228.481C262.268 228.157 262.793 227.709 263.396 227.214C264.641 226.19 266.071 225.085 267.159 224.413C268.023 223.881 268.638 223.026 268.868 222.038C269.099 221.05 268.925 220.012 268.387 219.152C266.938 216.843 265.872 214.587 265.137 212.407L257.944 214.89Z" fill="#FFCF7B"/>
<path d="M256.24 223.315L256.242 223.314L256.245 223.311L256.256 223.302L256.293 223.269C256.324 223.241 256.369 223.201 256.427 223.15C256.542 223.049 256.707 222.904 256.912 222.726C257.323 222.371 257.898 221.88 258.561 221.335C259.037 220.943 259.579 220.507 260.15 220.064C259.257 218.331 258.525 216.603 257.944 214.89L265.137 212.407C265.872 214.587 266.938 216.843 268.387 219.152C268.925 220.012 269.099 221.05 268.868 222.038C268.638 223.026 268.023 223.881 267.159 224.413C266.071 225.085 264.641 226.19 263.396 227.214C262.793 227.709 262.268 228.157 261.895 228.481C261.708 228.642 261.56 228.771 261.46 228.86C261.411 228.904 261.373 228.937 261.348 228.959L261.322 228.982L261.316 228.988C259.75 230.389 257.344 230.256 255.942 228.69C254.54 227.123 254.674 224.717 256.24 223.315ZM256.24 223.315C256.24 223.315 256.24 223.316 258.778 226.152L256.24 223.315Z" stroke="#FFCF7B" stroke-width="0.259292"/>
<path d="M294.51 174.028C277.424 189.232 274.834 211.68 299.266 220.497C297.839 223.674 296.661 229.404 296.661 229.404" stroke="#343433" stroke-width="7.61156" stroke-linecap="round" stroke-linejoin="round"/>
<path fill-rule="evenodd" clip-rule="evenodd" d="M289.224 219.745C290.807 220.801 292.55 221.77 294.454 222.642C294.181 223.542 293.941 224.42 293.743 225.189C293.495 226.15 293.294 227.004 293.154 227.619C293.085 227.927 293.03 228.176 292.992 228.351C292.974 228.439 292.959 228.508 292.949 228.556L292.937 228.613L292.934 228.629L292.933 228.634L292.932 228.636L292.932 228.637C292.932 228.637 292.932 228.637 296.66 229.404L292.932 228.637C292.508 230.696 293.834 232.708 295.893 233.131C297.952 233.555 299.964 232.229 300.387 230.171L300.388 230.17L300.389 230.162L300.398 230.121C300.406 230.084 300.418 230.026 300.434 229.951C300.467 229.8 300.515 229.577 300.578 229.299C300.705 228.74 300.888 227.963 301.112 227.094C301.579 225.289 302.165 223.329 302.737 222.055C303.171 221.089 303.183 219.985 302.769 219.01C302.355 218.034 301.554 217.276 300.557 216.916C297.682 215.879 295.274 214.663 293.281 213.313L289.224 219.745Z" fill="#FFCF7B" stroke="#FFCF7B" stroke-width="0.259292"/>
<path d="M198.05 168.184C198.05 175.126 199.017 181.844 200.824 188.208C201.549 190.761 203.94 192.43 206.594 192.43H234.901C242.944 192.43 250.877 194.292 258.08 197.87L271.253 204.414L284.427 197.87C291.63 194.292 299.563 192.43 307.606 192.43H335.913C338.567 192.43 340.958 190.761 341.683 188.208C343.49 181.844 344.457 175.126 344.457 168.184C344.457 168.036 344.456 167.885 344.455 167.733C344.433 163.896 341.807 160.644 338.149 159.483C330.352 157.007 321.965 157.116 314.235 159.794L308.09 161.922L332.739 137.279C334.68 135.339 335.151 132.345 333.717 130.005C330.098 124.098 325.663 118.743 320.568 114.098C318.233 111.969 314.662 112.206 312.427 114.44L286.513 140.348V101.658C286.513 98.7046 284.449 96.1253 281.525 95.7147C278.169 95.2436 274.74 95 271.255 95C267.769 95 264.34 95.2436 260.984 95.7147C258.06 96.1253 255.996 98.7046 255.996 101.658V140.35L230.08 114.44C227.845 112.206 224.274 111.97 221.939 114.099C216.846 118.743 212.411 124.096 208.791 130.002C207.356 132.342 207.827 135.337 209.769 137.278L233.305 161.922L228.274 159.794C220.544 157.116 212.155 157.007 204.358 159.483C200.701 160.644 198.074 163.896 198.052 167.734C198.051 167.886 198.05 168.036 198.05 168.184Z" fill="#DBD3FC"/>
<path d="M247.869 117.836L242.823 136.669C238.072 154.398 243.814 167.453 249.467 175.283C255.558 183.712 262.729 187.944 263.043 188.122C263.474 188.373 263.964 188.504 264.462 188.502C264.823 188.506 273.14 188.424 282.639 184.171C291.43 180.212 302.929 171.777 307.68 154.047L312.726 135.215C313.109 133.788 312.906 132.266 312.163 130.986C311.419 129.705 310.197 128.77 308.763 128.386L254.716 113.904C253.282 113.52 251.756 113.718 250.472 114.456C249.188 115.193 248.251 116.409 247.869 117.836Z" fill="#9E8BE6"/>
<path d="M278.943 149.432C278.353 158.14 288.524 158.993 289.391 150.308C289.982 141.6 279.811 140.748 278.943 149.432Z" fill="white"/>
<path d="M257.435 147.628C256.845 156.336 267.016 157.189 267.883 148.504C268.474 139.796 258.303 138.944 257.435 147.628Z" fill="white"/>
<path d="M344.459 185.382C344.459 185.382 338.948 181.364 335.969 178.194C333.248 175.299 329.813 170.102 329.813 170.102" stroke="#343433" stroke-width="7.61156" stroke-linecap="round" stroke-linejoin="round"/>
<path d="M277.323 67.4088C279.537 65.2282 281.442 66.8857 283.198 68.5813C284.067 66.301 285.099 64.0033 288.017 65.0378C290.772 66.4549 289.786 68.8115 288.716 70.9951C291.151 71.116 293.695 71.3929 293.6 74.4919C293.101 77.5469 290.56 77.3364 288.153 76.9926C288.792 79.3421 289.313 81.8416 286.34 82.7098C283.273 83.181 282.691 80.6906 282.271 78.292C280.221 79.6219 278.031 80.8864 276.274 78.325C274.883 75.5625 277.062 74.234 279.212 73.1002C277.312 71.5637 275.426 69.8738 277.32 67.4067L277.323 67.4088Z" fill="#DBD3FC"/>
<path d="M325.008 84.8379C322.491 86.6598 323.81 88.8147 325.19 90.8267C322.797 91.3051 320.36 91.9411 320.895 94.9912C321.836 97.9423 324.324 97.3618 326.654 96.6698C326.37 99.09 326.221 101.645 329.292 102.065C332.388 102.08 332.602 99.5404 332.662 97.1091C334.873 98.1298 337.251 99.0577 338.601 96.2693C339.575 93.324 337.215 92.3374 334.92 91.5237C336.571 89.7234 338.183 87.7735 335.948 85.6159C333.455 83.7865 331.783 85.7147 330.307 87.6463C329.108 85.5175 327.754 83.3771 325.007 84.8352L325.008 84.8379Z" fill="#DBD3FC"/>
<path d="M300.7 73.7967C302.3 71.1327 304.559 72.2624 306.682 73.4657C306.954 71.0403 307.38 68.5586 310.464 68.8311C313.486 69.5158 313.12 72.0442 312.628 74.4258C315.016 73.935 317.548 73.5675 318.23 76.593C318.509 79.6755 315.997 80.106 313.579 80.3733C314.785 82.4889 315.913 84.7793 313.251 86.3628C310.399 87.5843 309.214 85.318 308.207 83.1003C306.554 84.8998 304.75 86.6713 302.41 84.6295C300.374 82.3015 302.152 80.4708 303.951 78.836C301.727 77.8223 299.478 76.6566 300.697 73.7953L300.7 73.7967Z" fill="#DBD3FC"/>
<path d="M102.5 144.909C109.833 140.675 119 145.967 119 154.435L119 209.861C119 218.329 109.833 223.621 102.5 219.387L54.5 191.674C47.1667 187.44 47.1667 176.856 54.5 172.622L102.5 144.909Z" fill="#C0B3F8"/>
</svg>
