<svg width="39" height="30" viewBox="0 0 39 30" fill="none" xmlns="http://www.w3.org/2000/svg">
<path d="M38.9593 19.4745C38.9593 21.3219 38.7022 23.1094 38.2214 24.8029C38.0284 25.4825 37.3922 25.9267 36.6858 25.9267H29.1532C27.013 25.9267 24.902 26.4221 22.9853 27.3742L19.4797 29.1155L15.974 27.3742C14.0573 26.4221 11.9463 25.9267 9.80616 25.9267H2.27351C1.56715 25.9267 0.930885 25.4825 0.737971 24.8029C0.257175 23.1094 0 21.3219 0 19.4745C0 19.4351 0.000115913 19.3951 0.000347738 19.3546C0.00618386 18.3335 0.705184 17.4681 1.67843 17.1591C3.75318 16.5004 5.98522 16.5294 8.04215 17.2419L9.67729 17.8082L3.1181 11.2507C2.60164 10.7344 2.47613 9.93759 2.85772 9.31492C3.82098 7.74306 5.00116 6.31815 6.35682 5.08215C6.97817 4.51563 7.92852 4.57853 8.52316 5.17302L15.4191 12.0673V1.77166C15.4191 0.985819 15.9682 0.299438 16.7464 0.190182C17.6394 0.0648105 18.5518 0 19.4794 0C20.4069 0 21.3194 0.0648106 22.2124 0.190182C22.9906 0.299439 23.5396 0.985821 23.5396 1.77166V12.0678L30.436 5.17316C31.0307 4.57861 31.9812 4.51577 32.6026 5.08238C33.9578 6.31817 35.1379 7.74265 36.1013 9.31424C36.4831 9.93695 36.3576 10.7339 35.8411 11.2503L29.2815 17.8082L30.9168 17.2418C32.9738 16.5294 35.2059 16.5004 37.2807 17.1591C38.2541 17.4681 38.9532 18.3335 38.959 19.3547C38.9592 19.3952 38.9593 19.4352 38.9593 19.4745Z" fill="#FF3400"/>
</svg>
