<svg width="160" height="120" viewBox="0 0 160 120" fill="none" xmlns="http://www.w3.org/2000/svg">
<path d="M159.422 80.263C159.422 87.8391 158.37 95.1696 156.403 102.115C155.613 104.901 153.01 106.723 150.119 106.723H119.295C110.538 106.723 101.899 108.755 94.0563 112.659L79.7112 119.8L65.366 112.659C57.5229 108.755 48.8844 106.723 40.127 106.723H9.30327C6.41282 106.723 3.8092 104.901 3.01979 102.115C1.05236 95.1696 0 87.8391 0 80.263C0 80.1016 0.000474318 79.9376 0.00142295 79.7712C0.0253045 75.5838 2.88563 72.0352 6.86815 70.768C15.3581 68.0665 24.4916 68.1855 32.9086 71.1073L39.5997 73.4299L12.7593 46.5381C10.6459 44.4206 10.1324 41.1531 11.6938 38.5996C15.6355 32.1535 20.4648 26.3101 26.0122 21.2414C28.5548 18.9182 32.4436 19.1761 34.8769 21.6141L63.0954 49.8867V7.66541C63.0954 4.44275 65.342 1.62796 68.5265 1.17991C72.1806 0.665776 75.9145 0.399994 79.71 0.399994C83.5055 0.399994 87.2393 0.665776 90.8935 1.17991C94.0779 1.62796 96.3246 4.44275 96.3246 7.66542V49.8891L124.545 21.6146C126.978 19.1764 130.868 18.9187 133.41 21.2424C138.956 26.3102 143.785 32.1519 147.727 38.5968C149.289 41.1505 148.776 44.4186 146.662 46.5364L119.82 73.4299L126.512 71.1071C134.929 68.1854 144.063 68.0664 152.553 70.7679C156.536 72.0352 159.397 75.5841 159.421 79.772C159.422 79.9381 159.422 80.1019 159.422 80.263Z" fill="#FF3400"/>
</svg>
