<svg width="1213" height="467" viewBox="0 0 1213 467" fill="none" xmlns="http://www.w3.org/2000/svg">
<path d="M616 384.667L616 460L529.571 460M616 384.667L616 309.333M616 384.667L529.571 384.667M616 309.333L616 234M616 309.333L529.571 309.333M616 234L616 158.667M616 234L529.571 234M616 158.667L616 83.3334M616 158.667L529.571 158.667M616 83.3334L616 8.00007L529.571 8.00006M616 83.3334L529.571 83.3334M529.571 460L529.571 384.667M529.571 460L443.143 460M529.571 384.667L529.571 309.333M529.571 384.667L443.143 384.667M529.571 309.333L529.571 234M529.571 309.333L443.143 309.333M529.571 234L529.571 158.667M529.571 234L443.143 234M529.571 158.667L529.571 83.3334M529.571 158.667L443.143 158.667M529.571 83.3334L529.571 8.00006M529.571 83.3334L443.143 83.3334M529.571 8.00006L443.143 8.00006M443.143 460L443.143 384.667M443.143 460L356.714 460M443.143 384.667L443.143 309.333M443.143 384.667L356.714 384.667M443.143 309.333L443.143 234M443.143 309.333L356.714 309.333M443.143 234L443.143 158.667M443.143 234L356.714 234M443.143 158.667L443.143 83.3334M443.143 158.667L356.714 158.667M443.143 83.3334L443.143 8.00006M443.143 83.3334L356.714 83.3334M443.143 8.00006L356.714 8.00005M356.714 460L356.714 384.667M356.714 460L270.286 460M356.714 384.667L356.714 309.333M356.714 384.667L270.286 384.667M356.714 309.333L356.714 234M356.714 309.333L270.286 309.333M356.714 234L356.714 158.667M356.714 234L270.286 234M356.714 158.667L356.714 83.3334M356.714 158.667L270.286 158.667M356.714 83.3334L356.714 8.00005M356.714 83.3334L270.286 83.3334M356.714 8.00005L270.286 8.00004M270.286 460L270.286 384.667M270.286 460L183.857 460M270.286 384.667L270.286 309.333M270.286 384.667L183.857 384.667M270.286 309.333L270.286 234M270.286 309.333L183.857 309.333M270.286 234L270.286 158.667M270.286 234L183.857 234M270.286 158.667L270.286 83.3334M270.286 158.667L183.857 158.667M270.286 83.3334L270.286 8.00004M270.286 83.3334L183.857 83.3334M270.286 8.00004L183.857 8.00003M183.857 460L183.857 384.667M183.857 460L97.4285 460M183.857 384.667L183.857 309.333M183.857 384.667L97.4285 384.667M183.857 309.333L183.857 234M183.857 309.333L97.4285 309.333M183.857 234L183.857 158.667M183.857 234L97.4285 234M183.857 158.667L183.857 83.3334M183.857 158.667L97.4285 158.667M183.857 83.3334L183.857 8.00003M183.857 83.3334L97.4285 83.3334M183.857 8.00003L97.4286 8.00003M97.4285 460L97.4285 384.667M97.4285 460L10.9999 460L10.9999 384.667M97.4285 384.667L97.4285 309.333M97.4285 384.667L10.9999 384.667M97.4285 309.333L97.4285 234M97.4285 309.333L10.9999 309.333M97.4285 234L97.4285 158.667M97.4285 234L11 234M97.4285 158.667L97.4285 83.3334M97.4285 158.667L11 158.667M97.4285 83.3334L97.4286 8.00003M97.4285 83.3334L11 83.3333M97.4286 8.00003L11 8.00002L11 83.3333M10.9999 384.667L10.9999 309.333M10.9999 309.333L11 234M11 234L11 158.667M11 158.667L11 83.3333" stroke="url(#paint0_linear_0_1)" stroke-opacity="0.7" stroke-width="1.50545"/>
<path d="M598 384.667L598 460L684.286 460M598 384.667L598 309.333M598 384.667L684.286 384.667M598 309.333L598 234M598 309.333L684.286 309.333M598 234L598 158.667M598 234L684.286 234M598 158.667L598 83.3334M598 158.667L684.286 158.667M598 83.3334L598 8.00007L684.286 8.00006M598 83.3334L684.286 83.3334M684.286 460L684.286 384.667M684.286 460L770.571 460M684.286 384.667L684.286 309.333M684.286 384.667L770.571 384.667M684.286 309.333L684.286 234M684.286 309.333L770.571 309.333M684.286 234L684.286 158.667M684.286 234L770.571 234M684.286 158.667L684.286 83.3334M684.286 158.667L770.571 158.667M684.286 83.3334L684.286 8.00006M684.286 83.3334L770.571 83.3334M684.286 8.00006L770.571 8.00006M770.571 460L770.571 384.667M770.571 460L856.857 460M770.571 384.667L770.571 309.333M770.571 384.667L856.857 384.667M770.571 309.333L770.571 234M770.571 309.333L856.857 309.333M770.571 234L770.571 158.667M770.571 234L856.857 234M770.571 158.667L770.571 83.3334M770.571 158.667L856.857 158.667M770.571 83.3334L770.571 8.00006M770.571 83.3334L856.857 83.3334M770.571 8.00006L856.857 8.00005M856.857 460L856.857 384.667M856.857 460L943.143 460M856.857 384.667L856.857 309.333M856.857 384.667L943.143 384.667M856.857 309.333L856.857 234M856.857 309.333L943.143 309.333M856.857 234L856.857 158.667M856.857 234L943.143 234M856.857 158.667L856.857 83.3334M856.857 158.667L943.143 158.667M856.857 83.3334L856.857 8.00005M856.857 83.3334L943.143 83.3334M856.857 8.00005L943.143 8.00004M943.143 460L943.143 384.667M943.143 460L1029.43 460M943.143 384.667L943.143 309.333M943.143 384.667L1029.43 384.667M943.143 309.333L943.143 234M943.143 309.333L1029.43 309.333M943.143 234L943.143 158.667M943.143 234L1029.43 234M943.143 158.667L943.143 83.3334M943.143 158.667L1029.43 158.667M943.143 83.3334L943.143 8.00004M943.143 83.3334L1029.43 83.3334M943.143 8.00004L1029.43 8.00003M1029.43 460L1029.43 384.667M1029.43 460L1115.71 460M1029.43 384.667L1029.43 309.333M1029.43 384.667L1115.71 384.667M1029.43 309.333L1029.43 234M1029.43 309.333L1115.71 309.333M1029.43 234L1029.43 158.667M1029.43 234L1115.71 234M1029.43 158.667L1029.43 83.3334M1029.43 158.667L1115.71 158.667M1029.43 83.3334L1029.43 8.00003M1029.43 83.3334L1115.71 83.3334M1029.43 8.00003L1115.71 8.00003M1115.71 460L1115.71 384.667M1115.71 460L1202 460L1202 384.667M1115.71 384.667L1115.71 309.333M1115.71 384.667L1202 384.667M1115.71 309.333L1115.71 234M1115.71 309.333L1202 309.333M1115.71 234L1115.71 158.667M1115.71 234L1202 234M1115.71 158.667L1115.71 83.3334M1115.71 158.667L1202 158.667M1115.71 83.3334L1115.71 8.00003M1115.71 83.3334L1202 83.3333M1115.71 8.00003L1202 8.00002L1202 83.3333M1202 384.667L1202 309.333M1202 309.333L1202 234M1202 234L1202 158.667M1202 158.667L1202 83.3333" stroke="url(#paint1_linear_0_1)" stroke-opacity="0.7" stroke-width="1.50545"/>
<path d="M1055.88 117.858L871.645 238.23L922.735 297.062L1114.32 198.751L1055.88 117.858Z" fill="url(#paint2_linear_0_1)"/>
<rect x="864.499" y="233.794" width="66.9292" height="66.9292" rx="17.8768" fill="#FF4E00" stroke="#F9F9F3" stroke-width="5.00145"/>
<mask id="path-5-outside-1_0_1" maskUnits="userSpaceOnUse" x="877.056" y="265.764" width="42" height="21" fill="black">
<rect fill="white" x="877.056" y="265.764" width="42" height="21"/>
<path fill-rule="evenodd" clip-rule="evenodd" d="M883.336 271.764C883.16 272.058 883.058 272.403 883.056 272.772L883.056 272.873C883.056 274.417 883.254 275.91 883.624 277.326C883.773 277.894 884.263 278.265 884.807 278.265H890.609C892.258 278.265 893.884 278.679 895.361 279.475L898.061 280.93L900.761 279.475C902.238 278.679 903.864 278.265 905.513 278.265H911.315C911.859 278.265 912.349 277.894 912.498 277.326C912.868 275.91 913.066 274.417 913.066 272.873L913.066 272.773C913.064 272.403 912.962 272.058 912.786 271.764H883.336Z"/>
</mask>
<path fill-rule="evenodd" clip-rule="evenodd" d="M883.336 271.764C883.16 272.058 883.058 272.403 883.056 272.772L883.056 272.873C883.056 274.417 883.254 275.91 883.624 277.326C883.773 277.894 884.263 278.265 884.807 278.265H890.609C892.258 278.265 893.884 278.679 895.361 279.475L898.061 280.93L900.761 279.475C902.238 278.679 903.864 278.265 905.513 278.265H911.315C911.859 278.265 912.349 277.894 912.498 277.326C912.868 275.91 913.066 274.417 913.066 272.873L913.066 272.773C913.064 272.403 912.962 272.058 912.786 271.764H883.336Z" fill="#FF4E00"/>
<path d="M883.056 272.772L878.054 272.746L878.054 272.759L883.056 272.772ZM883.336 271.764V266.763H880.502L879.046 269.193L883.336 271.764ZM883.056 272.873L878.054 272.859V272.873H883.056ZM883.624 277.326L878.786 278.592V278.592L883.624 277.326ZM895.361 279.475L897.733 275.072L897.733 275.072L895.361 279.475ZM898.061 280.93L895.688 285.333L898.061 286.611L900.434 285.333L898.061 280.93ZM900.761 279.475L898.389 275.072L898.389 275.072L900.761 279.475ZM912.498 277.326L907.659 276.06V276.06L912.498 277.326ZM913.066 272.873H918.068L918.068 272.859L913.066 272.873ZM913.066 272.773L918.067 272.759L918.067 272.746L913.066 272.773ZM912.786 271.764L917.076 269.193L915.619 266.763H912.786V271.764ZM888.057 272.799C888.054 273.343 887.902 273.875 887.626 274.336L879.046 269.193C878.418 270.241 878.061 271.463 878.054 272.746L888.057 272.799ZM888.057 272.886L888.057 272.786L878.054 272.759L878.054 272.859L888.057 272.886ZM888.463 276.06C888.2 275.056 888.057 273.988 888.057 272.873H878.054C878.054 274.845 878.307 276.765 878.786 278.592L888.463 276.06ZM884.807 273.263C886.596 273.263 888.05 274.485 888.463 276.06L878.786 278.592C879.495 281.303 881.929 283.266 884.807 283.266V273.263ZM890.609 273.263H884.807V283.266H890.609V273.263ZM897.733 275.072C895.541 273.89 893.101 273.263 890.609 273.263V283.266C891.415 283.266 892.227 283.468 892.988 283.877L897.733 275.072ZM900.434 276.527L897.733 275.072L892.988 283.877L895.688 285.333L900.434 276.527ZM898.389 275.072L895.688 276.527L900.434 285.333L903.134 283.877L898.389 275.072ZM905.513 273.263C903.021 273.263 900.581 273.89 898.389 275.072L903.134 283.877C903.895 283.468 904.707 283.266 905.513 283.266V273.263ZM911.315 273.263H905.513V283.266H911.315V273.263ZM907.659 276.06C908.071 274.485 909.526 273.263 911.315 273.263V283.266C914.193 283.266 916.627 281.303 917.336 278.592L907.659 276.06ZM908.065 272.873C908.065 273.988 907.922 275.056 907.659 276.06L917.336 278.592C917.815 276.765 918.068 274.845 918.068 272.873H908.065ZM908.065 272.786L908.065 272.886L918.068 272.859L918.067 272.759L908.065 272.786ZM908.496 274.336C908.22 273.875 908.068 273.343 908.065 272.799L918.067 272.746C918.061 271.463 917.704 270.241 917.076 269.193L908.496 274.336ZM912.786 266.763H883.336V276.766H912.786V266.763Z" fill="#F6A37F" mask="url(#path-5-outside-1_0_1)"/>
<path d="M898.043 251.419C898.912 251.419 899.768 251.48 900.607 251.598C902.579 251.875 903.837 253.582 903.837 255.357V257.672L905.162 256.348L905.29 256.225C906.645 254.993 908.842 254.799 910.372 256.195C911.644 257.354 912.752 258.692 913.657 260.168C914.62 261.739 914.25 263.646 913.082 264.814L912.615 265.28C912.824 265.332 913.032 265.389 913.238 265.454C914.904 265.983 916.246 267.489 916.339 269.416L916.344 269.605V269.716C916.344 271.448 916.103 273.127 915.65 274.721C915.164 276.434 913.598 277.45 911.999 277.45H905.89C904.54 277.45 903.208 277.762 901.999 278.363L899.155 279.776L898.043 280.328L896.931 279.776L894.087 278.363C892.878 277.762 891.547 277.45 890.197 277.45H884.087C882.488 277.45 880.923 276.434 880.436 274.721C879.984 273.127 879.742 271.448 879.742 269.716C879.742 269.679 879.743 269.642 879.743 269.605L879.748 269.416C879.841 267.489 881.182 265.983 882.848 265.454C883.053 265.389 883.261 265.332 883.47 265.28L883.004 264.814C881.836 263.646 881.466 261.74 882.429 260.169L882.777 259.621C883.613 258.36 884.601 257.21 885.714 256.195L885.864 256.065C887.385 254.813 889.485 255.033 890.796 256.225L890.925 256.348L892.249 257.671V255.357C892.249 253.582 893.507 251.875 895.478 251.598L896.111 251.521C896.747 251.454 897.391 251.419 898.043 251.419Z" fill="#FF4E00" stroke="white" stroke-width="5.00145"/>
<rect x="1044.39" y="117.21" width="81.8028" height="81.8028" rx="26.359" fill="white" stroke="#7491FF" stroke-width="4.39316"/>
<path d="M163.121 119L347.355 239.372L296.265 298.203L104.676 199.893L163.121 119Z" fill="url(#paint3_linear_0_1)"/>
<rect x="2.50072" y="-2.50072" width="66.9292" height="66.9292" rx="17.8768" transform="matrix(-1 0 0 1 357.001 237.437)" fill="#8B6EFD" stroke="#F9F9F3" stroke-width="5.00145"/>
<mask id="path-11-outside-2_0_1" maskUnits="userSpaceOnUse" x="299.944" y="266.906" width="42" height="21" fill="black">
<rect fill="white" x="299.944" y="266.906" width="42" height="21"/>
<path fill-rule="evenodd" clip-rule="evenodd" d="M335.664 272.906C335.84 273.199 335.942 273.545 335.944 273.914L335.944 274.014C335.944 275.558 335.746 277.052 335.376 278.467C335.227 279.035 334.737 279.407 334.193 279.407H328.391C326.742 279.407 325.116 279.821 323.639 280.616L320.939 282.072L318.239 280.616C316.762 279.821 315.136 279.407 313.487 279.407H307.685C307.141 279.407 306.651 279.035 306.502 278.467C306.132 277.052 305.934 275.558 305.934 274.014L305.934 273.914C305.936 273.545 306.038 273.2 306.214 272.906H335.664Z"/>
</mask>
<path fill-rule="evenodd" clip-rule="evenodd" d="M335.664 272.906C335.84 273.199 335.942 273.545 335.944 273.914L335.944 274.014C335.944 275.558 335.746 277.052 335.376 278.467C335.227 279.035 334.737 279.407 334.193 279.407H328.391C326.742 279.407 325.116 279.821 323.639 280.616L320.939 282.072L318.239 280.616C316.762 279.821 315.136 279.407 313.487 279.407H307.685C307.141 279.407 306.651 279.035 306.502 278.467C306.132 277.052 305.934 275.558 305.934 274.014L305.934 273.914C305.936 273.545 306.038 273.2 306.214 272.906H335.664Z" fill="#FF4E00"/>
<path d="M335.944 273.914L340.946 273.888L340.946 273.901L335.944 273.914ZM335.664 272.906V267.905H338.498L339.954 270.335L335.664 272.906ZM335.944 274.014L340.946 274.001V274.014H335.944ZM335.376 278.467L340.214 279.734V279.734L335.376 278.467ZM323.639 280.616L321.267 276.213L321.267 276.213L323.639 280.616ZM320.939 282.072L323.312 286.474L320.939 287.753L318.566 286.474L320.939 282.072ZM318.239 280.616L320.611 276.213L320.611 276.213L318.239 280.616ZM306.502 278.467L311.341 277.201V277.201L306.502 278.467ZM305.934 274.014H300.932L300.932 274.001L305.934 274.014ZM305.934 273.914L300.933 273.901L300.933 273.888L305.934 273.914ZM306.214 272.906L301.924 270.335L303.381 267.905H306.214V272.906ZM330.943 273.94C330.946 274.485 331.098 275.016 331.374 275.477L339.954 270.335C340.582 271.383 340.939 272.604 340.946 273.888L330.943 273.94ZM330.943 274.028L330.943 273.927L340.946 273.901L340.946 274.001L330.943 274.028ZM330.537 277.201C330.8 276.198 330.943 275.129 330.943 274.014H340.946C340.946 275.987 340.693 277.906 340.214 279.734L330.537 277.201ZM334.193 274.405C332.404 274.405 330.95 275.626 330.537 277.201L340.214 279.734C339.505 282.444 337.071 284.408 334.193 284.408V274.405ZM328.391 274.405H334.193V284.408H328.391V274.405ZM321.267 276.213C323.459 275.032 325.899 274.405 328.391 274.405V284.408C327.585 284.408 326.773 284.609 326.012 285.019L321.267 276.213ZM318.566 277.669L321.267 276.213L326.012 285.019L323.312 286.474L318.566 277.669ZM320.611 276.213L323.312 277.669L318.566 286.474L315.866 285.019L320.611 276.213ZM313.487 274.405C315.979 274.405 318.419 275.032 320.611 276.213L315.866 285.019C315.105 284.609 314.293 284.408 313.487 284.408V274.405ZM307.685 274.405H313.487V284.408H307.685V274.405ZM311.341 277.201C310.929 275.626 309.474 274.405 307.685 274.405V284.408C304.807 284.408 302.373 282.444 301.664 279.734L311.341 277.201ZM310.935 274.014C310.935 275.129 311.078 276.198 311.341 277.201L301.664 279.734C301.186 277.906 300.932 275.987 300.932 274.014H310.935ZM310.935 273.927L310.935 274.028L300.932 274.001L300.933 273.901L310.935 273.927ZM310.504 275.477C310.78 275.016 310.933 274.485 310.935 273.94L300.933 273.888C300.939 272.604 301.296 271.383 301.924 270.335L310.504 275.477ZM306.214 267.905H335.664V277.907H306.214V267.905Z" fill="#B09CFF" mask="url(#path-11-outside-2_0_1)"/>
<path d="M320.957 252.561C320.088 252.561 319.232 252.622 318.393 252.74C316.421 253.016 315.163 254.724 315.163 256.498V258.814L313.838 257.49L313.71 257.366C312.356 256.135 310.158 255.941 308.628 257.336C307.356 258.496 306.248 259.834 305.343 261.31C304.38 262.881 304.75 264.787 305.918 265.955L306.385 266.421C306.176 266.474 305.968 266.531 305.762 266.596C304.096 267.125 302.754 268.631 302.661 270.558L302.656 270.746V270.858C302.656 272.589 302.897 274.269 303.35 275.863C303.836 277.576 305.402 278.592 307.001 278.592H313.11C314.46 278.592 315.792 278.904 317.001 279.504L319.845 280.917L320.957 281.47L322.069 280.917L324.913 279.504C326.122 278.904 327.453 278.592 328.803 278.592H334.913C336.512 278.592 338.077 277.575 338.564 275.863C339.016 274.269 339.258 272.589 339.258 270.858C339.258 270.821 339.257 270.784 339.257 270.746L339.252 270.558C339.159 268.631 337.818 267.125 336.152 266.596C335.947 266.531 335.739 266.474 335.53 266.421L335.996 265.955C337.164 264.787 337.534 262.882 336.571 261.311L336.223 260.763C335.387 259.502 334.399 258.351 333.286 257.336L333.136 257.206C331.615 255.954 329.515 256.174 328.204 257.366L328.075 257.49L326.751 258.813V256.498C326.751 254.724 325.493 253.016 323.522 252.74L322.889 252.662C322.253 252.596 321.609 252.561 320.957 252.561Z" fill="#8B6EFD" stroke="white" stroke-width="5.00145"/>
<rect x="2.19658" y="-2.19658" width="81.8028" height="81.8028" rx="26.359" transform="matrix(-1 0 0 1 176.803 120.548)" fill="white" stroke="#FF4E00" stroke-width="4.39316"/>
<rect x="2.19658" y="-2.19658" width="41.3932" height="41.3932" rx="20.6966" transform="matrix(-1 0 0 1 160.394 331)" fill="white" stroke="#7491FF" stroke-width="4.39316"/>
<rect x="2.19658" y="-2.19658" width="41.3932" height="41.3932" rx="20.6966" transform="matrix(-1 0 0 1 1099.39 331)" stroke="#C7E211" stroke-width="4.39316"/>
<path d="M391.875 104.701C391.682 103.574 392.996 102.815 393.877 103.546C399.411 108.139 406.676 110.086 413.766 108.875C414.893 108.682 415.652 109.996 414.921 110.877C410.327 116.411 408.381 123.676 409.592 130.765C409.785 131.893 408.471 132.652 407.59 131.921C402.056 127.327 394.791 125.381 387.701 126.592C386.574 126.784 385.815 125.47 386.546 124.59C391.14 119.056 393.086 111.791 391.875 104.701Z" fill="#8B6EFD"/>
<rect x="894.129" y="102.479" width="29.5575" height="29.5575" rx="7.6" transform="rotate(15 894.129 102.479)" fill="#FABFB0"/>
<rect x="1191" width="22" height="22" rx="11" fill="#F9F9F3"/>
<circle cx="1202" cy="11" r="3" fill="#E4E4D9"/>
<rect x="1191" y="445" width="22" height="22" rx="11" fill="#F9F9F3"/>
<circle cx="1202" cy="456" r="3" fill="#E4E4D9"/>
<rect y="445" width="22" height="22" rx="11" fill="#F9F9F3"/>
<circle cx="11" cy="456" r="3" fill="#E4E4D9"/>
<rect y="3" width="22" height="22" rx="11" fill="#F9F9F3"/>
<circle cx="11" cy="14" r="3" fill="#E4E4D9"/>
<path d="M1090.92 171.612C1090.92 171.91 1090.8 172.196 1090.59 172.407C1090.38 172.618 1090.09 172.737 1089.79 172.737H1080.79C1080.5 172.737 1080.21 172.618 1080 172.407C1079.79 172.196 1079.67 171.91 1079.67 171.612C1079.67 171.313 1079.79 171.027 1080 170.816C1080.21 170.605 1080.5 170.487 1080.79 170.487H1089.79C1090.09 170.487 1090.38 170.605 1090.59 170.816C1090.8 171.027 1090.92 171.313 1090.92 171.612ZM1099.92 149.112V164.862C1099.92 165.757 1099.56 166.615 1098.93 167.248C1098.3 167.881 1097.44 168.237 1096.54 168.237H1074.04C1073.15 168.237 1072.29 167.881 1071.66 167.248C1071.03 166.615 1070.67 165.757 1070.67 164.862V149.112C1070.67 148.216 1071.03 147.358 1071.66 146.725C1072.29 146.092 1073.15 145.737 1074.04 145.737H1096.54C1097.44 145.737 1098.3 146.092 1098.93 146.725C1099.56 147.358 1099.92 148.216 1099.92 149.112ZM1090.36 156.987C1090.36 156.806 1090.31 156.628 1090.23 156.467C1090.15 156.307 1090.03 156.169 1089.88 156.065L1084.25 152.128C1084.08 152.01 1083.89 151.94 1083.68 151.927C1083.48 151.913 1083.27 151.956 1083.09 152.051C1082.91 152.146 1082.75 152.29 1082.65 152.466C1082.54 152.641 1082.48 152.843 1082.48 153.049V160.924C1082.48 161.13 1082.54 161.332 1082.65 161.508C1082.75 161.684 1082.91 161.827 1083.09 161.922C1083.27 162.017 1083.48 162.06 1083.68 162.046C1083.89 162.033 1084.08 161.963 1084.25 161.845L1089.88 157.908C1090.03 157.804 1090.15 157.666 1090.23 157.506C1090.31 157.345 1090.36 157.167 1090.36 156.987Z" fill="#7491FF"/>
<defs>
<linearGradient id="paint0_linear_0_1" x1="71.563" y1="288.552" x2="675.298" y2="288.552" gradientUnits="userSpaceOnUse">
<stop stop-color="#E5E5E0"/>
<stop offset="1" stop-color="#CFD1D3" stop-opacity="0"/>
</linearGradient>
<linearGradient id="paint1_linear_0_1" x1="1141.54" y1="288.552" x2="538.8" y2="288.552" gradientUnits="userSpaceOnUse">
<stop stop-color="#E5E5E0"/>
<stop offset="1" stop-color="#CFD1D3" stop-opacity="0"/>
</linearGradient>
<linearGradient id="paint2_linear_0_1" x1="973.611" y1="216.009" x2="890.148" y2="269.828" gradientUnits="userSpaceOnUse">
<stop stop-color="#7491FF" stop-opacity="0.42"/>
<stop offset="1" stop-color="#FF4E00" stop-opacity="0.56"/>
</linearGradient>
<linearGradient id="paint3_linear_0_1" x1="198.5" y1="199.5" x2="283.988" y2="252.756" gradientUnits="userSpaceOnUse">
<stop stop-color="#FFC3A7"/>
<stop offset="1" stop-color="#AC97FE"/>
</linearGradient>
</defs>
</svg>
