<svg width="48" height="39" viewBox="0 0 48 39" fill="none" xmlns="http://www.w3.org/2000/svg">
<path d="M23.9998 2.44226C25.0205 2.44227 26.0258 2.51397 27.0106 2.65222C28.8606 2.91195 30.0603 4.51852 30.0604 6.21375V11.6815L33.5428 8.20105L33.6649 8.08386C34.9162 6.94557 36.9023 6.74983 38.3299 7.92468L38.4705 8.04675L39.0213 8.56726C40.2852 9.80366 41.3975 11.1948 42.327 12.7108C43.2314 14.1861 42.8913 15.9915 41.7752 17.1073L39.7127 19.1678C40.6223 19.2409 41.526 19.4158 42.4061 19.6952C44.1234 20.2404 45.4681 21.8141 45.4793 23.786C45.4796 23.8299 45.4793 23.8737 45.4793 23.9169C45.4793 25.9506 45.1966 27.9223 44.6658 29.7919C44.209 31.4004 42.7325 32.369 41.2059 32.369H33.6736C31.8423 32.369 30.0355 32.7926 28.3953 33.6073L24.8895 35.3485L23.9998 35.7909L23.1102 35.3485L19.6043 33.6073C17.9644 32.7928 16.1581 32.3691 14.327 32.369H6.79376C5.26724 32.369 3.79167 31.4003 3.33478 29.7919C2.80401 27.9223 2.52034 25.9506 2.52032 23.9169C2.52032 23.8736 2.52007 23.8293 2.52032 23.785C2.53175 21.8134 3.87641 20.2404 5.59357 19.6952C6.47326 19.4159 7.37671 19.2419 8.28595 19.1688L6.22443 17.1073C5.10855 15.9917 4.76863 14.187 5.67267 12.7118C6.73473 10.9788 8.0362 9.40879 9.53009 8.04675L9.67072 7.92468C11.0984 6.7501 13.0836 6.94578 14.3348 8.08386L14.4578 8.20105L17.9393 11.6815V6.21375C17.9394 4.51852 19.1391 2.91195 20.9891 2.65222L21.7313 2.56042C22.4773 2.48205 23.2343 2.44226 23.9998 2.44226Z" fill="#F9F9F3" stroke="#9F8CE8" stroke-width="4"/>
</svg>
