<svg width="1194" height="432" viewBox="0 0 1194 432" fill="none" xmlns="http://www.w3.org/2000/svg">
<path d="M75.5 0.499512H1V72.3328M75.5 0.499512V72.3328M75.5 0.499512H150M75.5 72.3328H1M75.5 72.3328V144.166M75.5 72.3328H150M1 72.3328V144.166M75.5 144.166H1M75.5 144.166V216M75.5 144.166H150M1 144.166V216M75.5 216H1M75.5 216V287.833M75.5 216H150M1 216V287.833M75.5 287.833H1M75.5 287.833V359.666M75.5 287.833H150M1 287.833V359.666M75.5 359.666H1M75.5 359.666V431.5M75.5 359.666H150M1 359.666V431.5H75.5M75.5 431.5H150M150 0.499512V72.3328M150 0.499512H224.5M150 72.3328V144.166M150 72.3328H224.5M150 144.166V216M150 144.166H224.5M150 216V287.833M150 216H224.5M150 287.833V359.666M150 287.833H224.5M150 359.666V431.5M150 359.666H224.5M150 431.5H224.5M224.5 0.499512V72.3328M224.5 0.499512H299M224.5 72.3328V144.166M224.5 72.3328H299M224.5 144.166V216M224.5 144.166H299M224.5 216V287.833M224.5 216H299M224.5 287.833V359.666M224.5 287.833H299M224.5 359.666V431.5M224.5 359.666H299M224.5 431.5H299M299 0.499512V72.3328M299 0.499512H373.5M299 72.3328V144.166M299 72.3328H373.5M299 144.166V216M299 144.166H373.5M299 216V287.833M299 216H373.5M299 287.833V359.666M299 287.833H373.5M299 359.666V431.5M299 359.666H373.5M299 431.5H373.5M373.5 0.499512V72.3328M373.5 0.499512H448M373.5 72.3328V144.166M373.5 72.3328H448M373.5 144.166V216M373.5 144.166H448M373.5 216V287.833M373.5 216H448M373.5 287.833V359.666M373.5 287.833H448M373.5 359.666V431.5M373.5 359.666H448M373.5 431.5H448M448 0.499512V72.3328M448 0.499512H522.5M448 72.3328V144.166M448 72.3328H522.5M448 144.166V216M448 144.166H522.5M448 216V287.833M448 216H522.5M448 287.833V359.666M448 287.833H522.5M448 359.666V431.5M448 359.666H522.5M448 431.5H522.5M522.5 0.499512V72.3328M522.5 0.499512H597M522.5 72.3328V144.166M522.5 72.3328H597M522.5 144.166V216M522.5 144.166H597M522.5 216V287.833M522.5 216H597M522.5 287.833V359.666M522.5 287.833H597M522.5 359.666V431.5M522.5 359.666H597M522.5 431.5H597M597 0.499512V72.3328M597 0.499512H671.5M597 72.3328V144.166M597 72.3328H671.5M597 144.166V216M597 144.166H671.5M597 216V287.833M597 216H671.5M597 287.833V359.666M597 287.833H671.5M597 359.666V431.5M597 359.666H671.5M597 431.5H671.5M671.5 0.499512V72.3328M671.5 0.499512H746M671.5 72.3328V144.166M671.5 72.3328H746M671.5 144.166V216M671.5 144.166H746M671.5 216V287.833M671.5 216H746M671.5 287.833V359.666M671.5 287.833H746M671.5 359.666V431.5M671.5 359.666H746M671.5 431.5H746M746 0.499512V72.3328M746 0.499512H820.5M746 72.3328V144.166M746 72.3328H820.5M746 144.166V216M746 144.166H820.5M746 216V287.833M746 216H820.5M746 287.833V359.666M746 287.833H820.5M746 359.666V431.5M746 359.666H820.5M746 431.5H820.5M820.5 0.499512V72.3328M820.5 0.499512H895M820.5 72.3328V144.166M820.5 72.3328H895M820.5 144.166V216M820.5 144.166H895M820.5 216V287.833M820.5 216H895M820.5 287.833V359.666M820.5 287.833H895M820.5 359.666V431.5M820.5 359.666H895M820.5 431.5H895M895 0.499512V72.3328M895 0.499512H969.5M895 72.3328V144.166M895 72.3328H969.5M895 144.166V216M895 144.166H969.5M895 216V287.833M895 216H969.5M895 287.833V359.666M895 287.833H969.5M895 359.666V431.5M895 359.666H969.5M895 431.5H969.5M969.5 0.499512V72.3328M969.5 0.499512H1044M969.5 72.3328V144.166M969.5 72.3328H1044M969.5 144.166V216M969.5 144.166H1044M969.5 216V287.833M969.5 216H1044M969.5 287.833V359.666M969.5 287.833H1044M969.5 359.666V431.5M969.5 359.666H1044M969.5 431.5H1044M1044 0.499512V72.3328M1044 0.499512H1118.5M1044 72.3328V144.166M1044 72.3328H1118.5M1044 144.166V216M1044 144.166H1118.5M1044 216V287.833M1044 216H1118.5M1044 287.833V359.666M1044 287.833H1118.5M1044 359.666V431.5M1044 359.666H1118.5M1044 431.5H1118.5M1118.5 0.499512V72.3328M1118.5 0.499512H1193V72.3328M1118.5 72.3328V144.166M1118.5 72.3328H1193M1118.5 144.166V216M1118.5 144.166H1193M1118.5 216V287.833M1118.5 216H1193M1118.5 287.833V359.666M1118.5 287.833H1193M1118.5 359.666V431.5M1118.5 359.666H1193M1118.5 431.5H1193V359.666M1193 72.3328V144.166M1193 144.166V216M1193 216V287.833M1193 287.833V359.666" stroke="url(#paint0_linear_1155_4028)" stroke-opacity="0.5"/>
<defs>
<linearGradient id="paint0_linear_1155_4028" x1="597" y1="0.499512" x2="597" y2="431.5" gradientUnits="userSpaceOnUse">
<stop stop-color="#E5E5E0"/>
<stop offset="1" stop-color="#CFD1D3" stop-opacity="0"/>
</linearGradient>
</defs>
</svg>
