<svg width="16" height="13" viewBox="0 0 16 13" fill="none" xmlns="http://www.w3.org/2000/svg">
<path d="M15.5412 8.53592C15.5412 9.27318 15.4386 9.98654 15.2467 10.6624C15.1697 10.9336 14.9158 11.1108 14.6339 11.1108H11.6279C10.7738 11.1108 9.93133 11.3085 9.16643 11.6885L7.76743 12.3834L6.36842 11.6885C5.60353 11.3085 4.76106 11.1108 3.907 11.1108H0.90092C0.61903 11.1108 0.365113 10.9336 0.288126 10.6624C0.0962533 9.98654 -0.00637817 9.27318 -0.00637817 8.53592C-0.00637817 8.52022 -0.00633192 8.50426 -0.0062394 8.48807C-0.00391036 8.08058 0.275042 7.73526 0.663436 7.61194C1.49141 7.34904 2.38216 7.36062 3.20302 7.64495L3.85557 7.87098L1.23797 5.25404C1.03186 5.04799 0.981779 4.73002 1.13406 4.48152C1.51847 3.85424 1.98945 3.28559 2.53045 2.79234C2.77842 2.56626 3.15768 2.59136 3.39498 2.8286L6.14698 5.57991V1.47121C6.14698 1.1576 6.36608 0.883688 6.67665 0.840087C7.03302 0.790055 7.39716 0.764191 7.76731 0.764191C8.13747 0.764191 8.50161 0.790055 8.85798 0.840087C9.16854 0.883689 9.38764 1.15761 9.38764 1.47121V5.58014L12.1398 2.82866C12.3771 2.59139 12.7564 2.56631 13.0044 2.79243C13.5453 3.2856 14.0162 3.85407 14.4007 4.48125C14.553 4.72976 14.503 5.04779 14.2968 5.25388L11.6791 7.87098L12.3317 7.64494C13.1526 7.36062 14.0433 7.34904 14.8713 7.61193C15.2598 7.73525 15.5388 8.08061 15.5411 8.48814C15.5412 8.50431 15.5412 8.52025 15.5412 8.53592Z" fill="#FF3400"/>
</svg>
