<svg width="250" height="214" viewBox="0 0 250 214" fill="none" xmlns="http://www.w3.org/2000/svg">
<rect width="250" height="214" rx="24" fill="#AF9EEF"/>
<path d="M147.451 132.673L135.879 123.74" stroke="#343433" stroke-width="4.51405" stroke-linecap="round" stroke-linejoin="round"/>
<path d="M176.395 160.855C166.279 160.554 157.537 170.737 163.791 183.485C162.131 184.284 159.719 186.028 159.719 186.028" stroke="#343433" stroke-width="4.51404" stroke-linecap="round" stroke-linejoin="round"/>
<path fill-rule="evenodd" clip-rule="evenodd" d="M159.92 179.334C160.157 180.38 160.483 181.444 160.903 182.521C160.538 182.747 160.192 182.971 159.887 183.173C159.463 183.454 159.093 183.708 158.829 183.892C158.697 183.984 158.591 184.06 158.517 184.112C158.479 184.139 158.45 184.16 158.43 184.174L158.406 184.192L158.399 184.196L158.397 184.198L158.396 184.198L158.396 184.199C158.396 184.199 158.396 184.199 159.718 186.028L158.396 184.199C157.386 184.929 157.159 186.34 157.89 187.35C158.62 188.36 160.031 188.587 161.041 187.857L161.045 187.854L161.062 187.842C161.078 187.83 161.102 187.813 161.134 187.79C161.198 187.744 161.294 187.677 161.414 187.593C161.654 187.426 161.991 187.193 162.377 186.938C163.174 186.411 164.086 185.847 164.769 185.518C165.311 185.257 165.727 184.791 165.923 184.223C166.12 183.654 166.082 183.031 165.817 182.49C165.105 181.039 164.615 179.643 164.315 178.312L159.92 179.334Z" fill="#D4EB39"/>
<path d="M158.396 184.199L158.396 184.198L158.397 184.198L158.399 184.196L158.406 184.192L158.43 184.174C158.45 184.16 158.479 184.139 158.517 184.112C158.591 184.06 158.697 183.984 158.829 183.892C159.093 183.708 159.463 183.454 159.887 183.173C160.192 182.971 160.538 182.747 160.903 182.521C160.483 181.444 160.157 180.38 159.92 179.334L164.315 178.312C164.615 179.643 165.105 181.039 165.817 182.49C166.082 183.031 166.12 183.654 165.923 184.223C165.727 184.791 165.311 185.257 164.769 185.518C164.086 185.847 163.174 186.411 162.377 186.938C161.991 187.193 161.654 187.426 161.414 187.593C161.294 187.677 161.198 187.744 161.134 187.79C161.102 187.813 161.078 187.83 161.062 187.842L161.045 187.854L161.041 187.857C160.031 188.587 158.62 188.36 157.89 187.35C157.159 186.34 157.386 184.929 158.396 184.199ZM158.396 184.199C158.396 184.199 158.396 184.199 159.718 186.028L158.396 184.199Z" stroke="#D4EB39" stroke-width="0.304473"/>
<path d="M184.003 157.483C172.989 165.399 170.08 178.48 183.948 185.185C182.911 186.971 181.863 190.279 181.863 190.279" stroke="#343433" stroke-width="4.51404" stroke-linecap="round" stroke-linejoin="round"/>
<path fill-rule="evenodd" clip-rule="evenodd" d="M178.072 184.124C178.941 184.843 179.909 185.522 180.978 186.154C180.762 186.668 180.567 187.171 180.402 187.613C180.196 188.164 180.025 188.656 179.905 189.01C179.845 189.187 179.798 189.331 179.765 189.432C179.748 189.482 179.736 189.522 179.727 189.55L179.716 189.583L179.713 189.592L179.712 189.595L179.712 189.596L179.712 189.596C179.712 189.596 179.711 189.597 181.863 190.278L179.711 189.597C179.335 190.785 179.993 192.053 181.181 192.43C182.37 192.806 183.638 192.148 184.015 190.96L184.015 190.96L184.016 190.955L184.024 190.932C184.031 190.91 184.042 190.877 184.056 190.834C184.084 190.746 184.127 190.618 184.181 190.458C184.29 190.136 184.446 189.689 184.632 189.19C185.018 188.154 185.484 187.034 185.9 186.318C186.216 185.774 186.291 185.124 186.106 184.523C185.922 183.923 185.496 183.426 184.931 183.153C183.298 182.363 181.953 181.498 180.861 180.579L178.072 184.124Z" fill="#D4EB39" stroke="#D4EB39" stroke-width="0.304473"/>
<path d="M176.594 111.732C175.203 119.836 180.645 127.535 188.75 128.926C196.854 130.317 204.552 124.876 205.944 116.771C207.335 108.666 201.893 100.968 193.789 99.5762C185.684 98.1849 177.985 103.627 176.594 111.732Z" fill="#DBD3FC"/>
<path d="M185.589 134.289C184.063 143.175 190.03 151.615 198.916 153.14C207.802 154.666 216.242 148.699 217.768 139.813C219.293 130.928 213.326 122.487 204.441 120.962C195.555 119.436 187.115 125.403 185.589 134.289ZM137.598 129.69C136.074 138.576 142.04 147.016 150.926 148.541C159.811 150.067 168.251 144.1 169.777 135.214C171.302 126.329 165.336 117.888 156.451 116.363C147.566 114.837 139.125 120.804 137.598 129.69Z" fill="#DBD3FC"/>
<path d="M145.715 153.755C144.224 162.445 150.058 170.7 158.751 172.192C167.44 173.684 175.695 167.849 177.187 159.158C178.679 150.468 172.844 142.213 164.152 140.721C155.463 139.229 147.207 145.064 145.715 153.755Z" fill="#DBD3FC"/>
<path d="M172.541 156.261C171.049 164.952 176.884 173.207 185.575 174.699C194.266 176.191 202.52 170.355 204.013 161.664C205.504 152.974 199.669 144.719 190.978 143.227C182.288 141.735 174.033 147.57 172.541 156.261Z" fill="#DBD3FC"/>
<path d="M161.92 133.323C160.424 142.013 166.262 150.268 174.952 151.76C183.643 153.252 191.897 147.417 193.389 138.726C194.881 130.035 189.046 121.781 180.355 120.289C171.665 118.797 163.411 124.632 161.92 133.323Z" fill="#DBD3FC"/>
<path d="M152.245 109.373C150.853 117.477 156.294 125.175 164.402 126.567C172.505 127.958 180.203 122.516 181.595 114.411C182.986 106.307 177.544 98.6084 169.439 97.217C161.334 95.8257 153.636 101.268 152.245 109.373Z" fill="#DBD3FC"/>
<path d="M199.683 140.204C201.47 127.347 192.496 115.475 179.639 113.688C166.782 111.901 154.911 120.875 153.124 133.732C151.336 146.589 160.31 158.46 173.167 160.248C186.024 162.035 197.896 153.061 199.683 140.204Z" fill="#9F8CE8"/>
<path d="M166.959 127.77C166.743 131.319 171.762 134.337 174.666 131.248M181.117 134.107C180.901 137.656 185.92 140.674 188.824 137.585M170.559 140.809C169.907 144.931 175.948 147.557 178.397 143.981" stroke="#262626" stroke-width="2.59746" stroke-linecap="round"/>
<path d="M201.148 172.529C201.148 172.529 198.144 169.82 196.583 167.767C195.156 165.892 193.45 162.615 193.45 162.615" stroke="#343433" stroke-width="4.51404" stroke-linecap="round" stroke-linejoin="round"/>
<path d="M209.041 40.516C206.303 41.6407 204.57 44.7377 204.988 47.7552C202.113 46.7475 198.734 47.8319 197.089 50.2929C195.444 52.753 195.67 56.3806 197.619 58.7743C198.745 60.159 200.336 61.102 201.998 61.6877C203.66 62.2737 205.402 62.5258 207.137 62.7323C209.177 62.9754 211.226 63.1593 213.273 63.1744C214.388 63.1826 215.572 63.1181 216.455 62.4718C216.576 62.3837 216.714 62.2929 216.813 62.2117C216.912 62.1303 217.029 62.013 217.139 61.9122C217.947 61.1751 218.246 60.0271 218.458 58.9329C218.849 56.9238 219.075 54.879 219.242 52.8308C219.383 51.0901 219.481 49.332 219.237 47.5871C218.992 45.8418 218.383 44.0956 217.249 42.7171C215.289 40.3324 211.779 39.3918 209.041 40.516Z" fill="#DBD3FC"/>
<path d="M69.2549 148.021C81.5948 148.403 81.637 166.1 69.2912 166.53C56.9544 166.147 56.9173 148.453 69.2549 148.021Z" stroke="#DBD3FC" stroke-width="2"/>
<path d="M112.855 176.774C111.753 176.983 111.318 178.334 112.094 179.145L114.442 181.617C114.568 181.744 114.628 181.926 114.602 182.109L114.177 185.486C114.037 186.601 115.185 187.428 116.199 186.948L119.275 185.472C119.437 185.399 119.624 185.4 119.792 185.473L122.877 186.925C123.896 187.402 125.038 186.57 124.889 185.451L124.438 182.076C124.414 181.895 124.472 181.716 124.595 181.585L126.928 179.102C127.697 178.283 127.255 176.934 126.153 176.727L122.798 176.116C122.621 176.082 122.466 175.972 122.379 175.809L120.737 172.824C120.197 171.839 118.777 171.845 118.242 172.834L116.619 175.831C116.532 175.991 116.38 176.104 116.204 176.135L112.855 176.774Z" fill="#DBD3FC"/>
</svg>
