<svg width="250" height="214" viewBox="0 0 250 214" fill="none" xmlns="http://www.w3.org/2000/svg">
<rect width="250" height="214" rx="24" fill="#AF9EEF"/>
<path d="M147.451 132.673L135.879 123.74" stroke="#343433" stroke-width="4.51405" stroke-linecap="round" stroke-linejoin="round"/>
<path d="M176.395 160.855C166.279 160.554 157.537 170.737 163.791 183.485C162.131 184.284 159.719 186.028 159.719 186.028" stroke="#343433" stroke-width="4.51404" stroke-linecap="round" stroke-linejoin="round"/>
<path fill-rule="evenodd" clip-rule="evenodd" d="M159.92 179.334C160.157 180.38 160.483 181.444 160.903 182.521C160.538 182.747 160.192 182.971 159.887 183.173C159.463 183.454 159.093 183.708 158.829 183.892C158.697 183.984 158.591 184.06 158.517 184.112C158.479 184.139 158.45 184.16 158.43 184.174L158.406 184.192L158.399 184.196L158.397 184.198L158.396 184.198L158.396 184.199C158.396 184.199 158.396 184.199 159.718 186.028L158.396 184.199C157.386 184.929 157.159 186.34 157.89 187.35C158.62 188.36 160.031 188.587 161.041 187.857L161.045 187.854L161.062 187.842C161.078 187.83 161.102 187.813 161.134 187.79C161.198 187.744 161.294 187.677 161.414 187.593C161.654 187.426 161.991 187.193 162.377 186.938C163.174 186.411 164.086 185.847 164.769 185.518C165.311 185.257 165.727 184.791 165.923 184.223C166.12 183.654 166.082 183.031 165.817 182.49C165.105 181.039 164.615 179.643 164.315 178.312L159.92 179.334Z" fill="#D4EB39"/>
<path d="M158.396 184.199L158.396 184.198L158.397 184.198L158.399 184.196L158.406 184.192L158.43 184.174C158.45 184.16 158.479 184.139 158.517 184.112C158.591 184.06 158.697 183.984 158.829 183.892C159.093 183.708 159.463 183.454 159.887 183.173C160.192 182.971 160.538 182.747 160.903 182.521C160.483 181.444 160.157 180.38 159.92 179.334L164.315 178.312C164.615 179.643 165.105 181.039 165.817 182.49C166.082 183.031 166.12 183.654 165.923 184.223C165.727 184.791 165.311 185.257 164.769 185.518C164.086 185.847 163.174 186.411 162.377 186.938C161.991 187.193 161.654 187.426 161.414 187.593C161.294 187.677 161.198 187.744 161.134 187.79C161.102 187.813 161.078 187.83 161.062 187.842L161.045 187.854L161.041 187.857C160.031 188.587 158.62 188.36 157.89 187.35C157.159 186.34 157.386 184.929 158.396 184.199ZM158.396 184.199C158.396 184.199 158.396 184.199 159.718 186.028L158.396 184.199Z" stroke="#D4EB39" stroke-width="0.304473"/>
<path d="M184.003 157.483C172.989 165.399 170.08 178.48 183.948 185.185C182.911 186.971 181.863 190.279 181.863 190.279" stroke="#343433" stroke-width="4.51404" stroke-linecap="round" stroke-linejoin="round"/>
<path fill-rule="evenodd" clip-rule="evenodd" d="M178.072 184.124C178.941 184.843 179.909 185.522 180.978 186.154C180.762 186.668 180.567 187.171 180.402 187.613C180.196 188.164 180.025 188.656 179.905 189.01C179.845 189.187 179.798 189.331 179.765 189.432C179.748 189.482 179.736 189.522 179.727 189.55L179.716 189.583L179.713 189.592L179.712 189.595L179.712 189.596L179.712 189.596C179.712 189.596 179.711 189.597 181.863 190.278L179.711 189.597C179.335 190.785 179.993 192.053 181.181 192.43C182.37 192.806 183.638 192.148 184.015 190.96L184.015 190.96L184.016 190.955L184.024 190.932C184.031 190.91 184.042 190.877 184.056 190.834C184.084 190.746 184.127 190.618 184.181 190.458C184.29 190.136 184.446 189.689 184.632 189.19C185.018 188.154 185.484 187.034 185.9 186.318C186.216 185.774 186.291 185.124 186.106 184.523C185.922 183.923 185.496 183.426 184.931 183.153C183.298 182.363 181.953 181.498 180.861 180.579L178.072 184.124Z" fill="#D4EB39" stroke="#D4EB39" stroke-width="0.304473"/>
<path d="M176.594 111.732C175.203 119.836 180.645 127.535 188.75 128.926C196.854 130.317 204.552 124.876 205.944 116.771C207.335 108.666 201.893 100.968 193.789 99.5762C185.684 98.1849 177.985 103.627 176.594 111.732Z" fill="#DBD3FC"/>
<path d="M185.589 134.289C184.063 143.175 190.03 151.615 198.916 153.14C207.802 154.666 216.242 148.699 217.768 139.813C219.293 130.928 213.326 122.487 204.441 120.962C195.555 119.436 187.115 125.403 185.589 134.289ZM137.598 129.69C136.074 138.576 142.04 147.016 150.926 148.541C159.811 150.067 168.251 144.1 169.777 135.214C171.302 126.329 165.336 117.888 156.451 116.363C147.566 114.837 139.125 120.804 137.598 129.69Z" fill="#DBD3FC"/>
<path d="M145.715 153.755C144.224 162.445 150.058 170.7 158.751 172.192C167.44 173.684 175.695 167.849 177.187 159.158C178.679 150.468 172.844 142.213 164.152 140.721C155.463 139.229 147.207 145.064 145.715 153.755Z" fill="#DBD3FC"/>
<path d="M172.541 156.261C171.049 164.952 176.884 173.207 185.575 174.699C194.266 176.191 202.52 170.355 204.013 161.664C205.504 152.974 199.669 144.719 190.978 143.227C182.288 141.735 174.033 147.57 172.541 156.261Z" fill="#DBD3FC"/>
<path d="M161.92 133.323C160.424 142.013 166.262 150.268 174.952 151.76C183.643 153.252 191.897 147.417 193.389 138.726C194.881 130.035 189.046 121.781 180.355 120.289C171.665 118.797 163.411 124.632 161.92 133.323Z" fill="#DBD3FC"/>
<path d="M152.245 109.373C150.853 117.477 156.294 125.175 164.402 126.567C172.505 127.958 180.203 122.516 181.595 114.411C182.986 106.307 177.544 98.6084 169.439 97.217C161.334 95.8257 153.636 101.268 152.245 109.373Z" fill="#DBD3FC"/>
<path d="M199.683 140.204C201.47 127.347 192.496 115.475 179.639 113.688C166.782 111.901 154.911 120.875 153.124 133.732C151.336 146.589 160.31 158.46 173.167 160.248C186.024 162.035 197.896 153.061 199.683 140.204Z" fill="#9F8CE8"/>
<path d="M166.959 127.77C166.743 131.319 171.762 134.337 174.666 131.248M181.117 134.107C180.901 137.656 185.92 140.674 188.824 137.585M170.559 140.809C169.907 144.931 175.948 147.557 178.397 143.981" stroke="#262626" stroke-width="2.59746" stroke-linecap="round"/>
<path d="M201.148 172.529C201.148 172.529 198.144 169.82 196.583 167.767C195.156 165.892 193.45 162.615 193.45 162.615" stroke="#343433" stroke-width="4.51404" stroke-linecap="round" stroke-linejoin="round"/>
<path d="M209.041 40.516C206.303 41.6407 204.57 44.7377 204.988 47.7552C202.113 46.7475 198.734 47.8319 197.089 50.2929C195.444 52.753 195.67 56.3806 197.619 58.7743C198.745 60.159 200.336 61.102 201.998 61.6877C203.66 62.2737 205.402 62.5258 207.137 62.7323C209.177 62.9754 211.226 63.1593 213.273 63.1744C214.388 63.1826 215.572 63.1181 216.455 62.4718C216.576 62.3837 216.714 62.2929 216.813 62.2117C216.912 62.1303 217.029 62.013 217.139 61.9122C217.947 61.1751 218.246 60.0271 218.458 58.9329C218.849 56.9238 219.075 54.879 219.242 52.8308C219.383 51.0901 219.481 49.332 219.237 47.5871C218.992 45.8418 218.383 44.0956 217.249 42.7171C215.289 40.3324 211.779 39.3918 209.041 40.516Z" fill="#DBD3FC"/>
<path d="M69.2549 148.021C81.5948 148.403 81.637 166.1 69.2912 166.53C56.9544 166.147 56.9173 148.453 69.2549 148.021Z" stroke="#DBD3FC" stroke-width="2"/>
<path d="M24.7779 45V27.0329H37.4922V30.3193H28.6029V34.2251H37.3036V37.5115H28.6029V41.6867H37.4922V45H24.7779ZM43.23 45L38.0042 31.9894H41.6676L45.0617 41.0402L48.4558 31.9894H52.1462L46.9204 45H43.23ZM52.2996 38.4812C52.2996 34.71 55.0741 31.6661 59.0339 31.6661C62.9128 31.6661 65.5527 34.5753 65.5527 38.8314V39.5856H55.8823C56.0977 41.2288 57.4177 42.6026 59.6265 42.6026C60.8387 42.6026 62.2664 42.1177 63.1014 41.3096L64.6099 43.5185C63.29 44.7306 61.2697 45.3232 59.2494 45.3232C55.2896 45.3232 52.2996 42.6565 52.2996 38.4812ZM59.0339 34.3868C56.9059 34.3868 55.99 35.9761 55.8284 37.269H62.2394C62.1586 36.0299 61.2966 34.3868 59.0339 34.3868ZM67.485 45V31.9894H70.906V33.7672C71.8219 32.6089 73.4381 31.6931 75.0543 31.6931V35.0333C74.8119 34.9794 74.4887 34.9524 74.1115 34.9524C72.9802 34.9524 71.4717 35.572 70.906 36.4071V45H67.485ZM76.707 47.0203C77.0033 47.155 77.4612 47.2358 77.7845 47.2358C78.6734 47.2358 79.266 46.9933 79.5893 46.293L80.0741 45.1886L74.7944 31.9894H78.4579L81.852 41.0402L85.2461 31.9894H88.9364L82.8217 47.128C81.852 49.5793 80.128 50.2258 77.8922 50.2797C77.4882 50.2797 76.6262 50.1989 76.1952 50.0911L76.707 47.0203ZM95.4432 38.4812C95.4432 34.4945 98.3255 31.6661 102.339 31.6661C105.006 31.6661 106.622 32.8244 107.484 34.0366L105.248 36.1107C104.629 35.2218 103.686 34.71 102.501 34.71C100.427 34.71 98.972 36.2185 98.972 38.4812C98.972 40.7439 100.427 42.2793 102.501 42.2793C103.686 42.2793 104.629 41.7406 105.248 40.8786L107.484 42.9528C106.622 44.1649 105.006 45.3232 102.339 45.3232C98.3255 45.3232 95.4432 42.4948 95.4432 38.4812ZM117.99 45V37.0805C117.99 35.2757 117.047 34.71 115.566 34.71C114.246 34.71 113.195 35.4643 112.603 36.2454V45H109.182V27.0329H112.603V33.6864C113.438 32.6897 115.054 31.6661 117.182 31.6661C120.037 31.6661 121.411 33.2285 121.411 35.7606V45H117.99ZM125.966 30.0768C124.861 30.0768 123.919 29.161 123.919 28.0296C123.919 26.8982 124.861 25.9824 125.966 25.9824C127.097 25.9824 128.013 26.8982 128.013 28.0296C128.013 29.161 127.097 30.0768 125.966 30.0768ZM124.269 45V31.9894H127.69V45H124.269ZM130.543 45V27.0329H133.964V45H130.543ZM145.761 45V43.3568C144.737 44.6229 143.309 45.3232 141.747 45.3232C138.461 45.3232 135.983 42.845 135.983 38.5081C135.983 34.2521 138.434 31.6661 141.747 31.6661C143.283 31.6661 144.737 32.3395 145.761 33.6595V27.0329H149.209V45H145.761ZM145.761 40.7978V36.1916C145.168 35.3296 143.956 34.71 142.798 34.71C140.858 34.71 139.511 36.2454 139.511 38.5081C139.511 40.7439 140.858 42.2793 142.798 42.2793C143.956 42.2793 145.168 41.6598 145.761 40.7978ZM33.6402 70V68.3568C32.6166 69.6229 31.1889 70.3232 29.6265 70.3232C26.3402 70.3232 23.862 67.845 23.862 63.5081C23.862 59.2521 26.3133 56.6661 29.6265 56.6661C31.162 56.6661 32.6166 57.3395 33.6402 58.6595V52.0329H37.0881V70H33.6402ZM33.6402 65.7978V61.1916C33.0476 60.3296 31.8354 59.71 30.6771 59.71C28.7376 59.71 27.3908 61.2454 27.3908 63.5081C27.3908 65.7439 28.7376 67.2793 30.6771 67.2793C31.8354 67.2793 33.0476 66.6598 33.6402 65.7978ZM39.1067 63.4812C39.1067 59.71 41.8813 56.6661 45.841 56.6661C49.72 56.6661 52.3598 59.5753 52.3598 63.8314V64.5856H42.6894C42.9049 66.2288 44.2248 67.6026 46.4336 67.6026C47.6458 67.6026 49.0735 67.1177 49.9085 66.3096L51.417 68.5185C50.0971 69.7306 48.0768 70.3232 46.0565 70.3232C42.0967 70.3232 39.1067 67.6565 39.1067 63.4812ZM45.841 59.3868C43.713 59.3868 42.7971 60.9761 42.6355 62.269H49.0465C48.9657 61.0299 48.1037 59.3868 45.841 59.3868ZM53.1608 68.303L54.6423 65.9056C55.5851 66.7945 57.5246 67.6834 59.1408 67.6834C60.6223 67.6834 61.3227 67.1716 61.3227 66.3635C61.3227 65.4476 60.1914 65.1244 58.7098 64.8281C56.474 64.3971 53.5918 63.8583 53.5918 60.7606C53.5918 58.5787 55.5043 56.6661 58.9253 56.6661C61.1342 56.6661 62.8851 57.4204 64.1511 58.444L62.8043 60.7875C62.0231 59.9524 60.5415 59.279 58.9522 59.279C57.7131 59.279 56.905 59.7369 56.905 60.4912C56.905 61.2993 57.9286 61.5956 59.3832 61.8919C61.619 62.3229 64.609 62.9155 64.609 66.148C64.609 68.5454 62.5888 70.3232 58.9792 70.3232C56.7165 70.3232 54.5346 69.569 53.1608 68.303ZM65.7556 63.4812C65.7556 59.71 68.5301 56.6661 72.4898 56.6661C76.3688 56.6661 79.0086 59.5753 79.0086 63.8314V64.5856H69.3382C69.5537 66.2288 70.8736 67.6026 73.0825 67.6026C74.2946 67.6026 75.7223 67.1177 76.5573 66.3096L78.0658 68.5185C76.7459 69.7306 74.7256 70.3232 72.7053 70.3232C68.7456 70.3232 65.7556 67.6565 65.7556 63.4812ZM72.4898 59.3868C70.3618 59.3868 69.4459 60.9761 69.2843 62.269H75.6954C75.6145 61.0299 74.7526 59.3868 72.4898 59.3868ZM80.9409 70V56.9894H84.362V58.7672C85.2778 57.6089 86.8941 56.6931 88.5103 56.6931V60.0333C88.2678 59.9794 87.9446 59.9524 87.5675 59.9524C86.4361 59.9524 84.9276 60.572 84.362 61.4071V70H80.9409ZM93.4762 70L88.2504 56.9894H91.9138L95.3079 66.0402L98.702 56.9894H102.392L97.1666 70H93.4762ZM102.546 63.4812C102.546 59.71 105.32 56.6661 109.28 56.6661C113.159 56.6661 115.799 59.5753 115.799 63.8314V64.5856H106.128C106.344 66.2288 107.664 67.6026 109.873 67.6026C111.085 67.6026 112.513 67.1177 113.348 66.3096L114.856 68.5185C113.536 69.7306 111.516 70.3232 109.496 70.3232C105.536 70.3232 102.546 67.6565 102.546 63.4812ZM109.28 59.3868C107.152 59.3868 106.236 60.9761 106.075 62.269H112.486C112.405 61.0299 111.543 59.3868 109.28 59.3868ZM116.6 68.303L118.081 65.9056C119.024 66.7945 120.964 67.6834 122.58 67.6834C124.061 67.6834 124.762 67.1716 124.762 66.3635C124.762 65.4476 123.63 65.1244 122.149 64.8281C119.913 64.3971 117.031 63.8583 117.031 60.7606C117.031 58.5787 118.943 56.6661 122.364 56.6661C124.573 56.6661 126.324 57.4204 127.59 58.444L126.243 60.7875C125.462 59.9524 123.981 59.279 122.391 59.279C121.152 59.279 120.344 59.7369 120.344 60.4912C120.344 61.2993 121.368 61.5956 122.822 61.8919C125.058 62.3229 128.048 62.9155 128.048 66.148C128.048 68.5454 126.028 70.3232 122.418 70.3232C120.156 70.3232 117.974 69.569 116.6 68.303ZM140.747 70.3232C138.349 70.3232 137.056 69.0841 137.056 66.7675V59.9794H134.902V56.9894H137.056V53.4337H140.504V56.9894H143.144V59.9794H140.504V65.8517C140.504 66.6598 140.935 67.2793 141.69 67.2793C142.201 67.2793 142.686 67.0908 142.875 66.9022L143.602 69.4882C143.09 69.9461 142.175 70.3232 140.747 70.3232ZM153.755 70V62.0805C153.755 60.2757 152.812 59.71 151.33 59.71C150.01 59.71 148.96 60.4643 148.367 61.2454V70H144.946V52.0329H148.367V58.6864C149.202 57.6897 150.818 56.6661 152.946 56.6661C155.802 56.6661 157.176 58.2285 157.176 60.7606V70H153.755ZM159.198 63.4812C159.198 59.71 161.972 56.6661 165.932 56.6661C169.811 56.6661 172.451 59.5753 172.451 63.8314V64.5856H162.781C162.996 66.2288 164.316 67.6026 166.525 67.6026C167.737 67.6026 169.165 67.1177 170 66.3096L171.508 68.5185C170.188 69.7306 168.168 70.3232 166.148 70.3232C162.188 70.3232 159.198 67.6565 159.198 63.4812ZM165.932 59.3868C163.804 59.3868 162.888 60.9761 162.727 62.269H169.138C169.057 61.0299 168.195 59.3868 165.932 59.3868ZM23.862 89.4812C23.862 85.4945 26.7443 82.6661 30.7579 82.6661C33.4247 82.6661 35.0409 83.8244 35.9029 85.0366L33.6671 87.1107C33.0476 86.2218 32.1048 85.71 30.9195 85.71C28.8454 85.71 27.3908 87.2185 27.3908 89.4812C27.3908 91.7439 28.8454 93.2793 30.9195 93.2793C32.1048 93.2793 33.0476 92.7406 33.6671 91.8786L35.9029 93.9528C35.0409 95.1649 33.4247 96.3232 30.7579 96.3232C26.7443 96.3232 23.862 93.4948 23.862 89.4812ZM46.409 96V88.0805C46.409 86.2757 45.4662 85.71 43.9847 85.71C42.6647 85.71 41.6142 86.4643 41.0216 87.2454V96H37.6006V78.0329H41.0216V84.6864C41.8566 83.6897 43.4729 82.6661 45.6009 82.6661C48.4562 82.6661 49.83 84.2285 49.83 86.7606V96H46.409ZM60.4992 96V94.6531C59.6103 95.7037 58.0749 96.3232 56.3779 96.3232C54.3037 96.3232 51.8524 94.9225 51.8524 92.0133C51.8524 88.9694 54.3037 87.865 56.3779 87.865C58.1018 87.865 59.6372 88.4037 60.4992 89.4543V87.6495C60.4992 86.3296 59.3679 85.4676 57.6439 85.4676C56.2432 85.4676 54.9502 85.9794 53.8458 87.003L52.5528 84.7133C54.1421 83.3126 56.1893 82.6661 58.2365 82.6661C61.1996 82.6661 63.9203 83.8513 63.9203 87.5956V96H60.4992ZM60.4992 92.8753V91.2591C59.9336 90.5048 58.8561 90.1277 57.7516 90.1277C56.4048 90.1277 55.3004 90.855 55.3004 92.0941C55.3004 93.3063 56.4048 94.0067 57.7516 94.0067C58.8561 94.0067 59.9336 93.6295 60.4992 92.8753ZM75.5563 96V88.1344C75.5563 86.3296 74.6135 85.71 73.1588 85.71C71.812 85.71 70.7614 86.4643 70.1958 87.2454V96H66.7747V82.9894H70.1958V84.6864C71.0308 83.6897 72.6201 82.6661 74.7481 82.6661C77.6035 82.6661 78.9773 84.2823 78.9773 86.8144V96H75.5563ZM81.0003 89.4812C81.0003 85.4945 83.8826 82.6661 87.8962 82.6661C90.563 82.6661 92.1792 83.8244 93.0412 85.0366L90.8054 87.1107C90.1859 86.2218 89.2431 85.71 88.0578 85.71C85.9837 85.71 84.5291 87.2185 84.5291 89.4812C84.5291 91.7439 85.9837 93.2793 88.0578 93.2793C89.2431 93.2793 90.1859 92.7406 90.8054 91.8786L93.0412 93.9528C92.1792 95.1649 90.563 96.3232 87.8962 96.3232C83.8826 96.3232 81.0003 93.4948 81.0003 89.4812ZM93.9038 89.4812C93.9038 85.71 96.6783 82.6661 100.638 82.6661C104.517 82.6661 107.157 85.5753 107.157 89.8314V90.5856H97.4865C97.7019 92.2288 99.0219 93.6026 101.231 93.6026C102.443 93.6026 103.871 93.1177 104.706 92.3096L106.214 94.5185C104.894 95.7306 102.874 96.3232 100.854 96.3232C96.8938 96.3232 93.9038 93.6565 93.9038 89.4812ZM100.638 85.3868C98.5101 85.3868 97.5942 86.9761 97.4326 88.269H103.844C103.763 87.0299 102.901 85.3868 100.638 85.3868ZM119.806 96.3232C117.409 96.3232 116.116 95.0841 116.116 92.7675V85.9794H113.961V82.9894H116.116V79.4337H119.564V82.9894H122.204V85.9794H119.564V91.8517C119.564 92.6598 119.995 93.2793 120.749 93.2793C121.261 93.2793 121.746 93.0908 121.934 92.9022L122.662 95.4882C122.15 95.9461 121.234 96.3232 119.806 96.3232ZM130.04 96.3232C125.757 96.3232 123.171 93.1985 123.171 89.4812C123.171 85.7908 125.757 82.6661 130.04 82.6661C134.35 82.6661 136.935 85.7908 136.935 89.4812C136.935 93.1985 134.35 96.3232 130.04 96.3232ZM130.04 93.2793C132.168 93.2793 133.38 91.5284 133.38 89.4812C133.38 87.4609 132.168 85.71 130.04 85.71C127.912 85.71 126.726 87.4609 126.726 89.4812C126.726 91.5284 127.912 93.2793 130.04 93.2793ZM24.697 122V104.033H28.1181V122H24.697ZM30.1364 115.481C30.1364 111.71 32.911 108.666 36.8707 108.666C40.7497 108.666 43.3895 111.575 43.3895 115.831V116.586H33.7191C33.9346 118.229 35.2545 119.603 37.4634 119.603C38.6755 119.603 40.1032 119.118 40.9382 118.31L42.4467 120.518C41.1268 121.731 39.1065 122.323 37.0862 122.323C33.1265 122.323 30.1364 119.656 30.1364 115.481ZM36.8707 111.387C34.7427 111.387 33.8268 112.976 33.6652 114.269H40.0763C39.9954 113.03 39.1335 111.387 36.8707 111.387ZM53.1336 122V120.653C52.2447 121.704 50.7093 122.323 49.0122 122.323C46.9381 122.323 44.4868 120.923 44.4868 118.013C44.4868 114.969 46.9381 113.865 49.0122 113.865C50.7362 113.865 52.2716 114.404 53.1336 115.454V113.649C53.1336 112.33 52.0023 111.468 50.2783 111.468C48.8775 111.468 47.5846 111.979 46.4801 113.003L45.1872 110.713C46.7764 109.313 48.8237 108.666 50.8709 108.666C53.834 108.666 56.5546 109.851 56.5546 113.596V122H53.1336ZM53.1336 118.875V117.259C52.5679 116.505 51.4904 116.128 50.386 116.128C49.0392 116.128 47.9347 116.855 47.9347 118.094C47.9347 119.306 49.0392 120.007 50.386 120.007C51.4904 120.007 52.5679 119.63 53.1336 118.875ZM59.4091 122V108.989H62.8301V110.767C63.746 109.609 65.3622 108.693 66.9785 108.693V112.033C66.736 111.979 66.4128 111.952 66.0357 111.952C64.9043 111.952 63.3958 112.572 62.8301 113.407V122H59.4091ZM77.3587 122V114.134C77.3587 112.33 76.4159 111.71 74.9613 111.71C73.6145 111.71 72.5639 112.464 71.9982 113.245V122H68.5772V108.989H71.9982V110.686C72.8333 109.69 74.4226 108.666 76.5506 108.666C79.406 108.666 80.7797 110.282 80.7797 112.814V122H77.3587Z" fill="#110A2D"/>
<path d="M112.855 176.774C111.753 176.983 111.318 178.334 112.094 179.145L114.442 181.617C114.568 181.744 114.628 181.926 114.602 182.109L114.177 185.486C114.037 186.601 115.185 187.428 116.199 186.948L119.275 185.472C119.437 185.399 119.624 185.4 119.792 185.473L122.877 186.925C123.896 187.402 125.038 186.57 124.889 185.451L124.438 182.076C124.414 181.895 124.472 181.716 124.595 181.585L126.928 179.102C127.697 178.283 127.255 176.934 126.153 176.727L122.798 176.116C122.621 176.082 122.466 175.972 122.379 175.809L120.737 172.824C120.197 171.839 118.777 171.845 118.242 172.834L116.619 175.831C116.532 175.991 116.38 176.104 116.204 176.135L112.855 176.774Z" fill="#DBD3FC"/>
</svg>
