<svg width="30" height="30" viewBox="0 0 30 30" fill="none" xmlns="http://www.w3.org/2000/svg">
<path d="M10.9728 0.858781C30.0423 -3.98033 37.8297 23.2172 19.0971 29.2105C0.0275446 34.0496 -7.76007 6.85215 10.9728 0.858781Z" fill="#FF4A1C"/>
<g clip-path="url(#clip0_0_1)">
<path d="M16.3881 17.7045L14.6653 18.6992C14.0841 18.079 12.9908 17.928 12.4577 17.7203C11.3943 17.3058 10.4594 16.5403 9.84432 15.475C8.40764 12.9866 9.26023 9.8047 11.7486 8.36802C14.237 6.93134 17.4189 7.78393 18.8556 10.2723C19.471 11.3382 19.6663 12.5313 19.4931 13.66C19.4063 14.225 18.9908 15.2463 19.2374 16.0595L17.5145 17.0542L15.8887 14.2381L14.7623 14.8885L16.3881 17.7045ZM19.8545 17.2051L20.1796 17.7683C20.5388 18.3904 20.3257 19.1858 19.7036 19.545L17.4507 20.8457C16.8286 21.2049 16.0332 20.9917 15.674 20.3696L15.3488 19.8064L19.8545 17.2051Z" fill="white"/>
</g>
<defs>
<clipPath id="clip0_0_1">
<rect width="15.608" height="15.608" fill="white" transform="translate(4.33984 11.1436) rotate(-30)"/>
</clipPath>
</defs>
</svg>
