<svg width="38" height="38" viewBox="0 0 38 38" fill="none" xmlns="http://www.w3.org/2000/svg">
<path d="M14.9728 4.85878C34.0423 0.0196693 41.8297 27.2172 23.0971 33.2105C4.02754 38.0496 -3.76007 10.8521 14.9728 4.85878Z" fill="#FF4A1C"/>
<g clip-path="url(#clip0_1155_11397)">
<path d="M20.3881 21.7045L18.6653 22.6992C18.0841 22.079 16.9908 21.928 16.4577 21.7203C15.3943 21.3058 14.4594 20.5403 13.8443 19.475C12.4076 16.9866 13.2602 13.8047 15.7486 12.368C18.237 10.9313 21.4189 11.7839 22.8556 14.2723C23.471 15.3382 23.6663 16.5313 23.4931 17.66C23.4063 18.225 22.9908 19.2463 23.2374 20.0595L21.5145 21.0542L19.8887 18.2381L18.7623 18.8885L20.3881 21.7045ZM23.8545 21.2051L24.1796 21.7683C24.5388 22.3904 24.3257 23.1858 23.7036 23.545L21.4507 24.8457C20.8286 25.2049 20.0332 24.9917 19.674 24.3696L19.3488 23.8064L23.8545 21.2051Z" fill="white"/>
</g>
<defs>
<clipPath id="clip0_1155_11397">
<rect width="15.608" height="15.608" fill="white" transform="translate(8.33984 15.1436) rotate(-30)"/>
</clipPath>
</defs>
</svg>
