<svg width="46" height="39" viewBox="0 0 46 39" fill="none" xmlns="http://www.w3.org/2000/svg">
<path d="M23 2.44226C23.9891 2.44227 24.9637 2.51393 25.918 2.6532C27.7876 2.92627 28.9052 4.58202 28.9053 6.21375V11.5468L32.0986 8.22839L32.2188 8.10925C33.4924 6.90641 35.574 6.72252 36.999 8.07312C38.4387 9.4378 39.6909 11.0088 40.7119 12.7401C41.5658 14.1882 41.2561 15.9603 40.1797 17.079L38.165 19.1718C39.0381 19.2476 39.9054 19.4233 40.75 19.702C42.4615 20.2669 43.7277 21.8639 43.7383 23.786C43.7385 23.83 43.7383 23.8738 43.7383 23.9169C43.7383 25.9434 43.4671 27.9083 42.958 29.7723C42.5276 31.348 41.1047 32.3688 39.5518 32.369H32.3057C30.569 32.369 28.8524 32.7869 27.29 33.5936L23.918 35.3348L23 35.8085L22.082 35.3348L18.71 33.5936C17.1476 32.7869 15.431 32.369 13.6943 32.369H6.44824C4.89526 32.3688 3.47238 31.348 3.04199 29.7723C2.53291 27.9083 2.26173 25.9434 2.26172 23.9169C2.26172 23.8738 2.26148 23.8301 2.26172 23.786C2.27229 21.8641 3.53783 20.267 5.24902 19.702C6.09314 19.4234 6.96039 19.2487 7.83301 19.1727L5.82031 17.08C4.74409 15.9614 4.43447 14.1891 5.28809 12.7411L5.68164 12.0995C6.62481 10.6199 7.74084 9.2675 9.00098 8.07312L9.14062 7.94714C10.6064 6.69492 12.6814 6.96072 13.9014 8.22839L17.0938 11.5458V6.21375C17.0938 4.5819 18.2122 2.9261 20.082 2.6532L20.8018 2.5614C21.5246 2.48246 22.2582 2.44226 23 2.44226Z" fill="#F9F9F3" stroke="#FF5310" stroke-width="4"/>
</svg>
