<svg width="1197" height="361" viewBox="0 0 1197 361" fill="none" xmlns="http://www.w3.org/2000/svg">
<g clip-path="url(#clip0_0_1)">
<rect x="3.5" y="43.5" width="1190" height="274" stroke="#E4E4D9"/>
<path d="M791.438 318L844 318L844 272.167M791.438 318L791.438 272.167M791.438 318L738.875 318M791.438 272.167L844 272.167M791.438 272.167L791.438 226.333M791.438 272.167L738.875 272.167M844 272.167L844 226.333M791.438 226.333L844 226.333M791.438 226.333L791.438 180.5M791.438 226.333L738.875 226.333M844 226.333L844 180.5M791.438 180.5L844 180.5M791.438 180.5L791.438 134.667M791.438 180.5L738.875 180.5M844 180.5L844 134.667M791.438 134.667L844 134.667M791.438 134.667L791.438 88.8334M791.438 134.667L738.875 134.667M844 134.667L844 88.8334M791.438 88.8334L844 88.8334M791.438 88.8334L791.438 43.0001M791.438 88.8334L738.875 88.8334M844 88.8334L844 43.0001L791.438 43.0001M791.438 43.0001L738.875 43M738.875 318L738.875 272.167M738.875 318L686.313 318M738.875 272.167L738.875 226.333M738.875 272.167L686.313 272.167M738.875 226.333L738.875 180.5M738.875 226.333L686.313 226.333M738.875 180.5L738.875 134.667M738.875 180.5L686.313 180.5M738.875 134.667L738.875 88.8334M738.875 134.667L686.313 134.667M738.875 88.8334L738.875 43M738.875 88.8334L686.313 88.8334M738.875 43L686.313 43M686.313 318L686.313 272.167M686.313 318L633.75 318M686.313 272.167L686.313 226.333M686.313 272.167L633.75 272.167M686.313 226.333L686.313 180.5M686.313 226.333L633.75 226.333M686.313 180.5L686.313 134.667M686.313 180.5L633.75 180.5M686.313 134.667L686.313 88.8334M686.313 134.667L633.75 134.667M686.313 88.8334L686.313 43M686.313 88.8334L633.75 88.8334M686.313 43L633.75 43M633.75 318L633.75 272.167M633.75 318L581.188 318M633.75 272.167L633.75 226.333M633.75 272.167L581.188 272.167M633.75 226.333L633.75 180.5M633.75 226.333L581.188 226.333M633.75 180.5L633.75 134.667M633.75 180.5L581.188 180.5M633.75 134.667L633.75 88.8334M633.75 134.667L581.188 134.667M633.75 88.8334L633.75 43M633.75 88.8334L581.188 88.8334M633.75 43L581.188 43M581.188 318L581.188 272.167M581.188 318L528.625 318M581.188 272.167L581.188 226.333M581.188 272.167L528.625 272.167M581.188 226.333L581.188 180.5M581.188 226.333L528.625 226.333M581.188 180.5L581.188 134.667M581.188 180.5L528.625 180.5M581.188 134.667L581.188 88.8334M581.188 134.667L528.625 134.667M581.188 88.8334L581.188 43M581.188 88.8334L528.625 88.8334M581.188 43L528.625 43M528.625 318L528.625 272.167M528.625 318L476.063 318M528.625 272.167L528.625 226.333M528.625 272.167L476.063 272.167M528.625 226.333L528.625 180.5M528.625 226.333L476.063 226.333M528.625 180.5L528.625 134.667M528.625 180.5L476.063 180.5M528.625 134.667L528.625 88.8334M528.625 134.667L476.063 134.667M528.625 88.8334L528.625 43M528.625 88.8334L476.063 88.8334M528.625 43L476.063 43M476.063 318L476.063 272.167M476.063 318L423.5 318M476.063 272.167L476.063 226.333M476.063 272.167L423.5 272.167M476.063 226.333L476.063 180.5M476.063 226.333L423.5 226.333M476.063 180.5L476.063 134.667M476.063 180.5L423.5 180.5M476.063 134.667L476.063 88.8334M476.063 134.667L423.5 134.667M476.063 88.8334L476.063 43M476.063 88.8334L423.5 88.8333M476.063 43L423.5 43M423.5 318L423.5 272.167M423.5 318L370.938 318M423.5 272.167L423.5 226.333M423.5 272.167L370.938 272.167M423.5 226.333L423.5 180.5M423.5 226.333L370.938 226.333M423.5 180.5L423.5 134.667M423.5 180.5L370.938 180.5M423.5 134.667L423.5 88.8333M423.5 134.667L370.938 134.667M423.5 88.8333L423.5 43M423.5 88.8333L370.938 88.8333M423.5 43L370.938 43M370.938 318L370.938 272.167M370.938 318L318.375 318M370.938 272.167L370.938 226.333M370.938 272.167L318.375 272.167M370.938 226.333L370.938 180.5M370.938 226.333L318.375 226.333M370.938 180.5L370.938 134.667M370.938 180.5L318.375 180.5M370.938 134.667L370.938 88.8333M370.938 134.667L318.375 134.667M370.938 88.8333L370.938 43M370.938 88.8333L318.375 88.8333M370.938 43L318.375 43M318.375 318L318.375 272.167M318.375 318L265.813 318M318.375 272.167L318.375 226.333M318.375 272.167L265.813 272.167M318.375 226.333L318.375 180.5M318.375 226.333L265.813 226.333M318.375 180.5L318.375 134.667M318.375 180.5L265.813 180.5M318.375 134.667L318.375 88.8333M318.375 134.667L265.813 134.667M318.375 88.8333L318.375 43M318.375 88.8333L265.813 88.8333M318.375 43L265.813 43M265.813 318L265.813 272.167M265.813 318L213.25 318M265.813 272.167L265.813 226.333M265.813 272.167L213.25 272.167M265.813 226.333L265.813 180.5M265.813 226.333L213.25 226.333M265.813 180.5L265.813 134.667M265.813 180.5L213.25 180.5M265.813 134.667L265.813 88.8333M265.813 134.667L213.25 134.667M265.813 88.8333L265.813 43M265.813 88.8333L213.25 88.8333M265.813 43L213.25 43M213.25 318L213.25 272.167M213.25 318L160.688 318M213.25 272.167L213.25 226.333M213.25 272.167L160.688 272.167M213.25 226.333L213.25 180.5M213.25 226.333L160.688 226.333M213.25 180.5L213.25 134.667M213.25 180.5L160.688 180.5M213.25 134.667L213.25 88.8333M213.25 134.667L160.688 134.667M213.25 88.8333L213.25 43M213.25 88.8333L160.688 88.8333M213.25 43L160.688 43M160.688 318L160.688 272.167M160.688 318L108.125 318M160.688 272.167L160.688 226.333M160.688 272.167L108.125 272.167M160.688 226.333L160.688 180.5M160.688 226.333L108.125 226.333M160.688 180.5L160.688 134.667M160.688 180.5L108.125 180.5M160.688 134.667L160.688 88.8333M160.688 134.667L108.125 134.667M160.688 88.8333L160.688 43M160.688 88.8333L108.125 88.8333M160.688 43L108.125 43M108.125 318L108.125 272.167M108.125 318L55.5625 318M108.125 272.167L108.125 226.333M108.125 272.167L55.5625 272.167M108.125 226.333L108.125 180.5M108.125 226.333L55.5625 226.333M108.125 180.5L108.125 134.667M108.125 180.5L55.5625 180.5M108.125 134.667L108.125 88.8333M108.125 134.667L55.5625 134.667M108.125 88.8333L108.125 43M108.125 88.8333L55.5625 88.8333M108.125 43L55.5625 43M55.5625 318L55.5625 272.167M55.5625 318L3.00001 318L3.00002 272.167M55.5625 272.167L55.5625 226.333M55.5625 272.167L3.00002 272.167M55.5625 226.333L55.5625 180.5M55.5625 226.333L3.00002 226.333M55.5625 180.5L55.5625 134.667M55.5625 180.5L3.00002 180.5M55.5625 134.667L55.5625 88.8333M55.5625 134.667L3.00003 134.667M55.5625 88.8333L55.5625 43M55.5625 88.8333L3.00003 88.8333M55.5625 43L3.00004 43L3.00003 88.8333M3.00002 272.167L3.00002 226.333M3.00002 226.333L3.00002 180.5M3.00002 180.5L3.00003 134.667M3.00003 134.667L3.00003 88.8333" stroke="url(#paint0_linear_0_1)" stroke-opacity="0.7"/>
<path d="M405.563 318L353 318L353 272.167M405.563 318L405.563 272.167M405.563 318L458.125 318M405.563 272.167L353 272.167M405.563 272.167L405.563 226.333M405.563 272.167L458.125 272.167M353 272.167L353 226.333M405.563 226.333L353 226.333M405.563 226.333L405.563 180.5M405.563 226.333L458.125 226.333M353 226.333L353 180.5M405.563 180.5L353 180.5M405.563 180.5L405.563 134.667M405.563 180.5L458.125 180.5M353 180.5L353 134.667M405.563 134.667L353 134.667M405.563 134.667L405.563 88.8334M405.563 134.667L458.125 134.667M353 134.667L353 88.8334M405.563 88.8334L353 88.8334M405.563 88.8334L405.563 43.0001M405.563 88.8334L458.125 88.8334M353 88.8334L353 43.0001L405.563 43.0001M405.563 43.0001L458.125 43M458.125 318L458.125 272.167M458.125 318L510.688 318M458.125 272.167L458.125 226.333M458.125 272.167L510.688 272.167M458.125 226.333L458.125 180.5M458.125 226.333L510.688 226.333M458.125 180.5L458.125 134.667M458.125 180.5L510.688 180.5M458.125 134.667L458.125 88.8334M458.125 134.667L510.688 134.667M458.125 88.8334L458.125 43M458.125 88.8334L510.688 88.8334M458.125 43L510.688 43M510.688 318L510.688 272.167M510.688 318L563.25 318M510.688 272.167L510.688 226.333M510.688 272.167L563.25 272.167M510.688 226.333L510.688 180.5M510.688 226.333L563.25 226.333M510.688 180.5L510.688 134.667M510.688 180.5L563.25 180.5M510.688 134.667L510.688 88.8334M510.688 134.667L563.25 134.667M510.688 88.8334L510.688 43M510.688 88.8334L563.25 88.8334M510.688 43L563.25 43M563.25 318L563.25 272.167M563.25 318L615.813 318M563.25 272.167L563.25 226.333M563.25 272.167L615.813 272.167M563.25 226.333L563.25 180.5M563.25 226.333L615.813 226.333M563.25 180.5L563.25 134.667M563.25 180.5L615.813 180.5M563.25 134.667L563.25 88.8334M563.25 134.667L615.813 134.667M563.25 88.8334L563.25 43M563.25 88.8334L615.813 88.8334M563.25 43L615.813 43M615.813 318L615.813 272.167M615.813 318L668.375 318M615.813 272.167L615.813 226.333M615.813 272.167L668.375 272.167M615.813 226.333L615.813 180.5M615.813 226.333L668.375 226.333M615.813 180.5L615.813 134.667M615.813 180.5L668.375 180.5M615.813 134.667L615.813 88.8334M615.813 134.667L668.375 134.667M615.813 88.8334L615.813 43M615.813 88.8334L668.375 88.8334M615.813 43L668.375 43M668.375 318L668.375 272.167M668.375 318L720.938 318M668.375 272.167L668.375 226.333M668.375 272.167L720.938 272.167M668.375 226.333L668.375 180.5M668.375 226.333L720.938 226.333M668.375 180.5L668.375 134.667M668.375 180.5L720.938 180.5M668.375 134.667L668.375 88.8334M668.375 134.667L720.938 134.667M668.375 88.8334L668.375 43M668.375 88.8334L720.938 88.8334M668.375 43L720.938 43M720.938 318L720.938 272.167M720.938 318L773.5 318M720.938 272.167L720.938 226.333M720.938 272.167L773.5 272.167M720.938 226.333L720.938 180.5M720.938 226.333L773.5 226.333M720.938 180.5L720.938 134.667M720.938 180.5L773.5 180.5M720.938 134.667L720.938 88.8334M720.938 134.667L773.5 134.667M720.938 88.8334L720.938 43M720.938 88.8334L773.5 88.8333M720.938 43L773.5 43M773.5 318L773.5 272.167M773.5 318L826.063 318M773.5 272.167L773.5 226.333M773.5 272.167L826.063 272.167M773.5 226.333L773.5 180.5M773.5 226.333L826.063 226.333M773.5 180.5L773.5 134.667M773.5 180.5L826.063 180.5M773.5 134.667L773.5 88.8333M773.5 134.667L826.063 134.667M773.5 88.8333L773.5 43M773.5 88.8333L826.063 88.8333M773.5 43L826.062 43M826.063 318L826.063 272.167M826.063 318L878.625 318M826.063 272.167L826.063 226.333M826.063 272.167L878.625 272.167M826.063 226.333L826.063 180.5M826.063 226.333L878.625 226.333M826.063 180.5L826.063 134.667M826.063 180.5L878.625 180.5M826.063 134.667L826.063 88.8333M826.063 134.667L878.625 134.667M826.063 88.8333L826.062 43M826.063 88.8333L878.625 88.8333M826.062 43L878.625 43M878.625 318L878.625 272.167M878.625 318L931.188 318M878.625 272.167L878.625 226.333M878.625 272.167L931.188 272.167M878.625 226.333L878.625 180.5M878.625 226.333L931.188 226.333M878.625 180.5L878.625 134.667M878.625 180.5L931.188 180.5M878.625 134.667L878.625 88.8333M878.625 134.667L931.188 134.667M878.625 88.8333L878.625 43M878.625 88.8333L931.188 88.8333M878.625 43L931.187 43M931.188 318L931.188 272.167M931.188 318L983.75 318M931.188 272.167L931.188 226.333M931.188 272.167L983.75 272.167M931.188 226.333L931.188 180.5M931.188 226.333L983.75 226.333M931.188 180.5L931.188 134.667M931.188 180.5L983.75 180.5M931.188 134.667L931.188 88.8333M931.188 134.667L983.75 134.667M931.188 88.8333L931.187 43M931.188 88.8333L983.75 88.8333M931.187 43L983.75 43M983.75 318L983.75 272.167M983.75 318L1036.31 318M983.75 272.167L983.75 226.333M983.75 272.167L1036.31 272.167M983.75 226.333L983.75 180.5M983.75 226.333L1036.31 226.333M983.75 180.5L983.75 134.667M983.75 180.5L1036.31 180.5M983.75 134.667L983.75 88.8333M983.75 134.667L1036.31 134.667M983.75 88.8333L983.75 43M983.75 88.8333L1036.31 88.8333M983.75 43L1036.31 43M1036.31 318L1036.31 272.167M1036.31 318L1088.88 318M1036.31 272.167L1036.31 226.333M1036.31 272.167L1088.88 272.167M1036.31 226.333L1036.31 180.5M1036.31 226.333L1088.88 226.333M1036.31 180.5L1036.31 134.667M1036.31 180.5L1088.88 180.5M1036.31 134.667L1036.31 88.8333M1036.31 134.667L1088.88 134.667M1036.31 88.8333L1036.31 43M1036.31 88.8333L1088.87 88.8333M1036.31 43L1088.87 43M1088.88 318L1088.88 272.167M1088.88 318L1141.44 318M1088.88 272.167L1088.88 226.333M1088.88 272.167L1141.44 272.167M1088.88 226.333L1088.88 180.5M1088.88 226.333L1141.44 226.333M1088.88 180.5L1088.88 134.667M1088.88 180.5L1141.44 180.5M1088.88 134.667L1088.87 88.8333M1088.88 134.667L1141.44 134.667M1088.87 88.8333L1088.87 43M1088.87 88.8333L1141.44 88.8333M1088.87 43L1141.44 43M1141.44 318L1141.44 272.167M1141.44 318L1194 318L1194 272.167M1141.44 272.167L1141.44 226.333M1141.44 272.167L1194 272.167M1141.44 226.333L1141.44 180.5M1141.44 226.333L1194 226.333M1141.44 180.5L1141.44 134.667M1141.44 180.5L1194 180.5M1141.44 134.667L1141.44 88.8333M1141.44 134.667L1194 134.667M1141.44 88.8333L1141.44 43M1141.44 88.8333L1194 88.8333M1141.44 43L1194 43L1194 88.8333M1194 272.167L1194 226.333M1194 226.333L1194 180.5M1194 180.5L1194 134.667M1194 134.667L1194 88.8333" stroke="url(#paint1_linear_0_1)" stroke-opacity="0.7"/>
</g>
<mask id="path-4-inside-1_0_1" fill="white">
<path d="M3 0H1194V361H3V0Z"/>
</mask>
<path d="M1193 0V361H1195V0H1193ZM4 361V0H2V361H4Z" fill="#E4E4D9" mask="url(#path-4-inside-1_0_1)"/>
<circle cx="1194" cy="43" r="3" fill="#E4E4D9"/>
<circle cx="3" cy="43" r="3" fill="#E4E4D9"/>
<circle cx="3" cy="318" r="3" fill="#E4E4D9"/>
<circle cx="1194" cy="318" r="3" fill="#E4E4D9"/>
<path d="M599 21.4423C599.989 21.4423 600.964 21.5139 601.918 21.6532C603.788 21.9263 604.905 23.582 604.905 25.2137V30.5468L608.099 27.2284L608.219 27.1093C609.492 25.9064 611.574 25.7225 612.999 27.0731C614.439 28.4378 615.691 30.0088 616.712 31.7401C617.566 33.1882 617.256 34.9603 616.18 36.079L614.165 38.1718C615.038 38.2476 615.905 38.4233 616.75 38.702C618.461 39.2669 619.728 40.8639 619.738 42.786C619.739 42.83 619.738 42.8738 619.738 42.9169C619.738 44.9434 619.467 46.9083 618.958 48.7723C618.528 50.348 617.105 51.3688 615.552 51.369H608.306C606.569 51.369 604.852 51.7869 603.29 52.5936L599.918 54.3348L599 54.8085L598.082 54.3348L594.71 52.5936C593.148 51.7869 591.431 51.369 589.694 51.369H582.448C580.895 51.3688 579.472 50.348 579.042 48.7723C578.533 46.9083 578.262 44.9434 578.262 42.9169C578.262 42.8738 578.261 42.8301 578.262 42.786C578.272 40.8641 579.538 39.267 581.249 38.702C582.093 38.4234 582.96 38.2487 583.833 38.1727L581.82 36.08C580.744 34.9614 580.434 33.1891 581.288 31.7411L581.682 31.0995C582.625 29.6199 583.741 28.2675 585.001 27.0731L585.141 26.9471C586.606 25.6949 588.681 25.9607 589.901 27.2284L593.094 30.5458V25.2137C593.094 23.5819 594.212 21.9261 596.082 21.6532L596.802 21.5614C597.525 21.4825 598.258 21.4423 599 21.4423Z" fill="#F9F9F3" stroke="#FF5310" stroke-width="4"/>
<circle cx="599" cy="317" r="4" fill="#030416"/>
<defs>
<linearGradient id="paint0_linear_0_1" x1="39.8321" y1="213.69" x2="654.724" y2="213.69" gradientUnits="userSpaceOnUse">
<stop stop-color="#E5E5E0"/>
<stop offset="1" stop-color="#CFD1D3" stop-opacity="0"/>
</linearGradient>
<linearGradient id="paint1_linear_0_1" x1="1157.17" y1="213.69" x2="542.276" y2="213.69" gradientUnits="userSpaceOnUse">
<stop stop-color="#E5E5E0"/>
<stop offset="1" stop-color="#CFD1D3" stop-opacity="0"/>
</linearGradient>
<clipPath id="clip0_0_1">
<rect width="1191" height="275" fill="white" transform="translate(3 43)"/>
</clipPath>
</defs>
</svg>
