<svg width="18" height="16" viewBox="0 0 18 16" fill="none" xmlns="http://www.w3.org/2000/svg">
<path d="M10.875 7.31641C10.875 7.48217 10.8092 7.64114 10.6919 7.75835C10.5747 7.87556 10.4158 7.94141 10.25 7.94141H7.75C7.58424 7.94141 7.42527 7.87556 7.30806 7.75835C7.19085 7.64114 7.125 7.48217 7.125 7.31641C7.125 7.15065 7.19085 6.99167 7.30806 6.87446C7.42527 6.75725 7.58424 6.69141 7.75 6.69141H10.25C10.4158 6.69141 10.5747 6.75725 10.6919 6.87446C10.8092 6.99167 10.875 7.15065 10.875 7.31641ZM17.125 4.19141V14.1914C17.125 14.5229 16.9933 14.8409 16.7589 15.0753C16.5245 15.3097 16.2065 15.4414 15.875 15.4414H2.125C1.79348 15.4414 1.47554 15.3097 1.24112 15.0753C1.0067 14.8409 0.875 14.5229 0.875 14.1914V4.19141C0.875 3.85989 1.0067 3.54194 1.24112 3.30752C1.47554 3.0731 1.79348 2.94141 2.125 2.94141H5.25V2.31641C5.25 1.81913 5.44754 1.34221 5.79917 0.990581C6.15081 0.63895 6.62772 0.441406 7.125 0.441406H10.875C11.3723 0.441406 11.8492 0.63895 12.2008 0.990581C12.5525 1.34221 12.75 1.81913 12.75 2.31641V2.94141H15.875C16.2065 2.94141 16.5245 3.0731 16.7589 3.30752C16.9933 3.54194 17.125 3.85989 17.125 4.19141ZM6.5 2.94141H11.5V2.31641C11.5 2.15065 11.4342 1.99167 11.3169 1.87446C11.1997 1.75725 11.0408 1.69141 10.875 1.69141H7.125C6.95924 1.69141 6.80027 1.75725 6.68306 1.87446C6.56585 1.99167 6.5 2.15065 6.5 2.31641V2.94141ZM15.875 7.44219V4.19141H2.125V7.44219C4.23455 8.59045 6.59819 9.19184 9 9.19141C11.4018 9.19184 13.7655 8.59045 15.875 7.44219Z" fill="#07B268"/>
</svg>
