<svg width="19" height="16" viewBox="0 0 19 16" fill="none" xmlns="http://www.w3.org/2000/svg">
<path d="M16.0529 4.07227V3.75977C16.052 3.08262 15.8512 2.42079 15.4757 1.85734C15.1001 1.29389 14.5665 0.853922 13.9417 0.592638C13.317 0.331354 12.6291 0.260398 11.9642 0.388674C11.2993 0.51695 10.6871 0.838743 10.2044 1.31367C10.1759 1.34245 10.1533 1.3766 10.138 1.41414C10.1227 1.45169 10.115 1.49189 10.1154 1.53242V8.46367C10.1155 8.52001 10.1309 8.57527 10.1599 8.62358C10.1889 8.6719 10.2304 8.71148 10.28 8.73814C10.3296 8.7648 10.3855 8.77755 10.4418 8.77503C10.4981 8.77251 10.5527 8.75482 10.5997 8.72383C11.194 8.34277 11.8844 8.13848 12.5904 8.13477C12.7538 8.13173 12.9121 8.19142 13.0329 8.30157C13.1537 8.41172 13.2276 8.56395 13.2396 8.72695C13.244 8.81175 13.2312 8.89656 13.2018 8.97622C13.1724 9.05588 13.127 9.12871 13.0685 9.19026C13.01 9.25182 12.9396 9.30081 12.8616 9.33426C12.7835 9.3677 12.6995 9.38488 12.6146 9.38477C11.9515 9.38477 11.3156 9.64816 10.8468 10.117C10.378 10.5858 10.1146 11.2217 10.1146 11.8848V14.5316C10.1145 14.5784 10.1249 14.6246 10.1451 14.6667C10.1652 14.7089 10.1946 14.7461 10.231 14.7754C10.6745 15.1424 11.1967 15.4023 11.7569 15.5346C12.3172 15.667 12.9004 15.6684 13.4613 15.5387C14.0222 15.409 14.5456 15.1517 14.9909 14.7868C15.4362 14.4219 15.7913 13.9592 16.0286 13.4348C16.0525 13.382 16.0613 13.3237 16.054 13.2662C16.0466 13.2088 16.0235 13.1545 15.9871 13.1095C15.9507 13.0644 15.9025 13.0304 15.8479 13.0111C15.7933 12.9918 15.7345 12.9881 15.6779 13.0004C15.2883 13.0897 14.89 13.1347 14.4904 13.1348H13.8865C13.7252 13.1368 13.5692 13.0777 13.4496 12.9695C13.3301 12.8612 13.2559 12.7118 13.2419 12.5512C13.2362 12.4657 13.2482 12.3799 13.2771 12.2993C13.3059 12.2186 13.3511 12.1447 13.4097 12.0822C13.4683 12.0197 13.5391 11.9699 13.6178 11.936C13.6964 11.902 13.7812 11.8846 13.8669 11.8848H14.4919C15.1449 11.8858 15.7883 11.7281 16.3669 11.4254C17.0521 11.0685 17.6213 10.5237 18.0078 9.85485C18.3944 9.18596 18.5821 8.42074 18.5492 7.64891C18.5162 6.87709 18.2639 6.13066 17.8217 5.49717C17.3796 4.86368 16.766 4.36939 16.0529 4.07227ZM15.1154 6.88477H14.8029C14.0569 6.88477 13.3416 6.58845 12.8141 6.061C12.2867 5.53356 11.9904 4.81819 11.9904 4.07227V3.75977C11.9904 3.59401 12.0562 3.43503 12.1734 3.31782C12.2906 3.20061 12.4496 3.13477 12.6154 3.13477C12.7811 3.13477 12.9401 3.20061 13.0573 3.31782C13.1745 3.43503 13.2404 3.59401 13.2404 3.75977V4.07227C13.2404 4.27746 13.2808 4.48064 13.3593 4.67021C13.4378 4.85978 13.5529 5.03203 13.698 5.17712C13.991 5.47015 14.3885 5.63477 14.8029 5.63477H15.1154C15.2811 5.63477 15.4401 5.70061 15.5573 5.81782C15.6745 5.93503 15.7404 6.09401 15.7404 6.25977C15.7404 6.42553 15.6745 6.5845 15.5573 6.70171C15.4401 6.81892 15.2811 6.88477 15.1154 6.88477ZM6.36536 0.322266C5.45399 0.3233 4.58025 0.685796 3.93582 1.33023C3.29139 1.97466 2.92889 2.8484 2.92786 3.75977V4.07227C2.21483 4.36955 1.60135 4.86397 1.15936 5.49755C0.717362 6.13113 0.465177 6.87759 0.432376 7.64941C0.399574 8.42123 0.587516 9.1864 0.974162 9.8552C1.36081 10.524 1.93013 11.0687 2.61536 11.4254C3.19393 11.7281 3.83738 11.8858 4.49036 11.8848H5.09426C5.25577 11.8824 5.4122 11.9412 5.53207 12.0495C5.65193 12.1578 5.72635 12.3074 5.74036 12.4684C5.74603 12.5539 5.73407 12.6396 5.70521 12.7203C5.67636 12.8009 5.63122 12.8748 5.57261 12.9373C5.514 12.9998 5.44316 13.0496 5.3645 13.0836C5.28584 13.1175 5.20104 13.135 5.11536 13.1348H4.49036C4.09042 13.1349 3.69176 13.0896 3.30208 12.9996C3.24552 12.9873 3.18666 12.9909 3.13204 13.01C3.07742 13.0292 3.02919 13.0632 2.99274 13.1081C2.95628 13.1531 2.93303 13.2073 2.92558 13.2647C2.91812 13.3221 2.92675 13.3804 2.95051 13.4332C3.18781 13.9578 3.54289 14.4207 3.98815 14.7857C4.43342 15.1508 4.95688 15.4083 5.51784 15.5381C6.0788 15.668 6.66215 15.6667 7.22254 15.5344C7.78294 15.4021 8.30527 15.1424 8.74895 14.7754C8.78535 14.7461 8.8147 14.7089 8.83485 14.6667C8.855 14.6246 8.86542 14.5784 8.86536 14.5316V11.8848C8.86536 11.2217 8.60196 10.5858 8.13312 10.117C7.66428 9.64816 7.0284 9.38477 6.36536 9.38477C6.28045 9.38488 6.1964 9.3677 6.11835 9.33426C6.0403 9.30081 5.96988 9.25182 5.9114 9.19026C5.85291 9.12871 5.80758 9.05588 5.77817 8.97622C5.74877 8.89656 5.7359 8.81175 5.74036 8.72695C5.75232 8.56381 5.8264 8.41146 5.94732 8.3013C6.06824 8.19113 6.22681 8.13153 6.39036 8.13477C7.09632 8.13848 7.78668 8.34277 8.38098 8.72383C8.42804 8.75482 8.4826 8.77251 8.53888 8.77503C8.59517 8.77755 8.65109 8.7648 8.70072 8.73814C8.75036 8.71148 8.79187 8.6719 8.82085 8.62358C8.84983 8.57527 8.86521 8.52001 8.86536 8.46367V1.53242C8.86563 1.45039 8.83364 1.37154 8.77629 1.31289C8.13457 0.67791 7.26814 0.321904 6.36536 0.322266ZM6.99036 4.07227C6.99036 4.81819 6.69404 5.53356 6.16659 6.061C5.63915 6.58845 4.92378 6.88477 4.17786 6.88477H3.86536C3.6996 6.88477 3.54063 6.81892 3.42342 6.70171C3.30621 6.5845 3.24036 6.42553 3.24036 6.25977C3.24036 6.09401 3.30621 5.93503 3.42342 5.81782C3.54063 5.70061 3.6996 5.63477 3.86536 5.63477H4.17786C4.38305 5.63477 4.58623 5.59435 4.7758 5.51583C4.96537 5.4373 5.13762 5.32221 5.28271 5.17712C5.4278 5.03203 5.5429 4.85978 5.62142 4.67021C5.69994 4.48064 5.74036 4.27746 5.74036 4.07227V3.75977C5.74036 3.59401 5.80621 3.43503 5.92342 3.31782C6.04063 3.20061 6.1996 3.13477 6.36536 3.13477C6.53112 3.13477 6.69009 3.20061 6.8073 3.31782C6.92451 3.43503 6.99036 3.59401 6.99036 3.75977V4.07227Z" fill="#704FE6"/>
</svg>
