<svg width="19" height="14" viewBox="0 0 19 14" fill="none" xmlns="http://www.w3.org/2000/svg">
<path d="M13.8652 4.13242V3.69727C13.8652 1.73789 10.9098 0.259766 6.99023 0.259766C3.0707 0.259766 0.115234 1.73789 0.115234 3.69727V6.82227C0.115234 8.4543 2.16602 9.75117 5.11523 10.1395V10.5723C5.11523 12.5316 8.0707 14.0098 11.9902 14.0098C15.9098 14.0098 18.8652 12.5316 18.8652 10.5723V7.44727C18.8652 5.83008 16.8793 4.53164 13.8652 4.13242ZM3.86523 8.60898C2.33477 8.18164 1.36523 7.47773 1.36523 6.82227V5.72305C2.00273 6.17461 2.85664 6.53867 3.86523 6.7832V8.60898ZM10.1152 6.7832C11.1238 6.53867 11.9777 6.17461 12.6152 5.72305V6.82227C12.6152 7.47773 11.6457 8.18164 10.1152 8.60898V6.7832ZM8.86523 12.359C7.33477 11.9316 6.36523 11.2277 6.36523 10.5723V10.2465C6.5707 10.2543 6.77852 10.2598 6.99023 10.2598C7.29336 10.2598 7.58945 10.2496 7.88008 10.2324C8.20294 10.348 8.5318 10.4461 8.86523 10.5262V12.359ZM8.86523 8.87305C8.24446 8.96476 7.61775 9.01045 6.99023 9.00977C6.36272 9.01045 5.73601 8.96476 5.11523 8.87305V7.01445C5.73694 7.09546 6.36328 7.13565 6.99023 7.13477C7.61719 7.13565 8.24353 7.09546 8.86523 7.01445V8.87305ZM13.8652 12.623C12.6219 12.8053 11.3586 12.8053 10.1152 12.623V10.7598C10.7367 10.8433 11.3631 10.8851 11.9902 10.8848C12.6172 10.8857 13.2435 10.8455 13.8652 10.7645V12.623ZM17.6152 10.5723C17.6152 11.2277 16.6457 11.9316 15.1152 12.359V10.5332C16.1238 10.2887 16.9777 9.92461 17.6152 9.47305V10.5723Z" fill="#F25144"/>
</svg>
