<svg width="20" height="13" viewBox="0 0 20 13" fill="none" xmlns="http://www.w3.org/2000/svg">
<path d="M19.375 9.06612C19.374 10.0604 18.9785 11.0136 18.2755 11.7166C17.5725 12.4197 16.6192 12.8151 15.625 12.8161H11.875C10.4961 12.8161 9.375 11.6638 9.375 10.2466C9.375 8.8294 10.4961 7.67706 11.875 7.67706C11.9622 7.67704 12.0493 7.68174 12.1359 7.69112C12.456 6.87863 13.0496 6.20331 13.8143 5.78165C14.579 5.35999 15.4669 5.21842 16.3248 5.38138C17.1827 5.54433 17.9568 6.00158 18.5137 6.67426C19.0705 7.34694 19.3751 8.19287 19.375 9.06612ZM8.75 2.19112C10.5408 2.18752 12.2616 2.88622 13.543 4.13721C13.6626 4.24862 13.8211 4.30873 13.9845 4.30468C14.1479 4.30062 14.3032 4.23271 14.4171 4.11551C14.531 3.99831 14.5945 3.84115 14.5939 3.6777C14.5934 3.51425 14.5288 3.35752 14.4141 3.24112C13.2689 2.12766 11.821 1.37642 10.2512 1.0813C8.68149 0.786186 7.05959 0.960283 5.58824 1.58183C4.1169 2.20338 2.86139 3.24481 1.97864 4.57595C1.09589 5.90708 0.625057 7.46888 0.625 9.06612V10.3161C0.625 10.4819 0.690848 10.6409 0.808058 10.7581C0.925268 10.8753 1.08424 10.9411 1.25 10.9411C1.41576 10.9411 1.57473 10.8753 1.69194 10.7581C1.80915 10.6409 1.875 10.4819 1.875 10.3161V9.06612C1.87707 7.24339 2.60206 5.49591 3.89092 4.20704C5.17979 2.91818 6.92727 2.19319 8.75 2.19112ZM8.75 4.69112C9.68125 4.68856 10.5887 4.98546 11.3383 5.53799C11.4035 5.59414 11.4796 5.63622 11.5618 5.66159C11.644 5.68696 11.7306 5.69509 11.8161 5.68545C11.9016 5.67582 11.9842 5.64863 12.0587 5.6056C12.1332 5.56256 12.198 5.50461 12.2491 5.43536C12.3002 5.36611 12.3364 5.28707 12.3555 5.20317C12.3746 5.11927 12.3762 5.03234 12.3601 4.9478C12.3441 4.86327 12.3108 4.78296 12.2622 4.7119C12.2137 4.64085 12.151 4.58058 12.0781 4.53487C11.2402 3.91991 10.2483 3.54913 9.21242 3.46369C8.17657 3.37824 7.13729 3.58147 6.20993 4.05081C5.28256 4.52016 4.50337 5.23728 3.95882 6.12258C3.41427 7.00788 3.12565 8.02675 3.125 9.06612V10.3161C3.125 10.4819 3.19085 10.6409 3.30806 10.7581C3.42527 10.8753 3.58424 10.9411 3.75 10.9411C3.91576 10.9411 4.07473 10.8753 4.19194 10.7581C4.30915 10.6409 4.375 10.4819 4.375 10.3161V9.06612C4.37624 7.90618 4.83758 6.7941 5.65778 5.9739C6.47798 5.15369 7.59006 4.69236 8.75 4.69112ZM9.93828 6.77784C9.95722 6.69797 9.96023 6.61515 9.94716 6.53411C9.93409 6.45307 9.90518 6.37541 9.86208 6.30554C9.81899 6.23568 9.76256 6.17499 9.69601 6.12694C9.62946 6.07889 9.55409 6.04442 9.47422 6.02549C9.01504 5.9161 8.53705 5.91215 8.07612 6.01394C7.6152 6.11573 7.18332 6.32061 6.81292 6.61321C6.44251 6.9058 6.1432 7.27851 5.93746 7.70334C5.73172 8.12817 5.62489 8.59409 5.625 9.06612V10.3161C5.625 10.4819 5.69085 10.6409 5.80806 10.7581C5.92527 10.8753 6.08424 10.9411 6.25 10.9411C6.41576 10.9411 6.57473 10.8753 6.69194 10.7581C6.80915 10.6409 6.875 10.4819 6.875 10.3161V9.06612C6.87494 8.78285 6.93906 8.50324 7.06255 8.24831C7.18604 7.99337 7.36569 7.76973 7.58801 7.59418C7.81032 7.41863 8.06952 7.29573 8.34615 7.23471C8.62277 7.1737 8.90962 7.17616 9.18516 7.2419C9.26508 7.26095 9.34798 7.26406 9.4291 7.25104C9.51023 7.23802 9.58799 7.20913 9.65794 7.16603C9.72789 7.12293 9.78866 7.06646 9.83676 6.99985C9.88487 6.93324 9.91936 6.85779 9.93828 6.77784Z" fill="#FF613E"/>
</svg>
