<svg width="44" height="35" viewBox="0 0 44 35" fill="none" xmlns="http://www.w3.org/2000/svg">
<mask id="path-1-outside-1_598_249" maskUnits="userSpaceOnUse" x="-0.134766" y="-0.0253906" width="45" height="35" fill="black">
<rect fill="white" x="-0.134766" y="-0.0253906" width="45" height="35"/>
<path fill-rule="evenodd" clip-rule="evenodd" d="M30.1496 20.1512L32.2717 19.7045C34.6492 19.2039 37.119 19.3729 39.4062 20.1927C39.9595 20.391 40.2591 20.9894 40.0864 21.5512L38.4239 26.9602C38.3059 27.3441 37.9513 27.6061 37.5496 27.6061H29.9539C27.52 27.6061 25.168 28.4847 23.3302 30.0804L22.4053 30.8835C22.2378 31.0289 22.0234 31.109 21.8015 31.109C21.5857 31.1089 21.3768 31.0331 21.2112 30.8947L20.2281 30.0731C18.3211 28.4793 15.9147 27.6061 13.4293 27.6061H7.18815C6.15151 27.6061 5.2401 26.9198 4.95368 25.9235L3.92529 22.3463C3.72082 21.6351 4.05197 20.8791 4.7134 20.5471C7.52358 19.5079 10.567 19.2719 13.5026 19.8645L7.12484 13.1275C6.24208 12.195 6.28239 10.7235 7.21486 9.84072L9.08729 8.06813C10.0198 7.18537 11.4913 7.22568 12.3741 8.15816L17.9867 14.087L17.9867 6.29958C17.9867 5.01553 19.0277 3.97461 20.3117 3.97461L22.8901 3.97461C24.1741 3.97461 25.2151 5.01554 25.2151 6.29959V14.8495L31.5252 8.18397C32.4079 7.25149 33.8795 7.21118 34.812 8.09394L36.6844 9.86653C37.6169 10.7493 37.6572 12.2208 36.7744 13.1533L30.1496 20.1512Z"/>
</mask>
<path d="M32.2717 19.7045L31.4761 15.9259V15.9259L32.2717 19.7045ZM30.1496 20.1512L27.3454 17.4966L18.8432 26.4777L30.9452 23.9298L30.1496 20.1512ZM39.4062 20.1927L40.7091 16.5577L39.4062 20.1927ZM40.0864 21.5512L43.7774 22.6857L43.7775 22.6857L40.0864 21.5512ZM38.4239 26.9602L34.7329 25.8257L34.7329 25.8257L38.4239 26.9602ZM23.3302 30.0804L25.8619 32.9961L25.8619 32.9961L23.3302 30.0804ZM22.4053 30.8835L19.8737 27.9678L19.8737 27.9678L22.4053 30.8835ZM21.8015 31.109L21.8023 27.2475H21.8022L21.8015 31.109ZM21.2112 30.8947L23.6875 27.9318L23.6875 27.9318L21.2112 30.8947ZM20.2281 30.0731L17.7519 33.036L17.7519 33.036L20.2281 30.0731ZM4.95368 25.9235L8.6648 24.8566L4.95368 25.9235ZM3.92529 22.3463L0.214173 23.4132L3.92529 22.3463ZM4.7134 20.5471L3.37402 16.9254L3.17296 16.9998L2.98137 17.0959L4.7134 20.5471ZM13.5026 19.8645L12.7385 23.6496L24.6866 26.0616L16.3068 17.2098L13.5026 19.8645ZM7.12484 13.1275L9.92902 10.4728L9.92902 10.4728L7.12484 13.1275ZM7.21486 9.84072L4.5602 7.03654L4.5602 7.03654L7.21486 9.84072ZM9.08729 8.06813L11.742 10.8723L11.742 10.8723L9.08729 8.06813ZM12.3741 8.15816L9.56989 10.8128L9.56989 10.8128L12.3741 8.15816ZM17.9867 14.087L15.1826 16.7416L21.8482 23.7827V14.087H17.9867ZM17.9867 6.29958H14.1253V6.29958L17.9867 6.29958ZM20.3117 3.97461V7.83604V3.97461ZM22.8901 3.97461V0.113177V3.97461ZM25.2151 14.8495H21.3536V24.5452L28.0193 17.5042L25.2151 14.8495ZM31.5252 8.18397L28.721 5.52931L28.721 5.52931L31.5252 8.18397ZM34.812 8.09394L37.4666 5.28976V5.28976L34.812 8.09394ZM36.6844 9.86653L34.0297 12.6707V12.6707L36.6844 9.86653ZM36.7744 13.1533L33.9702 10.4986V10.4986L36.7744 13.1533ZM31.4761 15.9259L29.3541 16.3726L30.9452 23.9298L33.0672 23.4831L31.4761 15.9259ZM40.7091 16.5577C37.7492 15.4968 34.553 15.2781 31.4761 15.9259L33.0672 23.4831C34.7455 23.1297 36.4889 23.249 38.1033 23.8277L40.7091 16.5577ZM43.7775 22.6857C44.5564 20.1513 43.205 17.4523 40.7091 16.5577L38.1033 23.8277C36.714 23.3298 35.9618 21.8274 36.3954 20.4167L43.7775 22.6857ZM42.1149 28.0947L43.7774 22.6857L36.3954 20.4167L34.7329 25.8257L42.1149 28.0947ZM37.5496 31.4675C39.6469 31.4675 41.4988 30.0994 42.1149 28.0947L34.7329 25.8257C35.1131 24.5888 36.2557 23.7447 37.5496 23.7447V31.4675ZM29.9539 31.4675H37.5496V23.7447H29.9539V31.4675ZM25.8619 32.9961C26.9972 32.0103 28.4503 31.4675 29.9539 31.4675V23.7447C26.5898 23.7447 23.3388 24.9591 20.7986 27.1647L25.8619 32.9961ZM24.937 33.7992L25.8619 32.9961L20.7986 27.1647L19.8737 27.9678L24.937 33.7992ZM21.8007 34.9704C22.9531 34.9706 24.0668 34.5547 24.937 33.7992L19.8737 27.9678C20.4088 27.5032 21.0936 27.2474 21.8023 27.2475L21.8007 34.9704ZM18.735 33.8576C19.595 34.5764 20.68 34.9702 21.8007 34.9704L21.8022 27.2475C22.4914 27.2477 23.1587 27.4899 23.6875 27.9318L18.735 33.8576ZM17.7519 33.036L18.735 33.8576L23.6875 27.9318L22.7044 27.1102L17.7519 33.036ZM13.4293 31.4675C15.0095 31.4675 16.5394 32.0227 17.7519 33.036L22.7044 27.1102C20.1027 24.9359 16.8199 23.7447 13.4293 23.7447V31.4675ZM7.18815 31.4675H13.4293V23.7447H7.18815V31.4675ZM1.24257 26.9904C2.00469 29.6414 4.4298 31.4675 7.18815 31.4675V23.7447C7.87322 23.7447 8.47552 24.1982 8.6648 24.8566L1.24257 26.9904ZM0.214173 23.4132L1.24257 26.9904L8.6648 24.8566L7.6364 21.2794L0.214173 23.4132ZM2.98137 17.0959C0.658984 18.2615 -0.503767 20.9159 0.214173 23.4132L7.63641 21.2794C7.9454 22.3542 7.44496 23.4967 6.44543 23.9983L2.98137 17.0959ZM14.2667 16.0794C10.6285 15.345 6.85675 15.6375 3.37402 16.9254L6.05278 24.1688C8.1904 23.3783 10.5054 23.1988 12.7385 23.6496L14.2667 16.0794ZM4.32066 15.7822L10.6984 22.5192L16.3068 17.2098L9.92902 10.4728L4.32066 15.7822ZM4.5602 7.03654C2.07902 9.38542 1.97177 13.301 4.32066 15.7822L9.92902 10.4728C10.5124 11.0891 10.4858 12.0615 9.86953 12.6449L4.5602 7.03654ZM6.43263 5.26395L4.5602 7.03654L9.86952 12.6449L11.742 10.8723L6.43263 5.26395ZM15.1783 5.5035C12.8294 3.02231 8.91382 2.91506 6.43263 5.26395L11.742 10.8723C11.1257 11.4557 10.1533 11.429 9.56989 10.8128L15.1783 5.5035ZM20.7909 11.4323L15.1783 5.5035L9.56989 10.8128L15.1826 16.7416L20.7909 11.4323ZM14.1253 6.29958L14.1253 14.087L21.8482 14.087L21.8482 6.29958L14.1253 6.29958ZM20.3117 0.113177C16.8951 0.113178 14.1253 2.88292 14.1253 6.29958H21.8482C21.8482 7.14815 21.1603 7.83604 20.3117 7.83604V0.113177ZM22.8901 0.113177H20.3117V7.83604H22.8901V0.113177ZM29.0765 6.29959C29.0765 2.88293 26.3068 0.113177 22.8901 0.113177V7.83604C22.0415 7.83604 21.3536 7.14815 21.3536 6.29959H29.0765ZM29.0765 14.8495V6.29959H21.3536V14.8495H29.0765ZM28.0193 17.5042L34.3294 10.8386L28.721 5.52931L22.4109 12.1948L28.0193 17.5042ZM34.3294 10.8386C33.746 11.4549 32.7735 11.4815 32.1573 10.8981L37.4666 5.28976C34.9854 2.94087 31.0699 3.04812 28.721 5.52931L34.3294 10.8386ZM32.1573 10.8981L34.0297 12.6707L39.3391 7.06235L37.4666 5.28976L32.1573 10.8981ZM34.0297 12.6707C33.4135 12.0873 33.3869 11.1149 33.9702 10.4986L39.5786 15.808C41.9275 13.3268 41.8202 9.41123 39.3391 7.06234L34.0297 12.6707ZM33.9702 10.4986L27.3454 17.4966L32.9538 22.8059L39.5786 15.808L33.9702 10.4986Z" fill="#FF613E" mask="url(#path-1-outside-1_598_249)"/>
</svg>
