<svg width="20" height="21" viewBox="0 0 20 21" fill="none" xmlns="http://www.w3.org/2000/svg">
<path d="M17.9945 11.5868C17.7902 11.4293 17.5559 11.315 17.3059 11.2509C17.0559 11.1869 16.7956 11.1744 16.5406 11.2141C18.0078 9.73289 18.75 8.26023 18.75 6.81648C18.75 4.74851 17.0867 3.06648 15.0422 3.06648C14.4997 3.06307 13.963 3.17845 13.4699 3.40452C12.9767 3.63058 12.539 3.96185 12.1875 4.37507C11.836 3.96185 11.3983 3.63058 10.9051 3.40452C10.412 3.17845 9.87531 3.06307 9.33281 3.06648C7.28828 3.06648 5.625 4.74851 5.625 6.81648C5.625 7.67585 5.87812 8.51101 6.41094 9.3946C5.97456 9.50516 5.57632 9.73196 5.25859 10.0509L3.49141 11.8165H1.25C0.918479 11.8165 0.600537 11.9482 0.366117 12.1826C0.131696 12.417 0 12.735 0 13.0665L0 16.1915C0 16.523 0.131696 16.8409 0.366117 17.0754C0.600537 17.3098 0.918479 17.4415 1.25 17.4415H9.375C9.4261 17.4415 9.47701 17.4352 9.52656 17.4227L14.5266 16.1727C14.5584 16.1651 14.5896 16.1547 14.6195 16.1415L17.6562 14.8493L17.6906 14.8337C17.9825 14.6878 18.2324 14.4701 18.4168 14.201C18.6013 13.9319 18.7142 13.6202 18.7449 13.2954C18.7756 12.9706 18.7231 12.6433 18.5924 12.3444C18.4617 12.0455 18.257 11.7847 17.9977 11.5868H17.9945ZM17.143 13.7079L14.1742 14.9719L9.29688 16.1915H4.375V12.7001L6.14297 10.9329C6.25862 10.8163 6.39629 10.7239 6.54798 10.661C6.69967 10.5981 6.86235 10.566 7.02656 10.5665H10.9375C11.1861 10.5665 11.4246 10.6653 11.6004 10.8411C11.7762 11.0169 11.875 11.2553 11.875 11.504C11.875 11.7526 11.7762 11.9911 11.6004 12.1669C11.4246 12.3427 11.1861 12.4415 10.9375 12.4415H8.75C8.58424 12.4415 8.42527 12.5073 8.30806 12.6245C8.19085 12.7417 8.125 12.9007 8.125 13.0665C8.125 13.2322 8.19085 13.3912 8.30806 13.5084C8.42527 13.6256 8.58424 13.6915 8.75 13.6915H11.25C11.297 13.6913 11.3439 13.6861 11.3898 13.6759L16.6242 12.4719L16.6484 12.4657C16.8082 12.4213 16.9788 12.4376 17.1273 12.5115C17.2758 12.5853 17.3917 12.7114 17.4528 12.8656C17.5139 13.0198 17.5158 13.1911 17.4582 13.3466C17.4005 13.5021 17.2874 13.6308 17.1406 13.7079H17.143Z" fill="#07B268"/>
</svg>
