<svg width="20" height="21" viewBox="0 0 20 21" fill="none" xmlns="http://www.w3.org/2000/svg">
<path d="M10.007 5.04942C10.0421 4.56438 10.2022 4.09672 10.4719 3.69207C10.7417 3.28743 11.1117 2.95963 11.5459 2.74067C11.9801 2.52171 12.4637 2.41908 12.9494 2.4428C13.4351 2.46651 13.9064 2.61576 14.3172 2.87598C14.3642 2.90671 14.402 2.94953 14.4267 2.99992C14.4514 3.05032 14.4621 3.10645 14.4576 3.1624C14.4531 3.21835 14.4337 3.27206 14.4013 3.31789C14.3688 3.36372 14.3247 3.39998 14.2734 3.42285C13.5593 3.74416 12.9531 4.2648 12.5276 4.92225C12.1022 5.5797 11.8755 6.346 11.875 7.1291C11.875 7.22051 11.875 7.31192 11.8844 7.40176C11.8887 7.45855 11.8774 7.51543 11.8517 7.56627C11.826 7.6171 11.787 7.65996 11.7387 7.6902C11.6905 7.72044 11.6349 7.73692 11.5779 7.73785C11.521 7.73879 11.4649 7.72415 11.4156 7.69551C10.9552 7.43215 10.5787 7.04397 10.3294 6.57577C10.0802 6.10756 9.96842 5.57842 10.007 5.04942ZM18.75 13.1143C18.7511 13.4714 18.6522 13.8217 18.4644 14.1255C18.2766 14.4293 18.0075 14.6744 17.6875 14.833L17.6531 14.8486L14.6195 16.1408C14.5896 16.154 14.5584 16.1645 14.5266 16.1721L9.52656 17.4221C9.47704 17.4348 9.42613 17.4414 9.375 17.4416H1.25C0.918479 17.4416 0.600537 17.3099 0.366117 17.0755C0.131696 16.8411 0 16.5231 0 16.1916V13.0666C0 12.7351 0.131696 12.4171 0.366117 12.1827C0.600537 11.9483 0.918479 11.8166 1.25 11.8166H3.49141L5.25859 10.0486C5.49032 9.81588 5.76587 9.63134 6.06932 9.5057C6.37278 9.38005 6.69812 9.31578 7.02656 9.3166H10.9375C11.2676 9.31657 11.5935 9.39126 11.8907 9.53507C12.1878 9.67888 12.4486 9.88809 12.6534 10.147C12.8582 10.4059 13.0017 10.7079 13.0733 11.0302C13.1448 11.3525 13.1425 11.6868 13.0664 12.008L16.3352 11.2564C16.6197 11.1811 16.9178 11.1721 17.2064 11.2301C17.495 11.2881 17.7664 11.4117 17.9997 11.5912C18.233 11.7707 18.422 12.0013 18.5521 12.2654C18.6822 12.5295 18.7499 12.8199 18.75 13.1143ZM17.5 13.1143C17.4999 13.0109 17.476 12.909 17.4301 12.8164C17.3843 12.7238 17.3177 12.643 17.2356 12.5803C17.1534 12.5176 17.058 12.4746 16.9565 12.4548C16.8551 12.4349 16.7505 12.4387 16.6508 12.4658L16.6266 12.4721L11.3922 13.676C11.3463 13.6862 11.2994 13.6915 11.2523 13.6916H8.75C8.58424 13.6916 8.42527 13.6258 8.30806 13.5085C8.19085 13.3913 8.125 13.2324 8.125 13.0666C8.125 12.9008 8.19085 12.7419 8.30806 12.6247C8.42527 12.5075 8.58424 12.4416 8.75 12.4416H10.9375C11.1861 12.4416 11.4246 12.3428 11.6004 12.167C11.7762 11.9912 11.875 11.7527 11.875 11.5041C11.875 11.2555 11.7762 11.017 11.6004 10.8412C11.4246 10.6654 11.1861 10.5666 10.9375 10.5666H7.02656C6.86235 10.5661 6.69967 10.5982 6.54798 10.6611C6.39629 10.724 6.25862 10.8164 6.14297 10.933L4.375 12.7002V16.1916H9.29688L14.1742 14.9721L17.143 13.708C17.251 13.6511 17.3414 13.5656 17.4044 13.461C17.4673 13.3563 17.5004 13.2364 17.5 13.1143ZM13.125 7.1291C13.125 7.68536 13.29 8.22913 13.599 8.69164C13.908 9.15416 14.3473 9.51464 14.8612 9.72752C15.3751 9.94039 15.9406 9.99608 16.4862 9.88756C17.0318 9.77904 17.5329 9.51118 17.9262 9.11784C18.3196 8.72451 18.5874 8.22337 18.696 7.6778C18.8045 7.13222 18.7488 6.56672 18.5359 6.05281C18.323 5.53889 17.9626 5.09964 17.5 4.7906C17.0375 4.48155 16.4938 4.3166 15.9375 4.3166C15.1916 4.3166 14.4762 4.61292 13.9488 5.14037C13.4213 5.66781 13.125 6.38318 13.125 7.1291Z" fill="#EB502D"/>
</svg>
