<svg width="17" height="17" viewBox="0 0 17 17" fill="none" xmlns="http://www.w3.org/2000/svg">
<path d="M14.7398 6.06658C14.7398 5.88116 14.7948 5.6999 14.8978 5.54573C15.0008 5.39156 15.1472 5.2714 15.3185 5.20044C15.4898 5.12948 15.6783 5.11092 15.8602 5.14709C16.0421 5.18326 16.2091 5.27255 16.3402 5.40366C16.4713 5.53478 16.5606 5.70182 16.5968 5.88368C16.633 6.06554 16.6144 6.25404 16.5434 6.42534C16.4725 6.59665 16.3523 6.74307 16.1981 6.84608C16.044 6.94909 15.8627 7.00408 15.6773 7.00408C15.4287 7.00408 15.1902 6.9053 15.0144 6.72949C14.8386 6.55367 14.7398 6.31522 14.7398 6.06658ZM13.8023 4.19158C13.9877 4.19158 14.169 4.13659 14.3231 4.03358C14.4773 3.93057 14.5975 3.78415 14.6684 3.61284C14.7394 3.44154 14.758 3.25304 14.7218 3.07118C14.6856 2.88932 14.5963 2.72228 14.4652 2.59116C14.3341 2.46005 14.1671 2.37076 13.9852 2.33459C13.8033 2.29842 13.6148 2.31698 13.4435 2.38794C13.2722 2.4589 13.1258 2.57906 13.0228 2.73323C12.9198 2.8874 12.8648 3.06866 12.8648 3.25408C12.8648 3.50272 12.9636 3.74117 13.1394 3.91699C13.3152 4.0928 13.5537 4.19158 13.8023 4.19158ZM16.0414 8.56658C15.8762 8.55296 15.7125 8.60547 15.586 8.71255C15.4596 8.81964 15.3809 8.97255 15.3671 9.13767C15.2553 10.4443 14.7726 11.6918 13.9758 12.7333C13.179 13.7749 12.1013 14.5672 10.8695 15.0171C9.63771 15.467 8.30304 15.5557 7.02254 15.2727C5.74204 14.9898 4.56898 14.347 3.6414 13.42C2.71382 12.493 2.0703 11.3204 1.78656 10.04C1.50282 8.75972 1.59066 7.42499 2.03975 6.1929C2.48885 4.96081 3.2805 3.88261 4.32158 3.08518C5.36265 2.28775 6.60983 1.80425 7.91636 1.69158C7.99844 1.68481 8.07838 1.66193 8.15162 1.62427C8.22485 1.5866 8.28996 1.53488 8.3432 1.47206C8.39645 1.40923 8.43681 1.33654 8.46196 1.25812C8.48711 1.1797 8.49657 1.09709 8.4898 1.01501C8.48303 0.932938 8.46016 0.852999 8.42249 0.779762C8.38483 0.706525 8.33311 0.641423 8.27028 0.588175C8.20746 0.534926 8.13476 0.494573 8.05634 0.46942C7.97792 0.444266 7.89532 0.434805 7.81324 0.441577C6.26951 0.574362 4.79581 1.14528 3.56554 2.08717C2.33526 3.02905 1.39958 4.30272 0.868576 5.75832C0.337576 7.21392 0.233347 8.7909 0.568153 10.3037C0.902958 11.8165 1.66287 13.2023 2.75848 14.2979C3.85409 15.3935 5.23983 16.1534 6.75265 16.4882C8.26548 16.823 9.84246 16.7188 11.2981 16.1878C12.7537 15.6568 14.0273 14.7211 14.9692 13.4908C15.9111 12.2606 16.482 10.7869 16.6148 9.24314C16.6219 9.16101 16.6126 9.07829 16.5876 8.99975C16.5625 8.92122 16.5222 8.84841 16.4689 8.78552C16.4156 8.72264 16.3504 8.67092 16.277 8.63334C16.2036 8.59577 16.1235 8.57307 16.0414 8.56658ZM8.4898 2.94158C9.60232 2.94158 10.6899 3.27148 11.6149 3.88956C12.5399 4.50764 13.2609 5.38615 13.6866 6.41398C14.1124 7.44182 14.2238 8.57282 14.0067 9.66396C13.7897 10.7551 13.2539 11.7574 12.4673 12.5441C11.6806 13.3307 10.6783 13.8665 9.58718 14.0835C8.49604 14.3005 7.36504 14.1891 6.33721 13.7634C5.30937 13.3377 4.43087 12.6167 3.81279 11.6917C3.1947 10.7666 2.8648 9.6791 2.8648 8.56658C2.86646 7.07524 3.45962 5.64546 4.51415 4.59093C5.56869 3.53639 6.99847 2.94323 8.4898 2.94158ZM7.8648 8.56658C7.8648 8.73234 7.93065 8.89131 8.04786 9.00852C8.16507 9.12573 8.32404 9.19158 8.4898 9.19158H12.2398C12.4056 9.19158 12.5645 9.12573 12.6817 9.00852C12.799 8.89131 12.8648 8.73234 12.8648 8.56658C12.8648 8.40082 12.799 8.24184 12.6817 8.12463C12.5645 8.00742 12.4056 7.94158 12.2398 7.94158H9.1148V4.81658C9.1148 4.65082 9.04895 4.49185 8.93174 4.37463C8.81453 4.25742 8.65556 4.19158 8.4898 4.19158C8.32404 4.19158 8.16507 4.25742 8.04786 4.37463C7.93065 4.49185 7.8648 4.65082 7.8648 4.81658V8.56658ZM10.9898 2.31658C11.1752 2.31658 11.3565 2.26159 11.5106 2.15858C11.6648 2.05557 11.785 1.90915 11.8559 1.73784C11.9269 1.56654 11.9455 1.37804 11.9093 1.19618C11.8731 1.01432 11.7838 0.847276 11.6527 0.716164C11.5216 0.585052 11.3546 0.495764 11.1727 0.45959C10.9908 0.423417 10.8023 0.441982 10.631 0.51294C10.4597 0.583897 10.3133 0.704058 10.2103 0.858229C10.1073 1.0124 10.0523 1.19366 10.0523 1.37908C10.0523 1.62772 10.1511 1.86617 10.3269 2.04199C10.5027 2.2178 10.7412 2.31658 10.9898 2.31658Z" fill="#07B268"/>
</svg>
