<svg width="16" height="20" viewBox="0 0 16 20" fill="none" xmlns="http://www.w3.org/2000/svg">
<path d="M8.43647 5.86859C7.70647 5.86859 6.57647 5.03859 5.38647 5.06859C3.81647 5.08859 2.37647 5.97859 1.56647 7.38859C-0.0635261 10.2186 1.14647 14.3986 2.73647 16.6986C3.51647 17.8186 4.43647 19.0786 5.65647 19.0386C6.82647 18.9886 7.26647 18.2786 8.68647 18.2786C10.0965 18.2786 10.4965 19.0386 11.7365 19.0086C12.9965 18.9886 13.7965 17.8686 14.5665 16.7386C15.4565 15.4386 15.8265 14.1786 15.8465 14.1086C15.8165 14.0986 13.3965 13.1686 13.3665 10.3686C13.3465 8.02859 15.2765 6.90859 15.3665 6.85859C14.2665 5.24859 12.5765 5.06859 11.9865 5.02859C10.4465 4.90859 9.15647 5.86859 8.43647 5.86859ZM11.0365 3.50859C11.6865 2.72859 12.1165 1.63859 11.9965 0.558594C11.0665 0.598594 9.94647 1.17859 9.27647 1.95859C8.67647 2.64859 8.15647 3.75859 8.29647 4.81859C9.32647 4.89859 10.3865 4.28859 11.0365 3.50859Z" fill="#0F1324" fill-opacity="0.6"/>
</svg>
