<svg width="21" height="21" viewBox="0 0 21 21" fill="none" xmlns="http://www.w3.org/2000/svg">
<path d="M10.4033 9.48633V12.3909H14.5221C14.3412 13.325 13.7985 14.1159 12.9845 14.6477L15.4682 16.5364C16.9154 15.2274 17.7503 13.3046 17.7503 11.0205C17.7503 10.4887 17.7016 9.97728 17.6111 9.48641L10.4033 9.48633Z" fill="#4285F4"/>
<path d="M3.57091 7.48828C3.04914 8.49734 2.75 9.636 2.75 10.8496C2.75 12.0632 3.04914 13.2019 3.57091 14.211C3.57091 14.2177 6.11735 12.2746 6.11735 12.2746C5.96429 11.8246 5.87382 11.3473 5.87382 10.8495C5.87382 10.3517 5.96429 9.8745 6.11735 9.4245L3.57091 7.48828Z" fill="#FBBC05"/>
<path d="M10.4034 6.33599C11.5305 6.33599 12.5323 6.7178 13.3324 7.45418L15.524 5.30646C14.1951 4.09284 12.4697 3.34961 10.4034 3.34961C7.41172 3.34961 4.83057 5.03371 3.57129 7.48827L6.11765 9.42465C6.72291 7.65189 8.41357 6.33599 10.4034 6.33599Z" fill="#EA4335"/>
<path d="M6.11436 12.2773L5.55417 12.6976L3.57129 14.2112C4.83057 16.6589 7.41156 18.3499 10.4032 18.3499C12.4695 18.3499 14.2019 17.6817 15.4681 16.5362L12.9844 14.6476C12.3025 15.0976 11.4329 15.3703 10.4032 15.3703C8.41341 15.3703 6.72282 14.0544 6.11748 12.2817L6.11436 12.2773Z" fill="#34A853"/>
</svg>
