<svg width="37" height="28" viewBox="0 0 37 28" fill="none" xmlns="http://www.w3.org/2000/svg">
<path fill-rule="evenodd" clip-rule="evenodd" d="M26.5285 16.1873L28.6435 15.742C31.0087 15.2441 33.4656 15.4122 35.7409 16.2277C36.2914 16.425 36.5894 17.0202 36.4176 17.5792L34.7637 22.96C34.6463 23.3419 34.2935 23.6026 33.894 23.6026H26.3378C23.9166 23.6026 21.5767 24.4766 19.7485 26.064L18.8284 26.8629C18.6618 27.0076 18.4485 27.0873 18.2278 27.0872C18.0131 27.0872 17.8053 27.0118 17.6406 26.8741L16.6626 26.0567C14.7654 24.4712 12.3716 23.6026 9.8991 23.6026H3.18097C2.45136 23.6026 1.8099 23.1195 1.60831 22.4183L0.444508 18.3702C0.241098 17.6626 0.570534 16.9105 1.22852 16.5803C4.0238 15.5466 7.05104 15.3117 9.97115 15.901L3.16197 8.70835C2.54067 8.05205 2.56903 7.01635 3.22533 6.39505L6.0706 3.70149C6.7269 3.08019 7.7626 3.10856 8.3839 3.76485L14.4335 10.1552L14.4335 1.73012C14.4335 0.826378 15.1661 0.09375 16.0699 0.09375H19.9879C20.8916 0.09375 21.6243 0.826376 21.6243 1.73011V10.9082L28.3639 3.78895C28.9852 3.13265 30.0209 3.10429 30.6772 3.72559L33.5225 6.41915C34.1788 7.04045 34.2072 8.07615 33.5859 8.73245L26.5285 16.1873Z" fill="white"/>
</svg>
