<svg width="52" height="40" viewBox="0 0 52 40" fill="none" xmlns="http://www.w3.org/2000/svg">
<path fill-rule="evenodd" clip-rule="evenodd" d="M37.1448 23.6905L40.1505 23.0577C43.511 22.3502 47.0019 22.5891 50.2347 23.7478C51.0167 24.0281 51.4402 24.8738 51.1961 25.6679L48.8463 33.3131C48.6795 33.8557 48.1782 34.2261 47.6105 34.2261H36.8745C33.4344 34.2261 30.1099 35.4679 27.5124 37.7233L26.2051 38.8584C25.9683 39.064 25.6652 39.1772 25.3516 39.1771C25.0467 39.1771 24.7514 39.0699 24.5174 38.8743L23.1278 37.713C20.4323 35.4602 17.031 34.2261 13.5181 34.2261H3.9729C2.93626 34.2261 2.02485 33.5397 1.73843 32.5435L0.0848831 26.7917C-0.204125 25.7865 0.263943 24.7179 1.19882 24.2487C5.1706 22.7799 9.47198 22.4462 13.6211 23.2837L3.94603 13.0637C3.06327 12.1312 3.10358 10.6597 4.03606 9.77693L8.07867 5.94987C9.01115 5.06711 10.4827 5.10742 11.3654 6.0399L19.9605 15.119L19.9604 3.14919C19.9604 1.86515 21.0014 0.824219 22.2854 0.824219L27.8522 0.824219C29.1363 0.824219 30.1772 1.86515 30.1772 3.14919L30.1772 16.1894L39.7528 6.0745C40.6355 5.14202 42.1071 5.10171 43.0395 5.98447L47.0821 9.81153C48.0146 10.6943 48.0549 12.1658 47.1722 13.0983L37.1448 23.6905Z" fill="#111111"/>
</svg>
