<svg width="11" height="14" viewBox="0 0 11 14" fill="none" xmlns="http://www.w3.org/2000/svg">
<path d="M5.33333 3.334C8.27887 3.334 10.6667 5.72181 10.6667 8.66734C10.6667 11.6129 8.27887 14.0007 5.33333 14.0007C2.38781 14.0007 0 11.6129 0 8.66734C0 5.72181 2.38781 3.334 5.33333 3.334ZM5.33333 4.66733C3.12419 4.66733 1.33333 6.45821 1.33333 8.66734C1.33333 10.8765 3.12419 12.6673 5.33333 12.6673C7.54247 12.6673 9.33333 10.8765 9.33333 8.66734C9.33333 6.45821 7.54247 4.66733 5.33333 4.66733ZM5.33333 5.66734L6.215 7.45381L8.18653 7.74027L6.75993 9.13087L7.09667 11.0944L5.33333 10.1673L3.56998 11.0944L3.90675 9.13087L2.48017 7.74027L4.45167 7.45381L5.33333 5.66734ZM9.33333 0.000666618V2.00067L8.4244 2.75904C7.687 2.37247 6.86833 2.1199 6.00073 2.03366L6 0L9.33333 0.000666618ZM4.66667 0L4.66647 2.0336C3.79893 2.11976 2.98031 2.37224 2.24294 2.75869L1.33333 2.00067V0.000666618L4.66667 0Z" fill="#4414FC"/>
</svg>
