<svg width="16" height="15" viewBox="0 0 16 15" fill="none" xmlns="http://www.w3.org/2000/svg">
<path d="M7.35547 1.69922V5.56641C7.35547 5.90829 7.21966 6.23616 6.97791 6.47791C6.73616 6.71966 6.40829 6.85547 6.06641 6.85547H2.19922C1.85734 6.85547 1.52946 6.71966 1.28771 6.47791C1.04597 6.23616 0.910156 5.90829 0.910156 5.56641V1.69922C0.910156 1.35734 1.04597 1.02946 1.28771 0.787714C1.52946 0.545968 1.85734 0.410156 2.19922 0.410156H6.06641C6.40829 0.410156 6.73616 0.545968 6.97791 0.787714C7.21966 1.02946 7.35547 1.35734 7.35547 1.69922ZM13.8008 0.410156H9.93359C9.59171 0.410156 9.26383 0.545968 9.02209 0.787714C8.78034 1.02946 8.64453 1.35734 8.64453 1.69922V5.56641C8.64453 5.90829 8.78034 6.23616 9.02209 6.47791C9.26383 6.71966 9.59171 6.85547 9.93359 6.85547H13.8008C14.1427 6.85547 14.4705 6.71966 14.7123 6.47791C14.954 6.23616 15.0898 5.90829 15.0898 5.56641V1.69922C15.0898 1.35734 14.954 1.02946 14.7123 0.787714C14.4705 0.545968 14.1427 0.410156 13.8008 0.410156ZM6.06641 8.14453H2.19922C1.85734 8.14453 1.52946 8.28034 1.28771 8.52209C1.04597 8.76383 0.910156 9.09171 0.910156 9.43359V13.3008C0.910156 13.6427 1.04597 13.9705 1.28771 14.2123C1.52946 14.454 1.85734 14.5898 2.19922 14.5898H6.06641C6.40829 14.5898 6.73616 14.454 6.97791 14.2123C7.21966 13.9705 7.35547 13.6427 7.35547 13.3008V9.43359C7.35547 9.09171 7.21966 8.76383 6.97791 8.52209C6.73616 8.28034 6.40829 8.14453 6.06641 8.14453ZM13.8008 8.14453H9.93359C9.59171 8.14453 9.26383 8.28034 9.02209 8.52209C8.78034 8.76383 8.64453 9.09171 8.64453 9.43359V13.3008C8.64453 13.6427 8.78034 13.9705 9.02209 14.2123C9.26383 14.454 9.59171 14.5898 9.93359 14.5898H13.8008C14.1427 14.5898 14.4705 14.454 14.7123 14.2123C14.954 13.9705 15.0898 13.6427 15.0898 13.3008V9.43359C15.0898 9.09171 14.954 8.76383 14.7123 8.52209C14.4705 8.28034 14.1427 8.14453 13.8008 8.14453Z" fill="black"/>
</svg>
