<svg width="8" height="11" viewBox="0 0 8 11" fill="none" xmlns="http://www.w3.org/2000/svg">
<path d="M6.5 1H4.5V0.5H3.5V1H1.5C0.671575 1 0 1.67158 0 2.5V4C0 5.3807 1.11929 6.5 2.5 6.5H5.5C6.8807 6.5 8 5.3807 8 4V2.5C8 1.67158 7.32845 1 6.5 1ZM3.5 3.75C3.5 4.16422 3.1642 4.5 2.75 4.5C2.33578 4.5 2 4.16422 2 3.75C2 3.33578 2.33578 3 2.75 3C3.1642 3 3.5 3.33578 3.5 3.75ZM6 3.75C6 4.16422 5.6642 4.5 5.25 4.5C4.8358 4.5 4.5 4.16422 4.5 3.75C4.5 3.33578 4.8358 3 5.25 3C5.6642 3 6 3.33578 6 3.75ZM0 11C0 8.79085 1.79086 7 4 7C6.20915 7 8 8.79085 8 11H0Z" fill="#4414FC"/>
</svg>
